<?xml version="1.0" standalone="no"?>
<!DOCTYPE svg PUBLIC "-//W3C//DTD SVG 1.1//EN" "http://www.w3.org/Graphics/SVG/1.1/DTD/svg11.dtd" >
<svg xmlns="http://www.w3.org/2000/svg">
<metadata></metadata>
<defs>
<font id="neo_sans_prolight" horiz-adv-x="1187" >
<font-face units-per-em="2048" ascent="1567" descent="-481" />
<missing-glyph horiz-adv-x="440" />
<glyph unicode="&#xfb01;" horiz-adv-x="1169" d="M82 1049v18q0 15 11 24t28 9h203v190q0 128 59 185t172 57q67 0 107 -6q38 -5 38 -33v-14q0 -27 -43 -27h-102q-74 0 -107.5 -36t-33.5 -126v-190h553q15 0 27 -12t12 -27v-1022q0 -15 -12 -27t-27 -12h-13q-15 0 -27 12t-12 27v977h-501v-977q0 -15 -11 -27t-26 -12h-15 q-17 0 -27.5 11.5t-10.5 27.5v977h-203q-17 0 -28 9t-11 24zM915 1341v152q0 15 12 27t27 12h13q15 0 27 -12t12 -27v-152q0 -17 -11.5 -27.5t-27.5 -10.5h-13q-16 0 -27.5 10.5t-11.5 27.5z" />
<glyph unicode="&#xfb02;" horiz-adv-x="1169" d="M82 1049v18q0 15 11 24t28 9h203v190q0 139 66 190.5t226 51.5q238 0 355 -6q15 0 25 -12t10 -27v-1448q0 -15 -10 -27t-25 -12h-21q-15 0 -25 12t-10 27v1413h-294q-126 0 -166.5 -29.5t-40.5 -132.5v-190h243q17 0 28 -9t11 -24v-18q0 -15 -11 -24t-28 -9h-243v-977 q0 -15 -11 -27t-26 -12h-15q-17 0 -27.5 11.5t-10.5 27.5v977h-203q-17 0 -28 9t-11 24z" />
<glyph unicode="&#xfb03;" horiz-adv-x="1781" d="M82 1049v18q0 15 11 24t28 9h203v190q0 128 59 185t172 57q67 0 107 -6q38 -5 38 -33v-14q0 -27 -43 -27h-102q-74 0 -107.5 -36t-33.5 -126v-190h501v190q0 128 59.5 185t172.5 57q65 0 106 -6q39 -5 39 -33v-14q0 -27 -43 -27h-102q-74 0 -107.5 -36t-33.5 -126v-190 h573q39 0 39 -39v-1022q0 -15 -12 -27t-27 -12h-12q-15 0 -27 12t-12 27v977h-522v-977q0 -15 -11 -27t-26 -12h-15q-17 0 -28 11.5t-11 27.5v977h-501v-977q0 -15 -11 -27t-26 -12h-15q-17 0 -27.5 11.5t-10.5 27.5v977h-203q-17 0 -28 9t-11 24zM1528 1341v152q0 15 12 27 t27 12h12q15 0 27 -12t12 -27v-152q0 -17 -11.5 -27.5t-27.5 -10.5h-12q-16 0 -27.5 10.5t-11.5 27.5z" />
<glyph unicode="&#xfb04;" horiz-adv-x="1761" d="M82 1049v18q0 15 11 24t28 9h203v190q0 128 59 185t172 57q67 0 107 -6q38 -5 38 -33v-14q0 -27 -43 -27h-102q-74 0 -107.5 -36t-33.5 -126v-190h501v190q0 139 66.5 190.5t226.5 51.5q238 0 355 -6q15 0 24.5 -11.5t9.5 -27.5v-1448q0 -16 -9.5 -27.5t-24.5 -11.5h-21 q-15 0 -25 12t-10 27v1413h-295q-125 0 -165.5 -29.5t-40.5 -132.5v-190h243q17 0 28 -9t11 -24v-18q0 -15 -11 -24t-28 -9h-243v-977q0 -15 -11 -27t-26 -12h-15q-17 0 -28 11.5t-11 27.5v977h-501v-977q0 -15 -11 -27t-26 -12h-15q-17 0 -27.5 11.5t-10.5 27.5v977h-203 q-17 0 -28 9t-11 24z" />
<glyph horiz-adv-x="2048" />
<glyph horiz-adv-x="2048" />
<glyph unicode="&#xd;" horiz-adv-x="2048" />
<glyph unicode=" "  horiz-adv-x="440" />
<glyph unicode="&#x09;" horiz-adv-x="440" />
<glyph unicode="&#xa0;" horiz-adv-x="440" />
<glyph unicode="!" horiz-adv-x="417" d="M164 27v151q0 15 12 27t27 12h12q15 0 27 -12t12 -27v-151q0 -17 -11.5 -28t-27.5 -11h-12q-16 0 -27.5 11t-11.5 28zM164 393v1090q0 15 12 27t27 12h12q15 0 27 -12t12 -27v-1090q0 -15 -12 -27t-27 -12h-12q-15 0 -27 12t-12 27z" />
<glyph unicode="&#x22;" horiz-adv-x="604" d="M80 1112q0 12 2 18l84 353q8 39 41 39h39q22 0 22 -23q0 -10 -2 -16l-98 -353q-10 -38 -39 -38h-31q-18 0 -18 20zM336 1112q0 12 2 18l84 353q8 39 41 39h39q22 0 22 -23q0 -10 -2 -16l-98 -353q-10 -38 -39 -38h-31q-18 0 -18 20z" />
<glyph unicode="#" horiz-adv-x="1302" d="M102 479v6q0 16 13 25.5t30 9.5h213l41 463h-213q-15 0 -25.5 10t-10.5 25v8q0 14 13.5 24.5t29.5 10.5h213l36 422q2 15 13 27t26 12h21q13 0 21.5 -10.5t8.5 -24.5v-4l-36 -422h368l37 422q2 16 12.5 27.5t26.5 11.5h18q14 0 22.5 -10.5t8.5 -24.5v-4l-37 -422h213 q15 0 25 -10t10 -25v-8q0 -15 -12.5 -25t-28.5 -10h-213l-41 -463h213q16 0 25.5 -9t9.5 -26v-6q0 -16 -12.5 -25.5t-28.5 -9.5h-215l-35 -405q-2 -16 -11.5 -27.5t-25.5 -11.5h-18q-14 0 -23.5 10.5t-9.5 24.5v4l35 405h-369l-34 -405q-2 -16 -12.5 -27.5t-24.5 -11.5h-21 q-13 0 -23 10.5t-10 24.5v4l35 405h-211q-16 0 -26.5 9t-10.5 26zM449 520h368l41 463h-369z" />
<glyph unicode="$" d="M164 1200q0 298 389 328v178q0 16 9.5 27.5t23.5 11.5h20q14 0 23.5 -11.5t9.5 -27.5v-174h4q74 0 305 -21q35 -3 35 -30v-27q0 -29 -39 -29q-15 0 -129.5 10.5t-173.5 10.5q-201 0 -292 -59t-91 -187q0 -88 50 -147.5t198 -149.5l201 -123q130 -79 199 -143.5 t93.5 -122.5t24.5 -137q0 -350 -385 -385v-215q0 -16 -9.5 -27.5t-23.5 -11.5h-20q-14 0 -23.5 11.5t-9.5 27.5v211h-4q-93 0 -318 22q-15 2 -25.5 10.5t-10.5 22.5v27q0 26 38 26h9q34 -3 95.5 -9t111.5 -9.5t100 -3.5q112 0 189.5 23t118 66.5t57 94.5t16.5 119 q0 100 -52.5 159.5t-224.5 165.5l-204 127q-165 103 -225 182.5t-60 188.5z" />
<glyph unicode="%" horiz-adv-x="1550" d="M123 1001v213q0 158 68.5 238t191.5 80t190.5 -80t67.5 -238v-213q0 -158 -67.5 -238.5t-190.5 -80.5t-191.5 80.5t-68.5 238.5zM203 1001q0 -239 180 -239q178 0 178 239v213q0 240 -178 240q-180 0 -180 -240v-213zM279 -2q0 11 12 29l860 1456q13 23 21 31t22 8h53 q17 0 17 -11q0 -9 -13 -28l-860 -1456q-13 -23 -21 -31t-22 -8h-55q-14 0 -14 10zM909 307v213q0 158 68.5 238t191.5 80t190.5 -80t67.5 -238v-213q0 -158 -67.5 -238.5t-190.5 -80.5t-191.5 80.5t-68.5 238.5zM989 307q0 -239 180 -239q179 0 179 239v213q0 240 -179 240 q-180 0 -180 -240v-213z" />
<glyph unicode="&#x26;" horiz-adv-x="1304" d="M102 342v12q0 125 68 216t244 204q-107 125 -162.5 208.5t-69.5 127.5t-14 96v13q0 84 30 146t84 97.5t123 52.5t154 17q73 0 137.5 -17t119 -52.5t86.5 -98t32 -145.5v-13q0 -118 -72 -210t-250 -199l-67 -41q31 -34 101.5 -109.5t90.5 -97.5l244 -262q104 162 104 426 v22q0 39 31 39h29q33 0 33 -39v-22q0 -298 -136 -492l181 -194q4 -8 4 -13q0 -14 -17 -14h-65q-21 0 -33 14l-129 138q-158 -164 -418 -164q-66 0 -127.5 9.5t-124 35t-108 64t-74.5 102t-29 143.5zM199 342q0 -72 31 -126.5t84.5 -85.5t116 -45.5t134.5 -14.5 q226 0 361 145l-254 272q-149 161 -203 222q-160 -101 -215 -171t-55 -184v-12zM262 1206q0 -47 12 -84t62.5 -110.5t152.5 -190.5l76 45q162 97 218.5 169t56.5 171v13q0 231 -281 231q-70 0 -120.5 -10.5t-92.5 -35t-63 -71t-21 -114.5v-13z" />
<glyph unicode="'" horiz-adv-x="348" d="M80 1112q0 12 2 18l84 353q8 39 41 39h39q22 0 22 -23q0 -10 -2 -16l-98 -353q-10 -38 -39 -38h-31q-18 0 -18 20z" />
<glyph unicode="(" horiz-adv-x="542" d="M123 506v110q0 140 25 293.5t87.5 320.5t153.5 277q12 15 35 15h61q17 0 17 -11q0 -8 -10 -18q-89 -96 -154 -258t-94 -320.5t-29 -298.5v-110q0 -140 29 -298.5t94 -320.5t154 -258q10 -10 10 -18q0 -10 -17 -10h-61q-24 0 -35 14q-91 110 -153.5 277t-87.5 320.5 t-25 293.5z" />
<glyph unicode=")" horiz-adv-x="542" d="M41 -389q0 8 10 18q89 96 154 258t94 320.5t29 298.5v110q0 140 -29 298.5t-94 320.5t-154 258q-10 10 -10 18q0 11 16 11h62q23 0 35 -15q91 -110 153.5 -277t87.5 -320.5t25 -293.5v-110q0 -140 -25 -293.5t-87.5 -320.5t-153.5 -277q-11 -14 -35 -14h-62q-16 0 -16 10 z" />
<glyph unicode="*" horiz-adv-x="854" d="M70 1260q0 6 2 8l6 16q6 19 28 19q6 0 15 -3l268 -86v281q0 37 29 37h18q29 0 29 -37v-281l268 86q9 3 15 3q22 0 28 -19l6 -16q2 -2 2 -8q0 -11 -8 -20.5t-20 -12.5l-267 -86l164 -228q11 -15 11 -24q0 -13 -13 -23l-14 -10q-9 -6 -16 -6q-15 0 -29 18l-166 228 l-164 -228q-13 -16 -29 -16q-10 0 -16 4l-16 10q-13 6 -13 21q0 11 11 26l166 228l-267 86q-12 3 -20 12.5t-8 20.5z" />
<glyph unicode="+" d="M139 791v20q0 33 41 33h371v373q0 40 33 40h20q33 0 33 -40v-373h373q41 0 41 -33v-20q0 -33 -41 -33h-373v-371q0 -41 -33 -41h-20q-33 0 -33 41v371h-371q-41 0 -41 33z" />
<glyph unicode="," horiz-adv-x="344" d="M49 -184q0 6 4 18l109 344q11 39 41 39h39q24 0 24 -22q0 -5 -4 -17l-129 -344q-8 -21 -16.5 -30t-22.5 -9h-24q-21 0 -21 21z" />
<glyph unicode="-" horiz-adv-x="704" d="M106 559v16q0 15 11 26t28 11h414q17 0 28 -11t11 -26v-16q0 -15 -11 -24t-28 -9h-414q-17 0 -28 9t-11 24z" />
<glyph unicode="." horiz-adv-x="344" d="M127 27v151q0 15 12 27t27 12h12q15 0 27 -12t12 -27v-151q0 -17 -11.5 -28t-27.5 -11h-12q-16 0 -27.5 11t-11.5 28z" />
<glyph unicode="/" horiz-adv-x="638" d="M29 12q0 11 2 15l481 1466q13 39 33 39h43q22 0 22 -25q0 -10 -2 -14l-481 -1466q-13 -39 -33 -39h-45q-20 0 -20 24z" />
<glyph unicode="0" d="M123 559v404q0 288 124 428.5t347 140.5t347 -140.5t124 -428.5v-404q0 -288 -124 -429.5t-347 -141.5t-347 141.5t-124 429.5zM213 559q0 -241 97.5 -365t283.5 -124t283.5 124t97.5 365v404q0 241 -97.5 364t-283.5 123t-283.5 -123t-97.5 -364v-404z" />
<glyph unicode="1" d="M131 1415v10q0 21 10 29t31 12l395 56h11q36 0 36 -41v-1397h351q41 0 41 -31v-22q0 -31 -41 -31h-791q-41 0 -41 31v22q0 31 41 31h350v1350l-352 -45h-10q-31 0 -31 26z" />
<glyph unicode="2" d="M164 41v125q0 83 11 145t43.5 130.5t97 134t165.5 133.5l209 141q139 94 187.5 160t48.5 164q0 140 -88 206t-289 66q-152 0 -313 -31q-2 0 -6 -1t-5 -1q-14 0 -23 9t-9 24v22q0 25 38 33q140 31 318 31q475 0 475 -358q0 -117 -59 -202.5t-217 -191.5l-209 -141 q-65 -44 -112.5 -83.5t-78.5 -78t-49.5 -72t-28 -75.5t-12 -77t-2.5 -87v-82h709q41 0 41 -31v-22q0 -31 -41 -31h-760q-18 0 -29.5 12.5t-11.5 28.5z" />
<glyph unicode="3" d="M172 55v13q0 32 33 32h8q160 -26 295 -26q213 0 312.5 82t99.5 266v41q0 44 -16 92t-48 94.5t-91.5 76.5t-135.5 30h-383q-17 0 -28 11t-11 26v14q0 17 11 27t28 10h383q68 0 121 20t84.5 50t51.5 70.5t27 76.5t7 72v24q0 86 -25 142.5t-79 88.5t-127 45t-181 13 q-105 0 -295 -31h-8q-15 0 -24 9t-9 24v16q0 13 11 23.5t26 13.5q177 31 299 31q124 0 213 -17t158 -58.5t103 -116t34 -183.5v-24q0 -109 -50.5 -199t-162.5 -139q57 -26 100 -67t66.5 -87.5t35 -91t11.5 -86.5v-41q0 -223 -133.5 -328.5t-374.5 -105.5q-153 0 -299 30 q-15 3 -26 13.5t-11 23.5z" />
<glyph unicode="4" d="M78 553q0 43 28 86l574 842q34 51 104 51q36 0 59 -24t23 -74v-906h205q16 0 27.5 -9t11.5 -23v-19q0 -16 -11.5 -25.5t-27.5 -9.5h-205v-403q0 -16 -9 -27.5t-23 -11.5h-25q-16 0 -24.5 11.5t-8.5 27.5v403h-567q-61 0 -96 31.5t-35 79.5zM164 553q0 -25 45 -25h567v893 q0 17 -12 17q-8 0 -21 -17l-559 -821q-20 -32 -20 -47z" />
<glyph unicode="5" d="M158 63v23q0 27 26 27q11 0 17 -2q154 -37 311 -37q207 0 317.5 92t110.5 274v52q0 177 -115 247t-379 70h-217q-19 0 -30 11t-11 30v4l48 633q1 15 13.5 25t26.5 10h668q17 0 29 -8.5t12 -24.5v-23q0 -28 -41 -28h-620l-37 -545h159q165 0 279 -25t180.5 -77.5 t95.5 -124.5t29 -174v-52q0 -218 -141 -335t-377 -117q-152 0 -315 37q-39 7 -39 38z" />
<glyph unicode="6" d="M131 518v481q0 282 125 407.5t377 125.5q99 0 167.5 -9.5t157.5 -29.5q46 -8 46 -37v-20q0 -29 -33 -29q-11 0 -17 2q-95 20 -161 28.5t-160 8.5q-215 0 -313.5 -101t-98.5 -346v-127q208 54 379 54q70 0 133.5 -12t123.5 -41t103.5 -73.5t70 -115t26.5 -160.5v-10 q0 -264 -114 -395t-359 -131q-230 0 -341.5 130.5t-111.5 399.5zM221 518q0 -242 86.5 -345t276.5 -103t286.5 103.5t96.5 340.5v10q0 72 -21.5 128.5t-56.5 91.5t-84 57.5t-99 31.5t-106 9q-196 0 -379 -49v-275z" />
<glyph unicode="7" d="M127 1466v17q0 15 12 27t29 12h811q35 0 57.5 -20t22.5 -52q0 -25 -10 -45l-656 -1385q-3 -7 -15.5 -13.5t-21.5 -6.5h-30q-14 0 -22.5 9t-8.5 22q0 12 6 24l647 1350q2 4 2 12q0 17 -16 17h-766q-18 0 -29.5 8.5t-11.5 23.5z" />
<glyph unicode="8" d="M115 403v62q0 60 21.5 121.5t71.5 120.5t120 90q-98 35 -155.5 122t-57.5 195v45q0 187 129 280t350 93t350 -93t129 -280v-45q0 -108 -57.5 -195t-155.5 -122q70 -31 120 -90t71.5 -120.5t21.5 -121.5v-62q0 -104 -36 -184t-100.5 -130t-151 -75.5t-191.5 -25.5 t-191.5 25.5t-151 75.5t-100.5 130t-36 184zM211 403q0 -161 99 -245t284 -84t284 84t99 245v62q0 31 -8 66.5t-29.5 76.5t-54 73t-86.5 53.5t-121 21.5h-168q-67 0 -121 -21.5t-86.5 -53.5t-54 -73t-29.5 -76.5t-8 -66.5v-62zM211 1114q0 -37 8.5 -73t30 -72.5t54.5 -63.5 t86 -44t120 -17h168q67 0 120 17t86 44t54.5 63.5t30 72.5t8.5 73v45q0 287 -383 287t-383 -287v-45z" />
<glyph unicode="9" d="M131 995v11q0 264 114 395t359 131q230 0 341.5 -131t111.5 -400v-481q0 -281 -125 -406.5t-377 -125.5q-156 0 -326 39q-45 8 -45 36v21q0 29 33 29q10 0 16 -2q175 -37 322 -37q144 0 232 41.5t134 140.5t46 264v127q-204 -53 -379 -53q-70 0 -133 11.5t-123.5 41 t-104 73.5t-70 114.5t-26.5 160.5zM221 995q0 -72 21.5 -128.5t56.5 -91.5t84 -57.5t99 -31t106 -8.5q196 0 379 49v274q0 242 -87 345.5t-276 103.5q-190 0 -286.5 -103.5t-96.5 -340.5v-11z" />
<glyph unicode=":" horiz-adv-x="364" d="M137 27v151q0 15 12 27t27 12h12q15 0 27 -12t12 -27v-151q0 -17 -11.5 -28t-27.5 -11h-12q-16 0 -27.5 11t-11.5 28zM137 920v151q0 15 12 27t27 12h12q15 0 27 -12t12 -27v-151q0 -17 -11.5 -28t-27.5 -11h-12q-16 0 -27.5 11t-11.5 28z" />
<glyph unicode=";" horiz-adv-x="364" d="M25 -184q0 6 4 18l108 344q11 39 41 39h39q25 0 25 -22q0 -5 -4 -17l-129 -344q-8 -21 -16.5 -30t-22.5 -9h-25q-20 0 -20 21zM137 920v151q0 15 12 27t27 12h12q15 0 27 -12t12 -27v-151q0 -17 -11.5 -28t-27.5 -11h-12q-16 0 -27.5 11t-11.5 28z" />
<glyph unicode="&#x3c;" d="M229 801q0 34 31 59l545 447q17 14 33 14q12 0 20 -8l14 -15q11 -11 11 -22q0 -17 -17 -31l-542 -444l542 -445q17 -14 17 -30q0 -12 -11 -23l-14 -14q-8 -8 -20 -8q-16 0 -33 14l-545 446q-31 25 -31 60z" />
<glyph unicode="=" d="M180 586v20q0 33 41 33h748q41 0 41 -33v-20q0 -33 -41 -33h-748q-41 0 -41 33zM180 995v21q0 33 41 33h748q41 0 41 -33v-21q0 -32 -41 -32h-748q-41 0 -41 32z" />
<glyph unicode="&#x3e;" d="M334 326q0 17 16 30l543 445l-543 444q-16 13 -16 31q0 12 10 22l14 15q8 8 21 8q15 0 33 -14l544 -447q31 -25 31 -59q0 -35 -31 -60l-544 -446q-18 -14 -33 -14q-13 0 -21 8l-14 14q-10 10 -10 23z" />
<glyph unicode="?" horiz-adv-x="868" d="M72 1462v17q0 34 34 39q118 14 244 14q80 0 147.5 -15.5t125 -48.5t90 -92.5t32.5 -140.5v-16q0 -93 -46.5 -174.5t-178.5 -213.5l-61 -61q-77 -77 -100 -123.5t-23 -130.5v-123q0 -17 -11.5 -28t-27.5 -11h-12q-16 0 -27.5 11t-11.5 28v123q0 100 31 165.5t120 154.5 l58 57q118 118 155 183t37 143v16q0 115 -72.5 166t-224.5 51q-80 0 -248 -14h-4q-26 0 -26 24zM244 27v151q0 15 12 27t27 12h12q15 0 27 -12t12 -27v-151q0 -17 -11.5 -28t-27.5 -11h-12q-16 0 -27.5 11t-11.5 28z" />
<glyph unicode="@" horiz-adv-x="1552" d="M102 356q0 40 2 60l29 293q12 130 66.5 242t144 196t219 132t283.5 48q143 0 260 -47t191 -126.5t113.5 -179.5t39.5 -210q0 -211 -38.5 -329.5t-127.5 -184.5q-160 -117 -557 -117q-143 0 -216 73.5t-73 194.5q0 25 2 37l23 242q13 136 95.5 218.5t234.5 82.5 q114 0 251 -29q29 -7 29 -26v-4l-63 -695q56 7 102 20.5t80.5 30.5t61 44t44 51.5t30 63.5t19 70t10 80t4.5 84.5t1 92.5q0 102 -35 190t-99.5 153.5t-164.5 102.5t-223 37q-131 0 -243 -42.5t-190.5 -115.5t-126.5 -171.5t-59 -210.5l-28 -291q-3 -30 -3 -60 q0 -99 32 -184.5t94.5 -152.5t164.5 -105.5t232 -38.5q115 0 258 10h2h6q31 0 31 -24q0 -9 -2 -15q-5 -27 -41 -32q-134 -17 -262 -17q-115 0 -214 30t-169.5 82t-120.5 122.5t-74.5 153t-24.5 171.5zM524 403q0 -89 50 -138.5t153 -49.5h70q86 0 125 6l59 662 q-124 18 -193 18q-219 0 -239 -223l-23 -240q-2 -12 -2 -35z" />
<glyph unicode="A" horiz-adv-x="1267" d="M82 45l420 1387q14 47 48.5 73.5t84.5 26.5q49 0 83 -26t48 -72l420 -1389q3 -11 3 -19q0 -10 -4 -18q-7 -14 -28 -14h-24q-12 0 -21 7.5t-12 18.5l-172 555h-590l-168 -555q-3 -10 -13 -18t-20 -8h-26q-19 0 -27 14q-4 8 -5 19q0 8 3 18zM362 666h543l-223 743 q-12 41 -47 41q-37 0 -47 -39z" />
<glyph unicode="B" d="M164 41v1440q0 15 12 26t27 13q168 12 307 12q91 0 167 -9t152 -33.5t127.5 -65t84 -107.5t32.5 -156v-22q0 -125 -64 -212.5t-180 -127.5q120 -36 186 -124.5t66 -223.5v-35q0 -104 -35.5 -183t-90.5 -125t-133.5 -74.5t-152.5 -38t-159 -9.5q-160 0 -307 16 q-39 3 -39 39zM254 80q176 -12 256 -12q81 0 145 7.5t129.5 30t109 59.5t70.5 101t27 150v35q0 50 -10 92.5t-36 82.5t-66 68t-105 45t-149 17h-371v-676zM254 844h371q358 0 358 295v22q0 61 -18 108.5t-52 78.5t-76 52t-98.5 32t-110 15.5t-118.5 4.5q-54 0 -153 -4 t-103 -4v-600z" />
<glyph unicode="C" horiz-adv-x="1099" d="M123 625v270q0 142 28 253.5t74.5 182.5t112.5 117t136 65t151 19q169 0 354 -21q15 -2 27 -11t12 -23v-25q0 -17 -9.5 -22t-29.5 -3q-176 19 -354 19q-89 0 -161.5 -30t-130 -93.5t-89 -172t-31.5 -255.5v-270q0 -147 31.5 -255.5t89 -172t130 -93.5t161.5 -30 q187 0 354 18q20 2 29.5 -2.5t9.5 -21.5v-25q0 -14 -12 -23.5t-27 -11.5q-177 -20 -354 -20q-81 0 -151 19t-136 65t-112.5 117t-74.5 182.5t-28 253.5z" />
<glyph unicode="D" horiz-adv-x="1255" d="M164 43v1434q0 13 10.5 24.5t24.5 14.5q94 16 336 16q598 0 598 -645v-254q0 -138 -29 -247.5t-81 -183.5t-127.5 -122.5t-164.5 -70t-196 -21.5q-242 0 -336 16q-14 3 -24.5 14.5t-10.5 24.5zM254 76q120 -8 281 -8q507 0 507 565v254q0 128 -25.5 226t-70 161.5 t-109.5 104t-138.5 57t-163.5 16.5q-101 0 -281 -12v-1364z" />
<glyph unicode="E" horiz-adv-x="1091" d="M164 229v1063q0 124 62.5 177t185.5 53h528q17 0 28 -10t11 -25v-17q0 -15 -10.5 -23.5t-28.5 -8.5h-528q-82 0 -120 -28.5t-38 -117.5v-450h686q17 0 28 -9t11 -24v-21q0 -15 -11 -24.5t-28 -9.5h-686v-525q0 -89 38 -117t120 -28h528q17 0 28 -9t11 -24v-16 q0 -15 -11 -25t-28 -10h-528q-123 0 -185.5 52.5t-62.5 176.5z" />
<glyph unicode="F" horiz-adv-x="1060" d="M164 39v1253q0 124 62.5 177t185.5 53h528q17 0 28 -10t11 -25v-17q0 -15 -10.5 -23.5t-28.5 -8.5h-528q-82 0 -120 -28.5t-38 -117.5v-450h686q17 0 28 -9t11 -24v-21q0 -15 -11 -24.5t-28 -9.5h-686v-715q0 -15 -10 -27t-25 -12h-20q-15 0 -25 12t-10 27z" />
<glyph unicode="G" horiz-adv-x="1204" d="M123 633v254q0 148 31 263t80.5 185.5t118.5 116t138 63t146 17.5q184 0 369 -21q34 -4 34 -32v-21q0 -20 -10 -27t-33 -4q-217 21 -360 21q-66 0 -123.5 -15t-114 -54.5t-96.5 -101t-65 -161.5t-25 -229v-254q0 -282 111.5 -420.5t312.5 -138.5q163 0 311 18v651 q0 17 10 28t25 11h21q15 0 24.5 -11t9.5 -28v-690q0 -15 -10 -26t-24 -13q-212 -26 -367 -26q-112 0 -203.5 38t-162 114t-109.5 202t-39 291z" />
<glyph unicode="H" horiz-adv-x="1325" d="M164 39v1444q0 15 10 27t25 12h20q15 0 25 -12t10 -27v-627h819v627q0 16 9.5 27.5t25.5 11.5h18q16 0 25.5 -11.5t9.5 -27.5v-1444q0 -16 -9.5 -27.5t-25.5 -11.5h-18q-16 0 -25.5 11.5t-9.5 27.5v733h-819v-733q0 -15 -10 -27t-25 -12h-20q-15 0 -25 12t-10 27z" />
<glyph unicode="I" horiz-adv-x="458" d="M184 39v1444q0 15 10 27t25 12h21q15 0 24.5 -11.5t9.5 -27.5v-1444q0 -16 -9.5 -27.5t-24.5 -11.5h-21q-15 0 -25 12t-10 27z" />
<glyph unicode="J" horiz-adv-x="458" d="M-90 -350q0 31 41 31h29q126 0 165 37.5t39 158.5v1606q0 15 10 27t25 12h21q15 0 24.5 -11.5t9.5 -27.5v-1606q0 -147 -65 -211.5t-229 -64.5h-29q-41 0 -41 28v21z" />
<glyph unicode="K" horiz-adv-x="1110" d="M164 39v1444q0 15 12 27t27 12h12q15 0 27 -12t12 -27v-656l696 680q26 23 47 23q16 0 27.5 -11t11.5 -24q0 -21 -16 -37l-688 -667l702 -730q15 -16 15 -32q-1 -6 -3 -12q-8 -21 -36 -21q-31 0 -47 16l-709 738v-711q0 -15 -10 -27t-25 -12h-20q-15 0 -25 12t-10 27z " />
<glyph unicode="L" horiz-adv-x="989" d="M164 229v1254q0 15 10 27t25 12h20q15 0 25 -12t10 -27v-1254q0 -89 38 -117t120 -28h467q17 0 28 -9t11 -24v-16q0 -15 -11 -25t-28 -10h-467q-123 0 -185.5 52.5t-62.5 176.5z" />
<glyph unicode="M" horiz-adv-x="1495" d="M164 39v1393q0 50 27.5 75t76.5 25q65 0 94 -64l359 -751q12 -27 27 -27q14 0 26 27l359 751q29 64 94 64q49 0 76.5 -25t27.5 -75v-1393q0 -15 -10 -27t-25 -12h-20q-15 0 -25 12t-10 27v1393q0 14 -14 14q-10 0 -21 -19l-354 -747q-21 -42 -44.5 -58t-59.5 -16t-60 16 t-45 58l-354 747q-11 19 -21 19q-14 0 -14 -14v-1393q0 -15 -10 -27t-25 -12h-20q-15 0 -25 12t-10 27z" />
<glyph unicode="N" horiz-adv-x="1333" d="M164 39v1393q0 45 27.5 72.5t72.5 27.5q40 0 61.5 -16t36.5 -48l689 -1380q7 -14 16 -14q10 0 10 18v1391q0 16 9.5 27.5t23.5 11.5h25q16 0 25 -11.5t9 -27.5v-1391q0 -48 -26 -76t-66 -28q-51 0 -69 14q-23 19 -37 47l-690 1383q-7 14 -17 14t-10 -14v-1393 q0 -15 -10 -27t-25 -12h-20q-15 0 -25 12t-10 27z" />
<glyph unicode="O" horiz-adv-x="1294" d="M123 633v254q0 167 38.5 292.5t109.5 202t165 113.5t211 37t211 -37t165 -113.5t109.5 -202t38.5 -292.5v-254q0 -167 -38.5 -292.5t-109.5 -202t-165 -113.5t-211 -37t-211 37t-165 113.5t-109.5 202t-38.5 292.5zM213 633q0 -123 21.5 -218.5t59.5 -159t93.5 -105 t119 -59t140.5 -17.5t140.5 17.5t119 59t93.5 105t59.5 159t21.5 218.5v254q0 123 -21.5 218.5t-59.5 159t-93.5 105t-119 59t-140.5 17.5t-140.5 -17.5t-119 -59t-93.5 -105t-59.5 -159t-21.5 -218.5v-254z" />
<glyph unicode="P" horiz-adv-x="1105" d="M164 39v1444q0 14 11 26t24 13q180 10 278 10q557 0 557 -416v-35q0 -233 -142 -335.5t-415 -102.5q-109 0 -223 8v-612q0 -15 -10 -27t-25 -12h-20q-15 0 -25 12t-10 27zM254 731q126 -8 223 -8q242 0 354.5 83t112.5 275v35q0 184 -114.5 260t-352.5 76q-135 0 -223 -6 v-715z" />
<glyph unicode="Q" horiz-adv-x="1294" d="M123 633v254q0 167 38.5 292.5t109.5 202t165 113.5t211 37t211 -37t165 -113.5t109.5 -202t38.5 -292.5v-254q0 -313 -129 -471.5t-352 -171.5v-137q0 -61 4.5 -91t26 -50.5t56.5 -25.5t104 -5h43q41 0 41 -33v-15q0 -32 -41 -32h-43q-61 0 -100.5 4.5t-77 19.5t-58 42 t-33 73t-12.5 113v137q-221 14 -349 173t-128 470zM213 633q0 -123 21.5 -218.5t59.5 -159t93.5 -105t119 -59t140.5 -17.5t140.5 17.5t119 59t93.5 105t59.5 159t21.5 218.5v254q0 123 -21.5 218.5t-59.5 159t-93.5 105t-119 59t-140.5 17.5t-140.5 -17.5t-119 -59 t-93.5 -105t-59.5 -159t-21.5 -218.5v-254z" />
<glyph unicode="R" horiz-adv-x="1224" d="M164 39v1446q0 14 11 26t24 13q144 8 319 8q286 0 421.5 -95t135.5 -323v-10q0 -184 -90 -280.5t-276 -127.5l413 -637q9 -14 9 -29q0 -4 -1 -10q-5 -20 -30 -20h-27q-17 0 -31 18l-436 668q-7 -2 -45.5 -1t-42.5 1l-264 2v-649q0 -15 -10 -27t-25 -12h-20q-15 0 -25 12 t-10 27zM254 774q27 0 130.5 -1t133.5 -1q124 0 207.5 15t144 52.5t88 102t27.5 162.5v10q0 185 -113.5 258.5t-353.5 73.5q-183 0 -264 -8v-664z" />
<glyph unicode="S" horiz-adv-x="1085" d="M113 1214q0 91 40 155.5t111 98.5t151 49t177 15q145 0 285 -19q31 -3 43 -11.5t12 -28.5v-11q0 -22 -15.5 -28.5t-48.5 -3.5q-144 16 -278 16q-199 0 -292 -58t-93 -174q0 -53 16 -96t55 -82.5t84 -71.5t121 -79l131 -80q80 -48 131.5 -82.5t99.5 -75.5t73.5 -79.5 t41 -85.5t15.5 -103q0 -391 -475 -391q-173 0 -299 20q-30 5 -43 13.5t-13 29.5v8q0 35 39 35h8q165 -20 308 -20q90 0 158 16t110 42.5t68 66.5t35.5 83t9.5 97q0 45 -12 80.5t-31 63.5t-62 61.5t-83.5 60t-117.5 74.5q-7 4 -10 6l-129 80q-66 41 -106 68.5t-86 67.5 t-70.5 77t-41.5 87.5t-17 108.5z" />
<glyph unicode="T" horiz-adv-x="1169" d="M61 1468v19q0 15 11 25t28 10h969q17 0 28 -10t11 -25v-19q0 -30 -39 -30h-438v-1399q0 -15 -10 -27t-25 -12h-21q-15 0 -24.5 11.5t-9.5 27.5v1399h-441q-39 0 -39 30z" />
<glyph unicode="U" horiz-adv-x="1296" d="M164 541v942q0 15 10 27t25 12h20q15 0 25 -12t10 -27v-942q0 -231 93 -350t302 -119q208 0 300.5 118.5t92.5 350.5v942q0 15 10 27t25 12h21q15 0 25 -12t10 -27v-942q0 -266 -119.5 -409.5t-364.5 -143.5t-365 143.5t-120 409.5z" />
<glyph unicode="V" horiz-adv-x="1290" d="M92 1470q-2 8 -2 15q0 11 6 21q10 16 29 16h22q11 0 20.5 -8.5t12.5 -20.5l418 -1378q12 -41 47 -41t47 41l418 1378q3 12 12.5 20.5t20.5 8.5h22q19 0 29 -16q6 -10 6 -21q0 -7 -2 -15l-420 -1382q-29 -100 -133 -100t-133 100z" />
<glyph unicode="W" horiz-adv-x="1613" d="M92 1475q-1 5 -1 9q0 13 7 24q9 14 27 14h20q31 0 37 -33l248 -1387q5 -30 12 -30q8 0 17 30l256 797q24 80 92 80t92 -80l256 -797q9 -30 16 -30q8 0 13 30l248 1387q6 33 36 33h21q18 0 27 -14q7 -10 7 -24q0 -4 -1 -9l-252 -1391q-17 -96 -99 -96q-42 0 -64 24.5 t-34 67.5l-250 792q-7 25 -16 25t-16 -25l-250 -792q-26 -92 -99 -92q-81 0 -98 96z" />
<glyph unicode="X" horiz-adv-x="1232" d="M84 20q-3 7 -3 13q0 13 9 26l473 719l-450 682q-8 14 -9.5 28t6 24t23.5 10h23q18 0 32 -19l426 -647l428 647q5 6 16 12.5t17 6.5h19q24 0 31 -21t-7 -41l-450 -684l473 -717q9 -13 9 -26q0 -7 -2 -13q-8 -20 -32 -20h-16q-7 0 -17.5 6t-15.5 12l-451 682l-450 -682 q-4 -6 -15.5 -12t-17.5 -6h-18q-23 0 -31 20z" />
<glyph unicode="Y" horiz-adv-x="1128" d="M95 1508q8 14 32 14h20q9 0 18.5 -8t14.5 -17l322 -717q21 -45 32 -58t29 -13q19 0 30.5 13.5t31.5 57.5l321 717q5 9 14.5 17t18.5 8h20q24 0 32 -14q3 -6 3 -14q0 -12 -6 -28l-323 -714q-46 -99 -97 -119v-594q0 -15 -10 -27t-25 -12h-20q-15 0 -25 12t-10 27v594 q-50 19 -96 119l-324 714q-6 16 -6 28q0 8 3 14z" />
<glyph unicode="Z" horiz-adv-x="1218" d="M139 88q0 38 23 74l776 1249q4 6 4 14q0 13 -16 13h-742q-17 0 -30 8t-13 22v21q0 14 13.5 23.5t29.5 9.5h742q58 0 84 -17q34 -19 34 -65q0 -32 -22 -70l-782 -1264q-4 -8 -4 -14q0 -8 14 -8h803q18 0 30.5 -8.5t12.5 -22.5v-20q0 -15 -12.5 -24t-30.5 -9h-803 q-111 0 -111 88z" />
<glyph unicode="[" horiz-adv-x="610" d="M184 -360v1843q0 15 10 27t25 12h311q17 0 28 -10t11 -25v-17q0 -15 -10.5 -23.5t-28.5 -8.5h-256v-1753h256q17 0 28 -10t11 -25v-17q0 -15 -10.5 -23.5t-28.5 -8.5h-311q-15 0 -25 12t-10 27z" />
<glyph unicode="\" horiz-adv-x="665" d="M43 1507q0 25 23 25h43q9 0 16 -7t9.5 -13t6.5 -19l482 -1466q2 -4 2 -15q0 -24 -21 -24h-45q-20 0 -33 39l-481 1466q-2 4 -2 14z" />
<glyph unicode="]" horiz-adv-x="610" d="M41 -350q0 15 11 25t28 10h256v1753h-256q-18 0 -28.5 8.5t-10.5 23.5v17q0 15 11 25t28 10h311q15 0 25 -12t10 -27v-1843q0 -15 -10 -27t-25 -12h-311q-18 0 -28.5 8.5t-10.5 23.5v17z" />
<glyph unicode="^" d="M242 1165q0 10 10 23l240 307q16 22 26.5 29.5t28.5 7.5h94q18 0 28.5 -7.5t26.5 -29.5l240 -307q10 -13 10 -23q0 -18 -22 -18h-37q-7 0 -12.5 1.5t-10.5 5.5t-8 7.5t-10 12.5t-12 14l-240 285l-240 -285q-4 -5 -10 -12t-8.5 -10.5t-7 -8t-8 -6t-8.5 -3t-11 -1.5h-37 q-22 0 -22 18z" />
<glyph unicode="_" horiz-adv-x="952" d="M-61 -147q0 32 41 32h993q41 0 41 -32v-21q0 -33 -41 -33h-993q-41 0 -41 33v21z" />
<glyph unicode="`" horiz-adv-x="675" d="M98 1579q0 14 23 14h53q24 0 47 -30l205 -263q8 -8 8 -20q0 -14 -18 -14h-45q-10 0 -17.5 5t-11.5 9t-16 20l-220 263q-8 8 -8 16z" />
<glyph unicode="a" horiz-adv-x="999" d="M102 317v27q0 108 48.5 176t160.5 103.5t297 35.5h158v74q0 163 -55.5 230t-202.5 67q-118 0 -291 -18q-6 -1 -11 -1q-36 0 -36 31v13q0 19 11 26.5t36 10.5q155 18 291 18q101 0 170.5 -27t107.5 -79.5t54 -117.5t16 -153v-692q0 -17 -12 -29t-29 -12h-10q-17 0 -29 12 t-12 29v51q-189 -104 -348 -104q-49 0 -92 9.5t-84.5 33t-71.5 60t-48 94.5t-18 132zM193 317q0 -249 223 -249q86 0 166.5 24t183.5 80v408h-158q-231 0 -323 -52.5t-92 -183.5v-27z" />
<glyph unicode="b" horiz-adv-x="1032" d="M143 66v1417q0 15 10 27t25 12h21q15 0 24.5 -11.5t9.5 -27.5v-404q141 31 285 31q200 0 301 -123t101 -366v-136q0 -232 -99 -364.5t-303 -132.5q-149 0 -344 39q-19 4 -25 12t-6 27zM233 94q160 -26 285 -26q166 0 238.5 105t72.5 312v136q0 208 -73 308.5t-238 100.5 q-158 0 -285 -26v-910z" />
<glyph unicode="c" horiz-adv-x="894" d="M113 483v138q0 105 22.5 191.5t69.5 154.5t126.5 105.5t186.5 37.5q93 0 248 -18q23 -3 31 -11t8 -26v-15q0 -35 -43 -28q-144 18 -244 18q-167 0 -241 -106t-74 -303v-138q0 -415 315 -415q100 0 244 18q19 3 31 -4.5t12 -24.5v-14q0 -18 -8 -26t-31 -11 q-155 -18 -248 -18q-106 0 -186 39t-127 108.5t-69.5 156.5t-22.5 191z" />
<glyph unicode="d" horiz-adv-x="1032" d="M113 485v136q0 489 401 489q144 0 285 -31v404q0 15 10 27t25 12h20q15 0 25 -12t10 -27v-1417q0 -19 -6 -27t-25 -12q-195 -39 -344 -39q-204 0 -302.5 132.5t-98.5 364.5zM203 485q0 -207 72.5 -312t238.5 -105q125 0 285 26v910q-127 26 -285 26q-165 0 -238 -100.5 t-73 -308.5v-136z" />
<glyph unicode="e" horiz-adv-x="1046" d="M113 485v136q0 219 108 354t305 135q205 0 306.5 -130t101.5 -357v-56q0 -17 -11.5 -28t-27.5 -11h-692v-43q0 -100 19.5 -175t51.5 -120.5t81 -73.5t100.5 -38t117.5 -10q134 0 304 34q43 9 43 -26v-15q0 -17 -8 -25.5t-31 -12.5q-171 -35 -308 -35q-80 0 -146 14 t-125.5 49.5t-100 91t-64.5 142.5t-24 200zM203 610h641v13q0 201 -75 304t-243 103q-164 0 -243.5 -109t-79.5 -300v-11z" />
<glyph unicode="f" horiz-adv-x="772" d="M82 1049v18q0 15 11 24t28 9h203v190q0 128 59 185t172 57q67 0 107 -6q38 -5 38 -33v-14q0 -27 -43 -27h-102q-74 0 -107.5 -36t-33.5 -126v-190h243q17 0 28 -9t11 -24v-18q0 -15 -11 -24t-28 -9h-243v-977q0 -15 -11 -27t-26 -12h-15q-17 0 -27.5 11.5t-10.5 27.5v977 h-203q-17 0 -28 9t-11 24z" />
<glyph unicode="g" horiz-adv-x="1093" d="M113 -70q0 99 47 179.5t106 115.5l-14 4q-55 17 -82 53.5t-27 84.5q0 39 22 75.5t64 55.5q-106 86 -106 243v17q0 52 10 97t38.5 91.5t73.5 79t122 53.5t178 21h418q16 0 27 -9t11 -24v-23q0 -32 -38 -32h-107q113 -91 113 -254v-17q0 -333 -424 -333q-135 0 -250 47 q-70 -29 -70 -88q0 -49 60 -64l368 -96q71 -18 116.5 -33.5t89.5 -38.5t68.5 -50.5t39 -67t14.5 -91.5v-14q0 -318 -434 -318q-225 0 -329.5 85t-104.5 233v18zM201 -70v-18q0 -118 79.5 -180t266.5 -62q100 0 168 16t106 48.5t54 75t16 102.5v14q0 85 -51 124t-207 79 l-283 74q-73 -48 -111 -112t-38 -161zM213 741q0 -28 5.5 -54.5t18 -57t37.5 -55t60 -45.5t89 -32.5t122 -11.5q98 0 166 19.5t104 56t51 80t15 100.5v17q0 59 -15.5 104t-52 82.5t-104 57.5t-164.5 20q-82 0 -143 -15.5t-96.5 -39.5t-57 -60t-28.5 -71t-7 -78v-17z" />
<glyph unicode="h" horiz-adv-x="1034" d="M143 27v1456q0 15 10 27t25 12h21q15 0 24.5 -11.5t9.5 -27.5v-410q148 37 277 37q104 0 181 -29t122 -82.5t66.5 -123t21.5 -158.5v-690q0 -16 -9.5 -27.5t-25.5 -11.5h-20q-14 0 -23.5 11.5t-9.5 27.5v690q0 156 -71.5 234.5t-231.5 78.5q-152 0 -277 -37v-966 q0 -16 -9.5 -27.5t-24.5 -11.5h-21q-15 0 -25 12t-10 27z" />
<glyph unicode="i" horiz-adv-x="417" d="M164 27v1034q0 15 12 27t27 12h12q15 0 27 -12t12 -27v-1034q0 -15 -12 -27t-27 -12h-12q-15 0 -27 12t-12 27zM164 1341v152q0 15 12 27t27 12h12q15 0 27 -12t12 -27v-152q0 -17 -11.5 -27.5t-27.5 -10.5h-12q-16 0 -27.5 10.5t-11.5 27.5z" />
<glyph unicode="j" horiz-adv-x="417" d="M-78 -346q0 24 43 24h78q70 0 95.5 28.5t25.5 117.5v1237q0 16 9.5 27.5t23.5 11.5h22q16 0 25.5 -11.5t9.5 -27.5v-1237q0 -126 -51 -174.5t-160 -48.5q-39 0 -86 6q-21 3 -28 9t-7 19v19zM164 1341v152q0 15 12 27t27 12h12q15 0 27 -12t12 -27v-152q0 -17 -11.5 -27.5 t-27.5 -10.5h-12q-16 0 -27.5 10.5t-11.5 27.5z" />
<glyph unicode="k" horiz-adv-x="909" d="M143 27v1456q0 15 12 27t27 12h13q15 0 26.5 -12t11.5 -27v-862l504 471q21 18 49 18q29 0 39 -24q3 -8 3 -15q0 -16 -15 -29l-502 -458l504 -533q14 -15 14 -30q0 -5 -2 -11q-7 -22 -36 -22q-38 0 -62 24l-496 531v-516q0 -15 -11.5 -27t-26.5 -12h-13q-15 0 -27 12 t-12 27z" />
<glyph unicode="l" horiz-adv-x="417" d="M164 27v1456q0 15 10 27t25 12h20q15 0 25 -12t10 -27v-1456q0 -15 -10 -27t-25 -12h-20q-15 0 -25 12t-10 27z" />
<glyph unicode="m" horiz-adv-x="1527" d="M143 39v1020q0 18 10 29.5t27 11.5h17q17 0 26.5 -11.5t9.5 -29.5v-37q180 88 312 88q124 0 194 -84q175 84 330 84q67 0 122.5 -19t99.5 -58t68.5 -105.5t24.5 -155.5v-733q0 -16 -9 -27.5t-25 -11.5h-21q-16 0 -25.5 11.5t-9.5 27.5v733q0 140 -60 199t-179 59 q-136 0 -277 -69q31 -81 31 -181v-741q0 -39 -31 -39h-30q-29 0 -29 39v741q0 250 -193 250q-113 0 -293 -86v-905q0 -16 -8 -27.5t-22 -11.5h-29q-14 0 -22.5 11.5t-8.5 27.5z" />
<glyph unicode="n" horiz-adv-x="1067" d="M143 39v1020q0 18 10 29.5t27 11.5h17q17 0 26.5 -11.5t9.5 -29.5v-33q175 84 330 84q77 0 140 -21.5t114 -66.5t79 -122t28 -181v-680q0 -16 -11 -27.5t-28 -11.5h-15q-15 0 -25.5 12t-10.5 27v680q0 164 -75.5 237.5t-201.5 73.5q-149 0 -324 -84v-907q0 -15 -11.5 -27 t-26.5 -12h-13q-15 0 -27 12t-12 27z" />
<glyph unicode="o" horiz-adv-x="1069" d="M113 477v144q0 235 107 362t315 127t314.5 -127t106.5 -362v-144q0 -235 -106.5 -362t-314.5 -127t-315 127t-107 362zM203 477q0 -409 332 -409q331 0 331 409v144q0 409 -331 409q-332 0 -332 -409v-144z" />
<glyph unicode="p" horiz-adv-x="1032" d="M143 -360v1392q0 19 6 27t25 12q195 39 344 39q204 0 303 -133t99 -365v-135q0 -243 -101 -366t-301 -123q-148 0 -285 30v-378q0 -16 -9.5 -27.5t-24.5 -11.5h-21q-15 0 -25 12t-10 27zM233 94q127 -26 285 -26q165 0 238 100.5t73 308.5v135q0 207 -72.5 312.5 t-238.5 105.5q-125 0 -285 -26v-910z" />
<glyph unicode="q" horiz-adv-x="1032" d="M113 477v135q0 232 98.5 365t302.5 133q149 0 344 -39q19 -4 25 -12t6 -27v-1392q0 -15 -10 -27t-25 -12h-20q-15 0 -25 12t-10 27v378q-137 -30 -285 -30q-401 0 -401 489zM203 477q0 -208 73 -308.5t238 -100.5q158 0 285 26v910q-160 26 -285 26q-166 0 -238.5 -105.5 t-72.5 -312.5v-135z" />
<glyph unicode="r" horiz-adv-x="632" d="M143 39v1020q0 18 10 29.5t27 11.5h17q17 0 26.5 -11.5t9.5 -29.5v-43q78 51 144 72.5t141 21.5q55 0 55 -31v-16q0 -33 -55 -33q-135 0 -285 -94v-897q0 -15 -11.5 -27t-26.5 -12h-13q-15 0 -27 12t-12 27z" />
<glyph unicode="s" horiz-adv-x="901" d="M102 49v23q0 35 45 28q196 -32 302 -32q59 0 103 9t81 30.5t56.5 63t19.5 101.5q0 63 -44 108t-173 116l-132 71q-65 35 -105 62t-75 62t-51 75.5t-16 91.5q0 55 17 99t46 72t70 46.5t85 26.5t95 8q136 0 293 -18q24 -3 33.5 -9.5t9.5 -25.5v-17q0 -24 -9 -29.5t-34 -2.5 q-194 22 -285 22q-112 0 -171.5 -36t-59.5 -136q0 -63 46.5 -108.5t151.5 -104.5l138 -76q141 -78 200.5 -140t59.5 -157q0 -79 -28 -136t-79 -88.5t-112 -45.5t-136 -14q-149 0 -297 28q-25 5 -35 11t-10 22z" />
<glyph unicode="t" horiz-adv-x="778" d="M82 1049v20q0 31 39 31h203v211q0 16 9 27.5t25 11.5h23q14 0 23.5 -11.5t9.5 -27.5v-211h243q39 0 39 -31v-20q0 -15 -11 -24t-28 -9h-243v-807q0 -86 33 -113.5t108 -27.5h98q43 0 43 -29v-12q0 -14 -7 -22t-27 -11q-46 -6 -107 -6q-117 0 -174 48t-57 173v807h-203 q-17 0 -28 9t-11 24z" />
<glyph unicode="u" horiz-adv-x="1067" d="M143 381v680q0 16 11 27.5t28 11.5h15q15 0 25.5 -12t10.5 -27v-680q0 -164 75.5 -237.5t201.5 -73.5q142 0 324 84v907q0 15 11.5 27t26.5 12h13q15 0 27 -12t12 -27v-1020q0 -18 -10 -29.5t-27 -11.5h-17q-17 0 -26.5 11.5t-9.5 29.5v33q-175 -84 -330 -84 q-160 0 -260.5 95.5t-100.5 295.5z" />
<glyph unicode="v" horiz-adv-x="983" d="M82 1049q-2 9 -2 17q0 12 4 20q8 14 29 14h20q27 0 37 -37l262 -924q12 -42 27 -57.5t35 -15.5q19 0 31.5 15t25.5 58l262 924q10 37 37 37h24q20 0 26 -14q3 -7 4 -17q0 -9 -3 -20l-268 -932q-22 -76 -55.5 -102.5t-83.5 -26.5t-86.5 27t-57.5 102z" />
<glyph unicode="w" horiz-adv-x="1540" d="M102 1051q-2 10 -2 17q0 32 39 32h13q17 0 22.5 -7t9.5 -22l222 -952q9 -35 13.5 -43t14.5 -8q8 0 13 9t14 40l221 790q20 74 88 74t88 -74l221 -790q14 -49 27 -49q5 0 8.5 1.5t9 13.5t11.5 36l221 952q8 29 33 29h12q27 0 35 -12q4 -7 5 -17q0 -9 -3 -20l-226 -953 q-14 -60 -37 -85t-69 -25t-67 26.5t-38 89.5l-217 779q-7 18 -14 18t-14 -18l-217 -779q-17 -63 -38 -89.5t-67 -26.5t-69 25t-37 85z" />
<glyph unicode="x" horiz-adv-x="1009" d="M88 25q0 15 10 28l361 510l-348 488q-9 13 -9 22q0 11 9.5 19t27.5 8h13q27 0 38 -17l324 -450l313 446q14 21 39 21h19q30 0 30 -25q0 -14 -14 -35l-338 -481l363 -508q6 -9 6 -22q0 -12 -7.5 -20.5t-21.5 -8.5h-16q-28 0 -39 16l-340 476l-334 -476q-12 -16 -22 -16 h-35q-29 0 -29 25z" />
<glyph unicode="y" horiz-adv-x="995" d="M78 -336q0 19 9.5 25.5t33.5 3.5q93 -12 133 -12q110 0 158.5 44.5t85.5 178.5l26 96h-28q-50 0 -77 22.5t-48 92.5l-277 936q-6 22 1.5 35.5t31.5 13.5h18q25 0 33 -29l277 -942q8 -29 19.5 -37t27.5 -8h47l280 989q8 27 37 27h19q32 0 32 -28q0 -10 -4 -23l-335 -1164 q-47 -164 -118 -224t-214 -60q-53 0 -127 12q-21 3 -31 9t-10 20v22z" />
<glyph unicode="z" horiz-adv-x="913" d="M82 84q0 45 37 92l600 801q8 11 8 20q0 19 -29 19h-538q-18 0 -29.5 8t-11.5 23v20q0 15 11.5 24t29.5 9h536q119 0 119 -88q0 -48 -33 -92l-594 -797q-10 -15 -10 -25q0 -14 19 -14h594q40 0 40 -31v-20q0 -15 -11.5 -24t-28.5 -9h-586q-123 0 -123 84z" />
<glyph unicode="{" horiz-adv-x="614" d="M61 524v74q79 57 103 112.5t24 168.5v417q0 128 55.5 177t196.5 49h95q17 0 27.5 -10t10.5 -25v-17q0 -32 -38 -32h-95q-102 0 -131.5 -26t-29.5 -116v-417q0 -114 -28.5 -186.5t-103.5 -133.5q73 -59 102.5 -131.5t29.5 -183.5v-418q0 -89 29 -115t132 -26h95 q17 0 27.5 -9t10.5 -24v-17q0 -15 -10.5 -24.5t-27.5 -9.5h-95q-143 0 -197.5 48t-54.5 177v418q0 113 -24 168t-103 112z" />
<glyph unicode="|" horiz-adv-x="458" d="M184 -360v1843q0 15 10 27t25 12h21q15 0 24.5 -11.5t9.5 -27.5v-1843q0 -16 -9.5 -27.5t-24.5 -11.5h-21q-15 0 -25 12t-10 27z" />
<glyph unicode="}" horiz-adv-x="614" d="M41 -348q0 15 11 24t28 9h94q103 0 132.5 26t29.5 115v418q0 112 29 184t102 131q-75 61 -103 133.5t-28 186.5v417q0 89 -30 115.5t-132 26.5h-94q-18 0 -28.5 8.5t-10.5 23.5v17q0 15 11 25t28 10h94q141 0 196.5 -49t55.5 -177v-417q0 -113 24 -168.5t103 -112.5v-74 q-79 -57 -103 -112t-24 -168v-418q0 -129 -54.5 -177t-197.5 -48h-94q-17 0 -28 9.5t-11 24.5v17z" />
<glyph unicode="~" d="M213 776v62q0 107 49 162t133 55q91 0 164 -70l117 -113q66 -63 112 -63q56 0 81.5 29t25.5 102v64q0 21 4.5 28.5t18.5 7.5h30q15 0 21 -8t6 -28v-64q0 -213 -184 -213q-89 0 -158 66l-117 112q-26 24 -40 36t-37 24t-44 12q-46 0 -74 -34t-28 -105v-62 q0 -22 -4.5 -30.5t-18.5 -8.5h-30q-27 0 -27 39z" />
<glyph unicode="&#xa1;" horiz-adv-x="417" d="M164 -385v1090q0 15 12 26.5t27 11.5h12q15 0 27 -11.5t12 -26.5v-1090q0 -15 -12 -27t-27 -12h-12q-15 0 -27 12t-12 27zM164 920v151q0 17 11.5 28t27.5 11h12q16 0 27.5 -11t11.5 -28v-151q0 -15 -12 -27t-27 -12h-12q-15 0 -27 12t-12 27z" />
<glyph unicode="&#xa2;" d="M193 483v138q0 100 20.5 183t62.5 149.5t113 107t166 47.5v209q0 16 9.5 27.5t23.5 11.5h20q14 0 23.5 -11.5t9.5 -27.5v-207q67 -2 205 -18q23 -3 31 -11t8 -26v-15q0 -28 -33 -28h-10q-144 18 -244 18q-167 0 -241 -106t-74 -303v-138q0 -415 315 -415q100 0 244 18h10 q33 0 33 -29v-14q0 -18 -8 -26t-31 -11q-138 -16 -205 -18v-207q0 -16 -9.5 -27.5t-23.5 -11.5h-20q-14 0 -23.5 11.5t-9.5 27.5v209q-95 7 -166 49t-113 110t-62.5 152t-20.5 182z" />
<glyph unicode="&#xa3;" d="M145 791v18q0 15 12 25t29 10h105v151q0 130 20 225t66 167t126 108.5t195 36.5q143 0 303 -19q23 -3 31 -10t8 -22v-17q0 -16 -6 -23t-24 -7h-13q-144 16 -299 16q-96 0 -159.5 -31t-96.5 -94.5t-45 -140.5t-12 -189v-151h502q17 0 27 -10t10 -25v-18q0 -15 -12 -25 t-29 -10h-498v-410q0 -147 -66 -262h685q40 0 40 -29v-22q0 -33 -40 -33h-762q-21 0 -31 12.5t-10 28.5q0 13 6 22q44 75 64 136t20 147v410h-109q-17 0 -27 10t-10 25z" />
<glyph unicode="&#xa4;" d="M113 330q0 16 14 30l162 162q-86 109 -86 244q0 133 84 240l-160 159q-14 14 -14 31q0 15 10 25l14 14q8 8 21 8q18 0 32 -14l160 -160q107 84 240 84q135 0 244 -86l163 164q14 14 31 14q13 0 23 -10l14 -14q10 -10 10 -23q0 -17 -14 -31l-164 -163q82 -104 82 -238 q0 -133 -84 -240l166 -166q14 -14 14 -30q0 -15 -10 -25l-14 -14q-10 -10 -23 -10q-17 0 -31 14l-166 168q-107 -84 -239 -84q-134 0 -238 82l-164 -164q-14 -14 -30 -14q-13 0 -23 10l-14 14q-10 10 -10 23zM289 766q0 -126 88.5 -214.5t214.5 -88.5t214.5 88.5t88.5 214.5 q0 125 -89 213t-214 88q-126 0 -214.5 -87.5t-88.5 -213.5z" />
<glyph unicode="&#xa5;" d="M92 520v19q0 15 11.5 23.5t29.5 8.5h416v62l-125 248h-295q-37 0 -37 32v19q0 15 11.5 24t29.5 9h248l-252 501q-12 28 -3.5 42t32.5 14h24q20 0 33 -25l381 -758l379 758q13 25 33 25h22q24 0 32.5 -14t-3.5 -42l-252 -501h252q17 0 27 -9t10 -24v-19q0 -15 -11.5 -23.5 t-29.5 -8.5h-291l-125 -248v-62h420q37 0 37 -32v-19q0 -15 -11.5 -24t-29.5 -9h-416v-448q0 -15 -10 -27t-25 -12h-20q-15 0 -25 12t-10 27v448h-420q-17 0 -27 9t-10 24z" />
<glyph unicode="&#xa6;" horiz-adv-x="458" d="M184 319q0 15 10 27t25 12h21q15 0 24.5 -11.5t9.5 -27.5v-712q0 -16 -9.5 -27.5t-24.5 -11.5h-21q-15 0 -25 12t-10 27v712zM184 739v713q0 15 10 27t25 12h21q15 0 24.5 -11.5t9.5 -27.5v-713q0 -16 -9.5 -27.5t-24.5 -11.5h-21q-15 0 -25 12t-10 27z" />
<glyph unicode="&#xa7;" horiz-adv-x="1067" d="M106 770q0 141 72 219q-40 44 -56 94t-16 117q0 172 111.5 252t360.5 80q197 0 311 -14q20 -2 27.5 -10.5t7.5 -32.5v-7q0 -23 -9.5 -31.5t-33.5 -6.5q-12 1 -70.5 5t-122.5 7.5t-110 3.5q-201 0 -291 -59t-90 -187q0 -88 50.5 -147.5t198.5 -149.5l201 -123 q98 -60 159.5 -110t95.5 -99t46.5 -94.5t12.5 -105.5q0 -140 -60 -228q60 -80 60 -202q0 -63 -11 -114.5t-43 -103t-83.5 -86.5t-137.5 -57t-201 -22q-182 0 -313 16q-23 3 -30 12.5t-7 26.5v12q0 35 39 35h4q212 -16 307 -16q113 0 190 20.5t119 61.5t59 92t17 123 q0 102 -54 166.5t-222 166.5l-205 125q-168 102 -225.5 178t-57.5 193zM197 770q0 -88 50.5 -147.5t198.5 -149.5l201 -123q131 -79 191 -137q32 63 32 158q0 102 -54.5 167t-221.5 167l-205 124q-80 49 -141 97q-51 -57 -51 -156z" />
<glyph unicode="&#xa8;" horiz-adv-x="675" d="M139 1354v151q0 15 12 27t27 12h12q15 0 27 -12t12 -27v-151q0 -17 -11.5 -28t-27.5 -11h-12q-16 0 -27.5 11t-11.5 28zM446 1354v151q0 15 12 27t27 12h13q15 0 27 -12t12 -27v-151q0 -17 -11.5 -28t-27.5 -11h-13q-16 0 -27.5 11t-11.5 28z" />
<glyph unicode="&#xa9;" horiz-adv-x="1495" d="M92 766q0 133 51.5 255t139 210.5t208.5 141t254 52.5q178 0 329.5 -88.5t240 -240.5t88.5 -330t-88.5 -328.5t-240 -237.5t-329.5 -87q-133 0 -254 51.5t-208.5 139t-139 208.5t-51.5 254zM168 766q0 -157 77 -289.5t210 -209.5t290 -77t290 77t210.5 209.5t77.5 289.5 t-77.5 290.5t-210.5 211.5t-290 78t-290 -78t-210 -211.5t-77 -290.5zM428 698v148q0 101 24 174.5t66.5 114.5t93 60t109.5 19q106 0 199 -12q12 -2 22 -10t10 -21v-16q0 -25 -28 -25h-9q-113 11 -194 11q-97 0 -156 -70t-59 -225v-148q0 -155 59 -225t156 -70q81 0 194 11 h5q32 0 32 -29v-10q0 -14 -10.5 -22.5t-21.5 -10.5q-93 -12 -199 -12q-59 0 -109.5 19t-93 60t-66.5 114.5t-24 174.5z" />
<glyph unicode="&#xaa;" horiz-adv-x="548" d="M57 1090v14q0 92 63 135t208 43h75v29q0 84 -26.5 116.5t-97.5 32.5q-70 0 -152 -10h-4q-31 0 -31 27v6q0 24 33 28q83 11 154 11q107 0 149.5 -55.5t42.5 -155.5v-350q0 -28 -22 -33q-84 -23 -166 -23q-123 0 -174.5 44.5t-51.5 140.5zM123 1090q0 -66 32 -94.5 t128 -28.5q45 0 120 12v240h-73q-119 0 -163 -25.5t-44 -89.5v-14z" />
<glyph unicode="&#xab;" horiz-adv-x="1095" d="M45 551q0 30 29 59l364 334q18 14 33 14q13 0 21 -8l14 -14q10 -10 10 -23q0 -17 -16 -30l-363 -332l363 -332q16 -13 16 -31q0 -12 -10 -22l-14 -14q-9 -9 -21 -9q-14 0 -33 15l-364 334q-29 26 -29 59zM516 551q0 30 29 59l364 334q17 14 33 14q13 0 21 -8l14 -14 q10 -10 10 -23q0 -17 -16 -30l-363 -332l363 -332q16 -13 16 -31q0 -12 -10 -22l-14 -14q-9 -9 -21 -9q-14 0 -33 15l-364 334q-29 26 -29 59z" />
<glyph unicode="&#xac;" d="M180 995v21q0 33 41 33h756q14 0 23.5 -11.5t9.5 -25.5v-418q0 -41 -33 -41h-21q-32 0 -32 41v369h-703q-41 0 -41 32z" />
<glyph unicode="&#xad;" horiz-adv-x="704" d="M106 559v16q0 15 11 26t28 11h414q17 0 28 -11t11 -26v-16q0 -15 -11 -24t-28 -9h-414q-17 0 -28 9t-11 24z" />
<glyph unicode="&#xae;" horiz-adv-x="1261" d="M92 991q0 146 72.5 270t196.5 196.5t270 72.5t270 -72.5t196 -196.5t72 -270t-72 -269.5t-196 -195t-270 -71.5t-270 71.5t-196.5 195t-72.5 269.5zM166 991q0 -193 136 -329t329 -136q194 0 330.5 136t136.5 329t-137 330t-330 137t-329 -136.5t-136 -330.5zM422 682 v631q0 11 8.5 21.5t20.5 11.5q62 4 141 4q129 0 193.5 -45.5t64.5 -153.5v-4q0 -81 -37 -126t-113 -63l168 -260q6 -9 6 -22q0 -27 -28 -27h-10q-17 0 -27 15l-186 284q-6 0 -15.5 1t-15.5 1h-100v-268q0 -11 -9 -22t-22 -11h-8q-13 0 -22 11t-9 22zM492 1018q15 0 52 -1 t48 -1q104 0 146 28.5t42 102.5v4q0 72 -44 101.5t-144 29.5q-71 0 -100 -2v-262z" />
<glyph unicode="&#xaf;" horiz-adv-x="675" d="M25 1442v22q0 31 41 31h544q41 0 41 -31v-22q0 -33 -41 -33h-544q-41 0 -41 33z" />
<glyph unicode="&#xb0;" horiz-adv-x="677" d="M61 1255q0 114 82.5 195.5t196.5 81.5t195 -81.5t81 -195.5t-81 -195t-195 -81t-196.5 81t-82.5 195zM141 1255q0 -82 58.5 -140t140.5 -58t140.5 58t58.5 140t-58.5 141.5t-140.5 59.5q-83 0 -141 -59.5t-58 -141.5z" />
<glyph unicode="&#xb1;" d="M139 33v20q0 33 41 33h830q41 0 41 -33v-20q0 -33 -41 -33h-830q-41 0 -41 33zM139 791v20q0 33 41 33h371v373q0 40 33 40h20q33 0 33 -40v-373h373q41 0 41 -33v-20q0 -33 -41 -33h-373v-371q0 -41 -33 -41h-20q-33 0 -33 41v371h-371q-41 0 -41 33z" />
<glyph unicode="&#xb2;" horiz-adv-x="653" d="M80 719v67q0 93 35.5 161.5t142.5 142.5l113 77q70 47 94 81.5t24 94.5q0 119 -188 119q-69 0 -164 -10q-12 -1 -21 -0.5t-14.5 6.5t-5.5 19v6q0 20 7.5 28t31.5 11q79 12 166 12q272 0 272 -191q0 -68 -32.5 -124.5t-122.5 -116.5l-113 -76q-91 -61 -117 -112t-26 -128 v-28h364q15 0 26 -9t11 -24v-12q0 -33 -37 -33h-409q-16 0 -26.5 12t-10.5 27z" />
<glyph unicode="&#xb3;" horiz-adv-x="653" d="M84 725v8q0 18 10 22.5t29 2.5q119 -13 158 -13q105 0 154.5 41t49.5 136v22q0 143 -139 143h-207q-37 0 -37 35v8q0 35 37 35h207q43 0 72.5 14t43 37.5t18.5 44.5t5 44v14q0 82 -48 112.5t-156 30.5q-48 0 -158 -12q-10 -1 -19 -0.5t-14.5 6.5t-5.5 19v8q0 11 1.5 17 t9 12t22.5 8q79 14 164 14q145 0 216.5 -46.5t71.5 -168.5v-14q0 -123 -96 -183q96 -53 96 -178v-22q0 -133 -73 -190.5t-215 -57.5q-85 0 -164 14q-15 2 -22.5 8t-9 12t-1.5 17z" />
<glyph unicode="&#xb4;" horiz-adv-x="675" d="M242 1280q0 12 8 20l205 263q23 30 47 30h53q23 0 23 -14q0 -7 -9 -16l-219 -263q-1 -2 -4 -5q-19 -25 -31 -28q-5 -1 -10 -1h-45q-18 0 -18 14z" />
<glyph unicode="&#xb5;" horiz-adv-x="1067" d="M143 -360v1421q0 16 11 27.5t28 11.5h15q15 0 25.5 -12t10.5 -27v-682q0 -311 314 -311q158 0 287 38v955q0 15 11.5 27t26.5 12h13q15 0 27 -12t12 -27v-983q0 -11 -8.5 -22.5t-18.5 -14.5q-161 -53 -350 -53q-209 0 -314 118v-466q0 -16 -9.5 -27.5t-24.5 -11.5h-21 q-15 0 -25 12t-10 27z" />
<glyph unicode="&#xb6;" horiz-adv-x="1226" d="M92 1020v45q0 217 128.5 337t344.5 120h486q32 0 32 -39v-1843q0 -16 -9.5 -27.5t-24.5 -11.5h-21q-15 0 -25 12t-10 27v1798h-114v-1798q0 -15 -10 -27t-25 -12h-21q-15 0 -25 12t-10 27v923h-223q-216 0 -344.5 120t-128.5 337z" />
<glyph unicode="&#xb7;" horiz-adv-x="344" d="M127 737v152q0 15 12 27t27 12h12q15 0 27 -12t12 -27v-152q0 -17 -11.5 -28t-27.5 -11h-12q-16 0 -27.5 11t-11.5 28z" />
<glyph unicode="&#xb8;" horiz-adv-x="675" d="M96 -385q0 12 8 20l172 222q23 30 48 30h53q22 0 22 -14q0 -8 -8 -16l-186 -222q-22 -28 -31 -32q-6 -2 -14 -2h-45q-19 0 -19 14z" />
<glyph unicode="&#xb9;" horiz-adv-x="430" d="M35 1470q0 20 9.5 27.5t27.5 11.5l155 23q27 4 35 -6.5t8 -32.5v-776q0 -37 -32 -37h-17q-33 0 -33 37v731l-112 -16q-23 -3 -32 6.5t-9 31.5z" />
<glyph unicode="&#xba;" horiz-adv-x="587" d="M61 1176v75q0 128 59.5 199.5t174.5 71.5t173 -71t58 -200v-75q0 -129 -58 -200t-173 -71t-174.5 71.5t-59.5 199.5zM129 1176q0 -209 166 -209q164 0 164 209v75q0 209 -164 209q-166 0 -166 -209v-75z" />
<glyph unicode="&#xbb;" horiz-adv-x="1095" d="M109 188q0 18 16 31l362 332l-362 332q-16 13 -16 30q0 13 10 23l14 14q8 8 21 8q14 0 32 -14l365 -334q29 -29 29 -59q0 -33 -29 -59l-365 -334q-19 -15 -32 -15q-12 0 -21 9l-14 14q-10 10 -10 22zM580 188q0 18 16 31l362 332l-362 332q-16 13 -16 30q0 13 10 23 l14 14q8 8 21 8q15 0 32 -14l365 -334q29 -29 29 -59q0 -33 -29 -59l-365 -334q-19 -15 -32 -15q-12 0 -21 9l-14 14q-10 10 -10 22z" />
<glyph unicode="&#xbc;" horiz-adv-x="1294" d="M61 1470q0 20 9.5 27.5t27.5 11.5l156 23q27 4 35 -6.5t8 -32.5v-776q0 -37 -33 -37h-16q-33 0 -33 37v731l-113 -16q-23 -3 -32 6.5t-9 31.5zM90 12q0 12 10 27l844 1444q13 23 21 31t22 8h57q17 0 17 -11q0 -10 -12 -28l-844 -1444q-13 -23 -21 -31t-22 -8h-56 q-16 0 -16 12zM645 313q0 27 23 62l301 440q26 39 73 39q60 0 60 -68v-471h94q15 0 26 -8t11 -24v-9q0 -16 -11 -25t-26 -9h-94v-203q0 -37 -33 -37h-16q-33 0 -33 37v203h-289q-39 0 -62.5 20t-23.5 53zM735 330q-9 -15 8 -15h277v424q0 15 -10 2z" />
<glyph unicode="&#xbd;" horiz-adv-x="1357" d="M61 1470q0 20 9.5 27.5t27.5 11.5l156 23q27 4 35 -6.5t8 -32.5v-776q0 -37 -33 -37h-16q-33 0 -33 37v731l-113 -16q-23 -3 -32 6.5t-9 31.5zM90 12q0 12 10 27l844 1444q13 23 21 31t22 8h57q17 0 17 -11q0 -10 -12 -28l-844 -1444q-13 -23 -21 -31t-22 -8h-56 q-16 0 -16 12zM803 39v67q0 93 35.5 161.5t142.5 142.5l113 77q70 47 94 82t24 95q0 118 -188 118q-69 0 -164 -10q-12 -1 -21 -0.5t-14.5 6.5t-5.5 19v6q0 20 7.5 28t31.5 11q80 12 166 12q272 0 272 -190q0 -69 -32.5 -125.5t-122.5 -116.5l-113 -76q-91 -61 -117 -112 t-26 -128v-28h364q15 0 26 -9t11 -24v-12q0 -33 -37 -33h-409q-16 0 -26.5 12t-10.5 27z" />
<glyph unicode="&#xbe;" horiz-adv-x="1460" d="M61 725v8q0 18 10 22.5t29 2.5q119 -13 158 -13q105 0 155 41t50 136v22q0 143 -139 143h-207q-37 0 -37 35v8q0 35 37 35h207q43 0 72.5 14t43 37.5t18.5 44.5t5 44v14q0 81 -48.5 112t-156.5 31q-48 0 -158 -12q-10 -1 -19 -0.5t-14.5 6.5t-5.5 19v8q0 11 1.5 17t9 12 t22.5 8q79 14 164 14q146 0 217.5 -46.5t71.5 -168.5v-14q0 -123 -96 -183q96 -53 96 -178v-22q0 -133 -73.5 -190.5t-215.5 -57.5q-85 0 -164 14q-15 2 -22.5 8t-9 12t-1.5 17zM256 12q0 12 10 27l844 1444q13 23 21 31t22 8h57q17 0 17 -11q0 -9 -13 -28l-843 -1444 q-13 -23 -21 -31t-22 -8h-56q-16 0 -16 12zM811 313q0 27 23 62l301 440q26 39 73 39q60 0 60 -68v-471h94q15 0 26 -8t11 -24v-9q0 -16 -11 -25t-26 -9h-94v-203q0 -37 -33 -37h-16q-33 0 -33 37v203h-289q-39 0 -62.5 20t-23.5 53zM901 330q-9 -15 8 -15h277v424 q0 15 -10 2z" />
<glyph unicode="&#xbf;" horiz-adv-x="868" d="M123 -121q0 93 46.5 174t178.5 213l62 62q77 77 99.5 123.5t22.5 130.5v123q0 17 11.5 27.5t27.5 10.5h13q16 0 27.5 -10.5t11.5 -27.5v-123q0 -99 -31 -164.5t-121 -155.5l-57 -57q-118 -118 -155.5 -183t-37.5 -143v-16q0 -115 72.5 -166t224.5 -51q80 0 248 14h4 q27 0 27 -25v-16q0 -34 -35 -39q-118 -14 -244 -14q-80 0 -147.5 15.5t-125 48.5t-90 92.5t-32.5 140.5v16zM535 920v151q0 17 11.5 28t26.5 11h13q16 0 27.5 -11t11.5 -28v-151q0 -15 -12 -27t-27 -12h-13q-15 0 -26.5 12t-11.5 27z" />
<glyph unicode="&#xc0;" horiz-adv-x="1267" d="M82 45l420 1387q14 47 48.5 73.5t84.5 26.5q49 0 83 -26t48 -72l420 -1389q6 -23 -1 -37t-28 -14h-24q-12 0 -21 7.5t-12 18.5l-172 555h-590l-168 -555q-3 -10 -13 -18t-20 -8h-26q-20 0 -27.5 14.5t-1.5 36.5zM362 666h543l-223 743q-12 41 -47 41q-37 0 -47 -39z M416 1939q0 15 22 15h54q14 0 23.5 -6.5t23.5 -24.5l204 -262q9 -9 9 -21q0 -14 -19 -14h-45q-3 0 -6 0.5t-6 1.5t-4.5 2t-4.5 3.5t-4.5 3.5t-4.5 4.5t-4.5 5.5t-5 7t-5.5 7l-219 262q-8 8 -8 16z" />
<glyph unicode="&#xc1;" horiz-adv-x="1267" d="M82 45l420 1387q14 47 48.5 73.5t84.5 26.5q49 0 83 -26t48 -72l420 -1389q6 -23 -1 -37t-28 -14h-24q-12 0 -21 7.5t-12 18.5l-172 555h-590l-168 -555q-3 -10 -13 -18t-20 -8h-26q-20 0 -27.5 14.5t-1.5 36.5zM362 666h543l-223 743q-12 41 -47 41q-37 0 -47 -39z M514 1638q0 13 8 21l205 262q14 18 23.5 24.5t23.5 6.5h53q23 0 23 -15q0 -8 -8 -16l-219 -262q-2 -2 -5.5 -7t-5 -7t-4.5 -5.5t-4.5 -4.5t-4.5 -3.5t-4.5 -3.5t-4.5 -2t-6 -1.5t-6 -0.5h-46q-18 0 -18 14z" />
<glyph unicode="&#xc2;" horiz-adv-x="1267" d="M82 45l420 1387q14 47 48.5 73.5t84.5 26.5q49 0 83 -26t48 -72l420 -1389q6 -23 -1 -37t-28 -14h-24q-12 0 -21 7.5t-12 18.5l-172 555h-590l-168 -555q-3 -10 -13 -18t-20 -8h-26q-20 0 -27.5 14.5t-1.5 36.5zM332 1640q0 13 8 21l205 262q14 18 23.5 24.5t23.5 6.5h82 q14 0 23.5 -6.5t23.5 -24.5l205 -262q8 -8 8 -21q0 -14 -19 -14h-45q-3 0 -6 0.5t-6 1.5t-4.5 2t-4.5 3.5t-4.5 3.5t-4.5 4.5t-4.5 5.5t-5 7t-5.5 7l-192 231l-193 -231q-2 -2 -5.5 -7t-5 -7t-4.5 -5.5t-4.5 -4.5t-4.5 -3.5t-4.5 -3.5t-4.5 -2t-6 -1.5t-6 -0.5h-45 q-18 0 -18 14zM362 666h543l-223 743q-12 41 -47 41q-37 0 -47 -39z" />
<glyph unicode="&#xc3;" horiz-adv-x="1267" d="M82 45l420 1387q14 47 48.5 73.5t84.5 26.5q49 0 83 -26t48 -72l420 -1389q6 -23 -1 -37t-28 -14h-24q-12 0 -21 7.5t-12 18.5l-172 555h-590l-168 -555q-3 -10 -13 -18t-20 -8h-26q-20 0 -27.5 14.5t-1.5 36.5zM305 1659v53q0 92 43 139t119 47q79 0 135 -53l98 -96 q57 -57 101 -57q40 0 61 23.5t21 84.5v53q0 19 3.5 26t16.5 7h35q13 0 18 -7.5t5 -25.5v-53q0 -92 -42.5 -139t-117.5 -47q-81 0 -137 53l-99 96q-22 22 -32 31t-28.5 18t-37.5 9q-40 0 -62 -24t-22 -85v-53q0 -18 -4 -25.5t-17 -7.5h-34q-13 0 -18 7.5t-5 25.5zM362 666 h543l-223 743q-12 41 -47 41q-37 0 -47 -39z" />
<glyph unicode="&#xc4;" horiz-adv-x="1267" d="M82 45l420 1387q14 47 48.5 73.5t84.5 26.5q49 0 83 -26t48 -72l420 -1389q6 -23 -1 -37t-28 -14h-24q-12 0 -21 7.5t-12 18.5l-172 555h-590l-168 -555q-3 -10 -13 -18t-20 -8h-26q-20 0 -27.5 14.5t-1.5 36.5zM362 666h543l-223 743q-12 41 -47 41q-37 0 -47 -39z M434 1706v152q0 15 12 26.5t27 11.5h12q15 0 27 -11.5t12 -26.5v-152q0 -17 -11.5 -28t-27.5 -11h-12q-16 0 -27.5 11t-11.5 28zM741 1706v152q0 15 12 26.5t27 11.5h13q15 0 26.5 -11.5t11.5 -26.5v-152q0 -17 -11.5 -28t-26.5 -11h-13q-16 0 -27.5 11t-11.5 28z" />
<glyph unicode="&#xc5;" horiz-adv-x="1267" d="M82 45l420 1387q14 47 48.5 73.5t84.5 26.5q49 0 83 -26t48 -72l420 -1389q6 -23 -1 -37t-28 -14h-24q-12 0 -21 7.5t-12 18.5l-172 555h-590l-168 -555q-3 -10 -13 -18t-20 -8h-26q-20 0 -27.5 14.5t-1.5 36.5zM362 666h543l-223 743q-12 41 -47 41q-37 0 -47 -39z M442 1817q0 78 56.5 134t134.5 56t134 -56t56 -134t-56 -134.5t-134 -56.5t-134.5 56.5t-56.5 134.5zM516 1817q0 -50 34 -84.5t83 -34.5t84 35t35 84t-34.5 83.5t-84.5 34.5q-49 0 -83 -34t-34 -84z" />
<glyph unicode="&#xc6;" horiz-adv-x="1800" d="M63 45l420 1376q14 47 48.5 74t84.5 27h1029q17 0 27.5 -10t10.5 -25v-17q0 -32 -38 -32h-687v-596h687q17 0 27.5 -9t10.5 -24v-21q0 -15 -10.5 -24.5t-27.5 -9.5h-687v-588q0 -45 15.5 -63.5t64.5 -18.5h607q17 0 27.5 -9t10.5 -24v-16q0 -15 -10.5 -25t-27.5 -10h-607 q-89 0 -129.5 40t-40.5 126v409h-549l-167 -555q-3 -10 -13 -18t-20 -8h-27q-20 0 -27.5 14.5t-1.5 36.5zM344 666h524v772h-252q-37 0 -47 -39z" />
<glyph unicode="&#xc7;" horiz-adv-x="1099" d="M123 625v270q0 142 28 253.5t74.5 182.5t112.5 117t136 65t151 19q169 0 354 -21q15 -2 27 -11t12 -23v-25q0 -17 -9.5 -22t-29.5 -3q-176 19 -354 19q-89 0 -161.5 -30t-130 -93.5t-89 -172t-31.5 -255.5v-270q0 -147 31.5 -255.5t89 -172t130 -93.5t161.5 -30 q187 0 354 18q20 2 29.5 -2.5t9.5 -21.5v-25q0 -14 -12 -23.5t-27 -11.5q-177 -20 -354 -20q-81 0 -151 19t-136 65t-112.5 117t-74.5 182.5t-28 253.5zM397 -385q0 11 9 20l172 222q23 30 47 30h53q22 0 22 -14q0 -8 -8 -16l-186 -222q-22 -28 -31 -32q-6 -2 -14 -2h-45 q-19 0 -19 14z" />
<glyph unicode="&#xc8;" horiz-adv-x="1091" d="M164 229v1063q0 124 62.5 177t185.5 53h528q17 0 28 -10t11 -25v-17q0 -15 -10.5 -23.5t-28.5 -8.5h-528q-82 0 -120 -28.5t-38 -117.5v-450h686q17 0 28 -9t11 -24v-21q0 -15 -11 -24.5t-28 -9.5h-686v-525q0 -89 38 -117t120 -28h528q17 0 28 -9t11 -24v-16 q0 -15 -11 -25t-28 -10h-528q-123 0 -185.5 52.5t-62.5 176.5zM350 1939q0 15 23 15h53q14 0 23.5 -6.5t23.5 -24.5l205 -262q8 -8 8 -21q0 -14 -18 -14h-45q-3 0 -6 0.5t-6 1.5t-4.5 2t-4.5 3.5t-4.5 3.5t-4.5 4.5t-4.5 5.5t-5 7t-5.5 7l-220 262q-8 8 -8 16z" />
<glyph unicode="&#xc9;" horiz-adv-x="1091" d="M164 229v1063q0 124 62.5 177t185.5 53h528q17 0 28 -10t11 -25v-17q0 -15 -10.5 -23.5t-28.5 -8.5h-528q-82 0 -120 -28.5t-38 -117.5v-450h686q17 0 28 -9t11 -24v-21q0 -15 -11 -24.5t-28 -9.5h-686v-525q0 -89 38 -117t120 -28h528q17 0 28 -9t11 -24v-16 q0 -15 -11 -25t-28 -10h-528q-123 0 -185.5 52.5t-62.5 176.5zM494 1640q0 13 8 21l205 262q14 18 23.5 24.5t23.5 6.5h53q22 0 22 -15q0 -8 -8 -16l-219 -262q-2 -2 -5.5 -7t-5 -7t-4.5 -5.5t-4.5 -4.5t-4.5 -3.5t-4.5 -3.5t-4.5 -2t-6 -1.5t-6 -0.5h-45q-18 0 -18 14z" />
<glyph unicode="&#xca;" horiz-adv-x="1091" d="M164 229v1063q0 124 62.5 177t185.5 53h528q17 0 28 -10t11 -25v-17q0 -15 -10.5 -23.5t-28.5 -8.5h-528q-82 0 -120 -28.5t-38 -117.5v-450h686q17 0 28 -9t11 -24v-21q0 -15 -11 -24.5t-28 -9.5h-686v-525q0 -89 38 -117t120 -28h528q17 0 28 -9t11 -24v-16 q0 -15 -11 -25t-28 -10h-528q-123 0 -185.5 52.5t-62.5 176.5zM268 1640q0 13 8 21l205 262q14 18 23.5 24.5t23.5 6.5h82q14 0 23.5 -6.5t23.5 -24.5l205 -262q8 -8 8 -21q0 -14 -18 -14h-45q-3 0 -6 0.5t-6 1.5t-4.5 2t-4.5 3.5t-4.5 3.5t-4.5 4.5t-4.5 5.5t-5 7t-5.5 7 l-193 231l-192 -231q-2 -2 -5.5 -7t-5 -7t-4.5 -5.5t-4.5 -4.5t-4.5 -3.5t-4.5 -3.5t-4.5 -2t-6 -1.5t-6 -0.5h-45q-19 0 -19 14z" />
<glyph unicode="&#xcb;" horiz-adv-x="1091" d="M164 229v1063q0 124 62.5 177t185.5 53h528q17 0 28 -10t11 -25v-17q0 -15 -10.5 -23.5t-28.5 -8.5h-528q-82 0 -120 -28.5t-38 -117.5v-450h686q17 0 28 -9t11 -24v-21q0 -15 -11 -24.5t-28 -9.5h-686v-525q0 -89 38 -117t120 -28h528q17 0 28 -9t11 -24v-16 q0 -15 -11 -25t-28 -10h-528q-123 0 -185.5 52.5t-62.5 176.5zM383 1706v152q0 15 12 26.5t27 11.5h12q15 0 27 -11.5t12 -26.5v-152q0 -17 -11.5 -28t-27.5 -11h-12q-16 0 -27.5 11t-11.5 28zM690 1706v152q0 15 12 26.5t27 11.5h12q15 0 27 -11.5t12 -26.5v-152 q0 -17 -11.5 -28t-27.5 -11h-12q-16 0 -27.5 11t-11.5 28z" />
<glyph unicode="&#xcc;" horiz-adv-x="458" d="M25 1939q0 15 22 15h53q14 0 23.5 -6.5t23.5 -24.5l205 -262q8 -8 8 -21q0 -14 -18 -14h-45q-3 0 -6 0.5t-6 1.5t-4.5 2t-4.5 3.5t-4.5 3.5t-4.5 4.5t-4.5 5.5t-5 7t-5.5 7l-219 262q-8 8 -8 16zM184 39v1444q0 15 10 27t25 12h21q15 0 24.5 -11.5t9.5 -27.5v-1444 q0 -16 -9.5 -27.5t-24.5 -11.5h-21q-15 0 -25 12t-10 27z" />
<glyph unicode="&#xcd;" horiz-adv-x="458" d="M102 1640q0 12 9 21l204 262q14 18 23.5 24.5t23.5 6.5h54q22 0 22 -15q0 -8 -8 -16l-219 -262q-2 -2 -5.5 -7t-5 -7t-4.5 -5.5t-4.5 -4.5t-4.5 -3.5t-4.5 -3.5t-4.5 -2t-6 -1.5t-6 -0.5h-45q-19 0 -19 14zM184 39v1444q0 15 10 27t25 12h21q15 0 24.5 -11.5t9.5 -27.5 v-1444q0 -16 -9.5 -27.5t-24.5 -11.5h-21q-15 0 -25 12t-10 27z" />
<glyph unicode="&#xce;" horiz-adv-x="458" d="M-72 1640q0 12 9 21l204 262q14 18 23.5 24.5t23.5 6.5h82q14 0 23.5 -6.5t23.5 -24.5l205 -262q8 -8 8 -21q0 -14 -18 -14h-45q-3 0 -6 0.5t-6 1.5t-4.5 2t-4.5 3.5t-4.5 3.5t-4.5 4.5t-4.5 5.5t-5 7t-5.5 7l-193 231l-192 -231q-2 -2 -5.5 -7t-5 -7t-4.5 -5.5 t-4.5 -4.5t-4.5 -3.5t-4.5 -3.5t-4.5 -2t-6 -1.5t-6 -0.5h-45q-19 0 -19 14zM184 39v1444q0 15 10 27t25 12h21q15 0 24.5 -11.5t9.5 -27.5v-1444q0 -16 -9.5 -27.5t-24.5 -11.5h-21q-15 0 -25 12t-10 27z" />
<glyph unicode="&#xcf;" horiz-adv-x="458" d="M31 1706v152q0 15 12 26.5t27 11.5h12q15 0 27 -11.5t12 -26.5v-152q0 -17 -11.5 -28t-27.5 -11h-12q-16 0 -27.5 11t-11.5 28zM184 39v1444q0 15 10 27t25 12h21q15 0 24.5 -11.5t9.5 -27.5v-1444q0 -16 -9.5 -27.5t-24.5 -11.5h-21q-15 0 -25 12t-10 27zM338 1706v152 q0 15 12 26.5t27 11.5h12q15 0 27 -11.5t12 -26.5v-152q0 -17 -11.5 -28t-27.5 -11h-12q-16 0 -27.5 11t-11.5 28z" />
<glyph unicode="&#xd0;" horiz-adv-x="1255" d="M-20 788v21q0 15 10.5 24t27.5 9h146v635q0 13 10.5 24.5t24.5 14.5q94 16 336 16q598 0 598 -645v-254q0 -138 -29 -247.5t-81 -183.5t-127.5 -122.5t-164.5 -70t-196 -21.5q-242 0 -336 16q-14 3 -24.5 14.5t-10.5 24.5v711h-146q-17 0 -27.5 9.5t-10.5 24.5zM254 76 q120 -8 281 -8q507 0 507 565v254q0 128 -25.5 226t-70 161.5t-109.5 104t-138.5 57t-163.5 16.5q-101 0 -281 -12v-598h174q17 0 28 -9t11 -24v-21q0 -15 -11 -24.5t-28 -9.5h-174v-678z" />
<glyph unicode="&#xd1;" horiz-adv-x="1333" d="M164 39v1393q0 45 27.5 72.5t72.5 27.5q40 0 61.5 -16t36.5 -48l689 -1380q7 -14 16 -14q10 0 10 18v1391q0 16 9.5 27.5t23.5 11.5h25q16 0 25 -11.5t9 -27.5v-1391q0 -48 -26 -76t-66 -28q-51 0 -69 14q-23 19 -37 47l-690 1383q-7 14 -17 14t-10 -14v-1393 q0 -15 -10 -27t-25 -12h-20q-15 0 -25 12t-10 27zM338 1659v53q0 92 43 139t119 47q79 0 135 -53l98 -96q57 -57 101 -57q40 0 60.5 23.5t20.5 84.5v53q0 18 4 25.5t17 7.5h35q13 0 17.5 -7.5t4.5 -25.5v-53q0 -92 -42 -139t-117 -47q-82 0 -138 53l-98 96q-22 22 -32 31 t-28.5 18t-37.5 9q-40 0 -62 -24t-22 -85v-53q0 -18 -4 -25.5t-17 -7.5h-35q-13 0 -17.5 7.5t-4.5 25.5z" />
<glyph unicode="&#xd2;" horiz-adv-x="1294" d="M123 633v254q0 167 38.5 292.5t109.5 202t165 113.5t211 37t211 -37t165 -113.5t109.5 -202t38.5 -292.5v-254q0 -167 -38.5 -292.5t-109.5 -202t-165 -113.5t-211 -37t-211 37t-165 113.5t-109.5 202t-38.5 292.5zM213 633q0 -123 21.5 -218.5t59.5 -159t93.5 -105 t119 -59t140.5 -17.5t140.5 17.5t119 59t93.5 105t59.5 159t21.5 218.5v254q0 123 -21.5 218.5t-59.5 159t-93.5 105t-119 59t-140.5 17.5t-140.5 -17.5t-119 -59t-93.5 -105t-59.5 -159t-21.5 -218.5v-254zM422 1939q0 15 22 15h54q14 0 23.5 -6.5t23.5 -24.5l205 -262 q8 -8 8 -21q0 -14 -19 -14h-45q-3 0 -6 0.5t-6 1.5t-4.5 2t-4.5 3.5t-4.5 3.5t-4.5 4.5t-4.5 5.5t-5 7t-5.5 7l-219 262q-8 8 -8 16z" />
<glyph unicode="&#xd3;" horiz-adv-x="1294" d="M123 633v254q0 167 38.5 292.5t109.5 202t165 113.5t211 37t211 -37t165 -113.5t109.5 -202t38.5 -292.5v-254q0 -167 -38.5 -292.5t-109.5 -202t-165 -113.5t-211 -37t-211 37t-165 113.5t-109.5 202t-38.5 292.5zM213 633q0 -123 21.5 -218.5t59.5 -159t93.5 -105 t119 -59t140.5 -17.5t140.5 17.5t119 59t93.5 105t59.5 159t21.5 218.5v254q0 123 -21.5 218.5t-59.5 159t-93.5 105t-119 59t-140.5 17.5t-140.5 -17.5t-119 -59t-93.5 -105t-59.5 -159t-21.5 -218.5v-254zM518 1640q0 13 8 21l205 262q14 18 23.5 24.5t23.5 6.5h53 q23 0 23 -15q0 -8 -8 -16l-219 -262q-2 -2 -5.5 -7t-5 -7t-4.5 -5.5t-4.5 -4.5t-4.5 -3.5t-4.5 -3.5t-4.5 -2t-6 -1.5t-6 -0.5h-45q-19 0 -19 14z" />
<glyph unicode="&#xd4;" horiz-adv-x="1294" d="M123 633v254q0 167 38.5 292.5t109.5 202t165 113.5t211 37t211 -37t165 -113.5t109.5 -202t38.5 -292.5v-254q0 -167 -38.5 -292.5t-109.5 -202t-165 -113.5t-211 -37t-211 37t-165 113.5t-109.5 202t-38.5 292.5zM213 633q0 -123 21.5 -218.5t59.5 -159t93.5 -105 t119 -59t140.5 -17.5t140.5 17.5t119 59t93.5 105t59.5 159t21.5 218.5v254q0 123 -21.5 218.5t-59.5 159t-93.5 105t-119 59t-140.5 17.5t-140.5 -17.5t-119 -59t-93.5 -105t-59.5 -159t-21.5 -218.5v-254zM346 1640q0 13 8 21l205 262q14 18 23.5 24.5t23.5 6.5h82 q14 0 23.5 -6.5t23.5 -24.5l205 -262q8 -8 8 -21q0 -14 -18 -14h-45q-3 0 -6 0.5t-6 1.5t-4.5 2t-4.5 3.5t-4.5 3.5t-4.5 4.5t-4.5 5.5t-5 7t-5.5 7l-193 231l-192 -231q-2 -2 -5.5 -7t-5 -7t-4.5 -5.5t-4.5 -4.5t-4.5 -3.5t-4.5 -3.5t-4.5 -2t-6 -1.5t-6 -0.5h-45 q-19 0 -19 14z" />
<glyph unicode="&#xd5;" horiz-adv-x="1294" d="M123 633v254q0 167 38.5 292.5t109.5 202t165 113.5t211 37t211 -37t165 -113.5t109.5 -202t38.5 -292.5v-254q0 -167 -38.5 -292.5t-109.5 -202t-165 -113.5t-211 -37t-211 37t-165 113.5t-109.5 202t-38.5 292.5zM213 633q0 -123 21.5 -218.5t59.5 -159t93.5 -105 t119 -59t140.5 -17.5t140.5 17.5t119 59t93.5 105t59.5 159t21.5 218.5v254q0 123 -21.5 218.5t-59.5 159t-93.5 105t-119 59t-140.5 17.5t-140.5 -17.5t-119 -59t-93.5 -105t-59.5 -159t-21.5 -218.5v-254zM319 1659v53q0 92 43 139t119 47q79 0 135 -53l99 -96 q57 -57 100 -57q40 0 61 23.5t21 84.5v53q0 18 4 25.5t17 7.5h34q13 0 18 -7.5t5 -25.5v-53q0 -92 -42.5 -139t-117.5 -47q-81 0 -137 53l-98 96q-21 21 -32 30.5t-29.5 18.5t-37.5 9q-40 0 -62 -24t-22 -85v-53q0 -19 -3.5 -26t-16.5 -7h-35q-13 0 -18 7.5t-5 25.5z" />
<glyph unicode="&#xd6;" horiz-adv-x="1294" d="M123 633v254q0 167 38.5 292.5t109.5 202t165 113.5t211 37t211 -37t165 -113.5t109.5 -202t38.5 -292.5v-254q0 -167 -38.5 -292.5t-109.5 -202t-165 -113.5t-211 -37t-211 37t-165 113.5t-109.5 202t-38.5 292.5zM213 633q0 -123 21.5 -218.5t59.5 -159t93.5 -105 t119 -59t140.5 -17.5t140.5 17.5t119 59t93.5 105t59.5 159t21.5 218.5v254q0 123 -21.5 218.5t-59.5 159t-93.5 105t-119 59t-140.5 17.5t-140.5 -17.5t-119 -59t-93.5 -105t-59.5 -159t-21.5 -218.5v-254zM449 1706v152q0 15 11.5 26.5t26.5 11.5h13q15 0 27 -11.5 t12 -26.5v-152q0 -17 -11.5 -28t-27.5 -11h-13q-15 0 -26.5 11t-11.5 28zM756 1706v152q0 15 12 26.5t27 11.5h12q15 0 27 -11.5t12 -26.5v-152q0 -17 -11.5 -28t-27.5 -11h-12q-16 0 -27.5 11t-11.5 28z" />
<glyph unicode="&#xd7;" d="M225 479q0 14 17 31l290 291l-290 291q-17 17 -17 30q0 10 11 21l14 14q10 10 22 10q15 0 31 -16l291 -291l291 293q16 16 30 16q13 0 23 -10l14 -14q11 -11 11 -23q0 -13 -17 -30l-293 -291l293 -293q17 -17 17 -31q0 -11 -11 -22l-14 -15q-10 -10 -23 -10q-14 0 -30 16 l-291 293l-291 -290q-17 -17 -31 -17q-12 0 -22 10l-14 15q-11 11 -11 22z" />
<glyph unicode="&#xd8;" horiz-adv-x="1294" d="M74 10q0 8 6 17l135 188q-92 156 -92 418v254q0 167 38.5 292.5t109.5 202t165 113.5t211 37q256 0 391 -168l86 119q29 39 54 39h20q10 0 16.5 -7t6.5 -16q0 -5 -7 -16l-133 -185q90 -158 90 -411v-254q0 -167 -38.5 -292.5t-109.5 -202t-165 -113.5t-211 -37 q-251 0 -387 164l-90 -125q-29 -39 -53 -39h-21q-22 0 -22 22zM213 633q0 -209 59 -336l713 991q-109 158 -338 158q-77 0 -140.5 -17.5t-119 -59t-93.5 -105t-59.5 -159t-21.5 -218.5v-254zM313 227q109 -153 334 -153q77 0 140.5 17.5t119 59t93.5 105t59.5 159 t21.5 218.5v254q0 204 -57 330z" />
<glyph unicode="&#xd9;" horiz-adv-x="1296" d="M164 541v942q0 15 10 27t25 12h20q15 0 25 -12t10 -27v-942q0 -231 93 -350t302 -119q208 0 300.5 118.5t92.5 350.5v942q0 15 10 27t25 12h21q15 0 25 -12t10 -27v-942q0 -266 -119.5 -409.5t-364.5 -143.5t-365 143.5t-120 409.5zM418 1939q0 15 22 15h54 q14 0 23.5 -6.5t23.5 -24.5l204 -262q9 -9 9 -21q0 -14 -19 -14h-45q-3 0 -6 0.5t-6 1.5t-4.5 2t-4.5 3.5t-4.5 3.5t-4.5 4.5t-4.5 5.5t-5 7t-5.5 7l-219 262q-8 8 -8 16z" />
<glyph unicode="&#xda;" horiz-adv-x="1296" d="M164 541v942q0 15 10 27t25 12h20q15 0 25 -12t10 -27v-942q0 -231 93 -350t302 -119q208 0 300.5 118.5t92.5 350.5v942q0 15 10 27t25 12h21q15 0 25 -12t10 -27v-942q0 -266 -119.5 -409.5t-364.5 -143.5t-365 143.5t-120 409.5zM541 1640q0 13 8 21l205 262 q14 18 23.5 24.5t23.5 6.5h53q23 0 23 -15q0 -7 -9 -16l-219 -262q-2 -2 -5.5 -7t-5 -7t-4.5 -5.5t-4.5 -4.5t-4.5 -3.5t-4.5 -3.5t-4.5 -2t-6 -1.5t-6 -0.5h-45q-18 0 -18 14z" />
<glyph unicode="&#xdb;" horiz-adv-x="1296" d="M164 541v942q0 15 10 27t25 12h20q15 0 25 -12t10 -27v-942q0 -231 93 -350t302 -119q208 0 300.5 118.5t92.5 350.5v942q0 15 10 27t25 12h21q15 0 25 -12t10 -27v-942q0 -266 -119.5 -409.5t-364.5 -143.5t-365 143.5t-120 409.5zM346 1640q0 13 8 21l205 262 q14 18 23.5 24.5t23.5 6.5h82q14 0 23.5 -6.5t23.5 -24.5l205 -262q8 -8 8 -21q0 -14 -18 -14h-45q-3 0 -6 0.5t-6 1.5t-4.5 2t-4.5 3.5t-4.5 3.5t-4.5 4.5t-4.5 5.5t-5 7t-5.5 7l-193 231l-192 -231q-2 -2 -5.5 -7t-5 -7t-4.5 -5.5t-4.5 -4.5t-4.5 -3.5t-4.5 -3.5t-4.5 -2 t-6 -1.5t-6 -0.5h-45q-19 0 -19 14z" />
<glyph unicode="&#xdc;" horiz-adv-x="1296" d="M164 541v942q0 15 10 27t25 12h20q15 0 25 -12t10 -27v-942q0 -231 93 -350t302 -119q208 0 300.5 118.5t92.5 350.5v942q0 15 10 27t25 12h21q15 0 25 -12t10 -27v-942q0 -266 -119.5 -409.5t-364.5 -143.5t-365 143.5t-120 409.5zM449 1706v152q0 15 11.5 26.5 t26.5 11.5h13q15 0 27 -11.5t12 -26.5v-152q0 -17 -11.5 -28t-27.5 -11h-13q-15 0 -26.5 11t-11.5 28zM756 1706v152q0 15 12 26.5t27 11.5h12q15 0 27 -11.5t12 -26.5v-152q0 -17 -11.5 -28t-27.5 -11h-12q-16 0 -27.5 11t-11.5 28z" />
<glyph unicode="&#xdd;" horiz-adv-x="1128" d="M95 1508q8 14 32 14h20q9 0 18.5 -8t14.5 -17l322 -717q21 -45 32 -58t29 -13q19 0 30.5 13.5t31.5 57.5l321 717q5 9 14.5 17t18.5 8h20q24 0 32 -14t-3 -42l-323 -714q-46 -99 -97 -119v-594q0 -15 -10 -27t-25 -12h-20q-15 0 -25 12t-10 27v594q-50 19 -96 119 l-324 714q-11 28 -3 42zM465 1640q0 13 8 21l205 262q14 18 23.5 24.5t23.5 6.5h53q23 0 23 -15q0 -8 -8 -16l-220 -262q-2 -2 -5.5 -7t-5 -7t-4.5 -5.5t-4.5 -4.5t-4.5 -3.5t-4.5 -3.5t-4.5 -2t-6 -1.5t-6 -0.5h-45q-18 0 -18 14z" />
<glyph unicode="&#xde;" horiz-adv-x="1105" d="M164 39v1444q0 15 10 27t25 12h20q15 0 25 -12t10 -27v-154q105 6 223 6q557 0 557 -415v-35q0 -233 -142 -336t-415 -103q-95 0 -223 9v-416q0 -15 -10 -27t-25 -12h-20q-15 0 -25 12t-10 27zM254 535q142 -9 223 -9q242 0 354.5 83.5t112.5 275.5v35q0 184 -114 259.5 t-353 75.5q-135 0 -223 -6v-714z" />
<glyph unicode="&#xdf;" horiz-adv-x="1112" d="M154 41v1010q0 238 111.5 359.5t297.5 121.5q180 0 290 -98t110 -279v-14q0 -120 -71 -210.5t-171 -129.5q124 -36 201 -131.5t77 -225.5v-16q0 -117 -38 -204t-105 -137.5t-150.5 -74.5t-183.5 -24q-14 0 -38.5 2.5t-43.5 3.5q-18 0 -29.5 10t-11.5 27v16q0 25 35 25h6 q22 -1 45 -2.5t37 -1.5q387 0 387 360v16q0 137 -99.5 225.5t-274.5 88.5h-84q-41 0 -41 33v18q0 33 41 33h84q87 0 153.5 24.5t105.5 67.5t58.5 95t19.5 112v14q0 142 -76 219.5t-233 77.5q-67 0 -122 -20t-100.5 -64t-71 -124t-25.5 -191v-1012q0 -18 -9 -29.5t-26 -11.5 h-25q-30 0 -30 41z" />
<glyph unicode="&#xe0;" horiz-adv-x="999" d="M102 317v27q0 108 48.5 176t160.5 103.5t297 35.5h158v74q0 163 -55.5 230t-202.5 67q-118 0 -291 -18q-47 -5 -47 30v13q0 19 11 26.5t36 10.5q155 18 291 18q101 0 170.5 -27t107.5 -79.5t54 -117.5t16 -153v-692q0 -17 -12 -29t-29 -12h-10q-17 0 -29 12t-12 29v51 q-189 -104 -348 -104q-49 0 -92 9.5t-84.5 33t-71.5 60t-48 94.5t-18 132zM193 317q0 -249 223 -249q86 0 166.5 24t183.5 80v408h-158q-231 0 -323 -52.5t-92 -183.5v-27zM262 1579q0 14 23 14h53q24 0 47 -30l205 -263q8 -8 8 -20q0 -14 -18 -14h-45q-14 0 -22 7t-24 27 l-219 263q-8 8 -8 16z" />
<glyph unicode="&#xe1;" horiz-adv-x="999" d="M102 317v27q0 108 48.5 176t160.5 103.5t297 35.5h158v74q0 163 -55.5 230t-202.5 67q-118 0 -291 -18q-47 -5 -47 30v13q0 19 11 26.5t36 10.5q155 18 291 18q101 0 170.5 -27t107.5 -79.5t54 -117.5t16 -153v-692q0 -17 -12 -29t-29 -12h-10q-17 0 -29 12t-12 29v51 q-189 -104 -348 -104q-49 0 -92 9.5t-84.5 33t-71.5 60t-48 94.5t-18 132zM193 317q0 -249 223 -249q86 0 166.5 24t183.5 80v408h-158q-231 0 -323 -52.5t-92 -183.5v-27zM406 1280q0 12 8 20l204 263q23 30 48 30h53q22 0 22 -14q0 -8 -8 -16l-219 -263q-1 -2 -4 -5 q-19 -25 -31 -28q-5 -1 -10 -1h-45q-18 0 -18 14z" />
<glyph unicode="&#xe2;" horiz-adv-x="999" d="M102 317v27q0 108 48.5 176t160.5 103.5t297 35.5h158v74q0 163 -55.5 230t-202.5 67q-118 0 -291 -18q-47 -5 -47 30v13q0 19 11 26.5t36 10.5q155 18 291 18q101 0 170.5 -27t107.5 -79.5t54 -117.5t16 -153v-692q0 -17 -12 -29t-29 -12h-10q-17 0 -29 12t-12 29v51 q-189 -104 -348 -104q-49 0 -92 9.5t-84.5 33t-71.5 60t-48 94.5t-18 132zM193 317q0 -249 223 -249q86 0 166.5 24t183.5 80v408h-158q-231 0 -323 -52.5t-92 -183.5v-27zM199 1280q0 12 8 20l205 263q23 30 47 30h82q24 0 47 -30l205 -263q8 -8 8 -20q0 -14 -19 -14h-45 q-10 0 -17.5 5t-11.5 9t-16 20l-192 232l-193 -232q-1 -2 -4 -5q-19 -25 -31 -28q-5 -1 -10 -1h-45q-18 0 -18 14z" />
<glyph unicode="&#xe3;" horiz-adv-x="999" d="M102 317v27q0 108 48.5 176t160.5 103.5t297 35.5h158v74q0 163 -55.5 230t-202.5 67q-118 0 -291 -18q-47 -5 -47 30v13q0 19 11 26.5t36 10.5q155 18 291 18q101 0 170.5 -27t107.5 -79.5t54 -117.5t16 -153v-692q0 -17 -12 -29t-29 -12h-10q-17 0 -29 12t-12 29v51 q-189 -104 -348 -104q-49 0 -92 9.5t-84.5 33t-71.5 60t-48 94.5t-18 132zM172 1331v53q0 92 43.5 139.5t118.5 47.5q79 0 135 -53l98 -97q57 -57 101 -57q40 0 61 24t21 85v53q0 19 3.5 26t16.5 7h35q13 0 17.5 -7.5t4.5 -25.5v-53q0 -92 -42 -139.5t-117 -47.5 q-82 0 -138 53l-98 97q-21 21 -32 30.5t-29 18t-37 8.5q-40 0 -62 -24t-22 -85v-53q0 -18 -4 -25.5t-17 -7.5h-34q-13 0 -18 7.5t-5 25.5zM193 317q0 -249 223 -249q86 0 166.5 24t183.5 80v408h-158q-231 0 -323 -52.5t-92 -183.5v-27z" />
<glyph unicode="&#xe4;" horiz-adv-x="999" d="M102 317v27q0 108 48.5 176t160.5 103.5t297 35.5h158v74q0 163 -55.5 230t-202.5 67q-118 0 -291 -18q-47 -5 -47 30v13q0 19 11 26.5t36 10.5q155 18 291 18q101 0 170.5 -27t107.5 -79.5t54 -117.5t16 -153v-692q0 -17 -12 -29t-29 -12h-10q-17 0 -29 12t-12 29v51 q-189 -104 -348 -104q-49 0 -92 9.5t-84.5 33t-71.5 60t-48 94.5t-18 132zM193 317q0 -249 223 -249q86 0 166.5 24t183.5 80v408h-158q-231 0 -323 -52.5t-92 -183.5v-27zM301 1354v151q0 15 12 27t27 12h12q15 0 27 -12t12 -27v-151q0 -17 -11.5 -28t-27.5 -11h-12 q-16 0 -27.5 11t-11.5 28zM608 1354v151q0 15 12 27t27 12h12q15 0 27 -12t12 -27v-151q0 -17 -11.5 -28t-27.5 -11h-12q-16 0 -27.5 11t-11.5 28z" />
<glyph unicode="&#xe5;" horiz-adv-x="999" d="M102 317v27q0 108 48.5 176t160.5 103.5t297 35.5h158v74q0 163 -55.5 230t-202.5 67q-118 0 -291 -18q-47 -5 -47 30v13q0 19 11 26.5t36 10.5q155 18 291 18q101 0 170.5 -27t107.5 -79.5t54 -117.5t16 -153v-692q0 -17 -12 -29t-29 -12h-10q-17 0 -29 12t-12 29v51 q-189 -104 -348 -104q-49 0 -92 9.5t-84.5 33t-71.5 60t-48 94.5t-18 132zM193 317q0 -249 223 -249q86 0 166.5 24t183.5 80v408h-158q-231 0 -323 -52.5t-92 -183.5v-27zM309 1430q0 78 56.5 134t134.5 56t134 -56t56 -134t-56 -134.5t-134 -56.5t-134.5 56.5t-56.5 134.5 zM383 1430q0 -50 34 -84.5t83 -34.5t83.5 34.5t34.5 84.5t-34 84t-84 34q-49 0 -83 -34t-34 -84z" />
<glyph unicode="&#xe6;" horiz-adv-x="1699" d="M102 317v27q0 108 48.5 176t160.5 103.5t297 35.5h158v74q0 163 -55.5 230t-202.5 67q-118 0 -291 -18h-8q-39 0 -39 30v13q0 31 47 37q155 18 291 18q140 0 217 -51t106 -148q110 199 349 199q205 0 306 -130t101 -357v-56q0 -17 -11.5 -28t-27.5 -11h-692v-110 q0 -131 21.5 -188t66.5 -91q94 -71 283 -71q133 0 303 34q2 0 6 1t6 1q31 0 31 -28v-15q0 -17 -8 -25.5t-31 -12.5q-172 -35 -307 -35q-323 0 -420 184q-29 -40 -55.5 -67t-71.5 -57t-111.5 -45t-152.5 -15q-49 0 -92 9.5t-84.5 33t-71.5 60t-48 94.5t-18 132zM193 317 q0 -249 223 -249q183 0 266.5 81t83.5 269v160h-158q-232 0 -323.5 -51.5t-91.5 -182.5v-27zM856 610h641v13q0 201 -74.5 304t-242.5 103q-164 0 -244 -108t-80 -299v-13z" />
<glyph unicode="&#xe7;" horiz-adv-x="894" d="M113 483v138q0 105 22.5 191.5t69.5 154.5t126.5 105.5t186.5 37.5q93 0 248 -18q23 -3 31 -11t8 -26v-15q0 -35 -43 -28q-144 18 -244 18q-167 0 -241 -106t-74 -303v-138q0 -415 315 -415q100 0 244 18q19 3 31 -4.5t12 -24.5v-14q0 -18 -8 -26t-31 -11 q-155 -18 -248 -18q-106 0 -186 39t-127 108.5t-69.5 156.5t-22.5 191zM295 -385q0 12 8 20l172 222q23 30 47 30h53q23 0 23 -14q0 -8 -8 -16l-187 -222q-22 -28 -31 -32q-6 -2 -14 -2h-45q-18 0 -18 14z" />
<glyph unicode="&#xe8;" horiz-adv-x="1046" d="M113 485v136q0 219 108 354t305 135q205 0 306.5 -130t101.5 -357v-56q0 -17 -11.5 -28t-27.5 -11h-692v-43q0 -100 19.5 -175t51.5 -120.5t81 -73.5t100.5 -38t117.5 -10q134 0 304 34q43 9 43 -26v-15q0 -17 -8 -25.5t-31 -12.5q-171 -35 -308 -35q-80 0 -146 14 t-125.5 49.5t-100 91t-64.5 142.5t-24 200zM203 610h641v13q0 201 -75 304t-243 103q-164 0 -243.5 -109t-79.5 -300v-11zM283 1579q0 14 22 14h53q25 0 48 -30l204 -263q8 -8 8 -20q0 -14 -18 -14h-45q-10 0 -17.5 5t-11.5 9t-16 20l-219 263q-8 8 -8 16z" />
<glyph unicode="&#xe9;" horiz-adv-x="1046" d="M113 485v136q0 219 108 354t305 135q205 0 306.5 -130t101.5 -357v-56q0 -17 -11.5 -28t-27.5 -11h-692v-43q0 -100 19.5 -175t51.5 -120.5t81 -73.5t100.5 -38t117.5 -10q134 0 304 34q43 9 43 -26v-15q0 -17 -8 -25.5t-31 -12.5q-171 -35 -308 -35q-80 0 -146 14 t-125.5 49.5t-100 91t-64.5 142.5t-24 200zM203 610h641v13q0 201 -75 304t-243 103q-164 0 -243.5 -109t-79.5 -300v-11zM428 1280q0 12 8 20l205 263q23 30 47 30h53q23 0 23 -14q0 -8 -8 -16l-219 -263q-1 -2 -4 -5q-19 -25 -31 -28q-5 -1 -10 -1h-46q-18 0 -18 14z" />
<glyph unicode="&#xea;" horiz-adv-x="1046" d="M113 485v136q0 219 108 354t305 135q205 0 306.5 -130t101.5 -357v-56q0 -17 -11.5 -28t-27.5 -11h-692v-43q0 -100 19.5 -175t51.5 -120.5t81 -73.5t100.5 -38t117.5 -10q134 0 304 34q43 9 43 -26v-15q0 -17 -8 -25.5t-31 -12.5q-171 -35 -308 -35q-80 0 -146 14 t-125.5 49.5t-100 91t-64.5 142.5t-24 200zM203 610h641v13q0 201 -75 304t-243 103q-164 0 -243.5 -109t-79.5 -300v-11zM221 1280q0 12 8 20l205 263q23 30 47 30h82q24 0 47 -30l205 -263q8 -8 8 -20q0 -14 -18 -14h-45q-10 0 -17.5 5t-11.5 9t-16 20l-193 232l-192 -232 q-1 -2 -4 -5q-19 -25 -31 -28q-5 -1 -10 -1h-45q-19 0 -19 14z" />
<glyph unicode="&#xeb;" horiz-adv-x="1046" d="M113 485v136q0 219 108 354t305 135q205 0 306.5 -130t101.5 -357v-56q0 -17 -11.5 -28t-27.5 -11h-692v-43q0 -100 19.5 -175t51.5 -120.5t81 -73.5t100.5 -38t117.5 -10q134 0 304 34q43 9 43 -26v-15q0 -17 -8 -25.5t-31 -12.5q-171 -35 -308 -35q-80 0 -146 14 t-125.5 49.5t-100 91t-64.5 142.5t-24 200zM203 610h641v13q0 201 -75 304t-243 103q-164 0 -243.5 -109t-79.5 -300v-11zM324 1354v151q0 15 11.5 27t26.5 12h13q15 0 27 -12t12 -27v-151q0 -17 -11.5 -28t-27.5 -11h-13q-15 0 -26.5 11t-11.5 28zM631 1354v151q0 15 12 27 t27 12h12q15 0 27 -12t12 -27v-151q0 -17 -11.5 -28t-27.5 -11h-12q-16 0 -27.5 11t-11.5 28z" />
<glyph unicode="&#xec;" horiz-adv-x="417" d="M-6 1579q0 14 22 14h54q24 0 47 -30l205 -263q8 -8 8 -20q0 -14 -19 -14h-45q-10 0 -17.5 5t-11.5 9t-16 20l-219 263q-8 8 -8 16zM164 39v1022q0 15 12 27t27 12h12q15 0 27 -12t12 -27v-1022q0 -15 -12 -27t-27 -12h-12q-15 0 -27 12t-12 27z" />
<glyph unicode="&#xed;" horiz-adv-x="417" d="M88 1280q0 12 8 20l205 263q23 30 47 30h53q23 0 23 -14q0 -8 -8 -16l-219 -263q-1 -2 -4 -5q-19 -25 -31 -28q-5 -1 -10 -1h-46q-18 0 -18 14zM164 39v1022q0 15 12 27t27 12h12q15 0 27 -12t12 -27v-1022q0 -15 -12 -27t-27 -12h-12q-15 0 -27 12t-12 27z" />
<glyph unicode="&#xee;" horiz-adv-x="417" d="M-92 1280q0 12 8 20l205 263q23 30 47 30h82q24 0 47 -30l205 -263q8 -8 8 -20q0 -14 -18 -14h-46q-10 0 -17.5 5t-11.5 9t-16 20l-192 232l-193 -232q-1 -2 -4 -5q-19 -25 -31 -28q-5 -1 -10 -1h-45q-18 0 -18 14zM164 39v1022q0 15 12 27t27 12h12q15 0 27 -12t12 -27 v-1022q0 -15 -12 -27t-27 -12h-12q-15 0 -27 12t-12 27z" />
<glyph unicode="&#xef;" horiz-adv-x="417" d="M10 1354v151q0 15 12 27t27 12h12q15 0 27 -12t12 -27v-151q0 -17 -11.5 -28t-27.5 -11h-12q-16 0 -27.5 11t-11.5 28zM164 39v1022q0 15 12 27t27 12h12q15 0 27 -12t12 -27v-1022q0 -15 -12 -27t-27 -12h-12q-15 0 -27 12t-12 27zM317 1354v151q0 15 12 27t27 12h13 q15 0 27 -12t12 -27v-151q0 -17 -11.5 -28t-27.5 -11h-13q-16 0 -27.5 11t-11.5 28z" />
<glyph unicode="&#xf0;" horiz-adv-x="1069" d="M113 477v144q0 235 107 362t315 127q200 0 307 -119q-31 115 -112 206.5t-230 156.5l-199 -150q-30 -23 -49 0l-10 13q-8 13 -3.5 26t17.5 23l158 123q-96 35 -219 59q-41 8 -31 41l6 20q5 18 18 22t27 -1q172 -41 279 -82l208 160q29 21 52 -2l12 -13q20 -20 -12 -45 l-179 -135q80 -41 141.5 -91t101.5 -95.5t67.5 -110t41.5 -109t21 -119.5t7.5 -114t0.5 -118v-12.5v-11v-11.5v-144q0 -235 -106.5 -362t-314.5 -127t-315 127t-107 362zM203 477q0 -409 332 -409q331 0 331 409v144q0 409 -331 409q-332 0 -332 -409v-144z" />
<glyph unicode="&#xf1;" horiz-adv-x="1067" d="M143 39v1020q0 18 10 29.5t27 11.5h17q17 0 26.5 -11.5t9.5 -29.5v-33q175 84 330 84q77 0 140 -21.5t114 -66.5t79 -122t28 -181v-680q0 -16 -11 -27.5t-28 -11.5h-15q-15 0 -25.5 12t-10.5 27v680q0 164 -75.5 237.5t-201.5 73.5q-149 0 -324 -84v-907q0 -15 -11.5 -27 t-26.5 -12h-13q-15 0 -27 12t-12 27zM205 1300v54q0 92 43 139t119 47q79 0 135 -53l98 -96q58 -58 100 -58q40 0 61 24t21 85v53q0 18 4 25.5t17 7.5h35q13 0 17.5 -7.5t4.5 -25.5v-53q0 -92 -42.5 -139.5t-117.5 -47.5q-80 0 -137 54l-98 96q-21 21 -32 30.5t-29 18 t-37 8.5q-40 0 -62 -24t-22 -84v-54q0 -18 -4 -25t-17 -7h-35q-13 0 -17.5 7t-4.5 25z" />
<glyph unicode="&#xf2;" horiz-adv-x="1069" d="M113 477v144q0 235 107 362t315 127t314.5 -127t106.5 -362v-144q0 -235 -106.5 -362t-314.5 -127t-315 127t-107 362zM203 477q0 -409 332 -409q331 0 331 409v144q0 409 -331 409q-332 0 -332 -409v-144zM322 1579q0 14 22 14h53q24 0 47 -30l205 -263q8 -8 8 -20 q0 -14 -18 -14h-45q-10 0 -17.5 5t-11.5 9t-16 20l-219 263q-8 8 -8 16z" />
<glyph unicode="&#xf3;" horiz-adv-x="1069" d="M113 477v144q0 235 107 362t315 127t314.5 -127t106.5 -362v-144q0 -235 -106.5 -362t-314.5 -127t-315 127t-107 362zM203 477q0 -409 332 -409q331 0 331 409v144q0 409 -331 409q-332 0 -332 -409v-144zM438 1280q0 12 8 20l205 263q23 30 47 30h54q22 0 22 -14 q0 -8 -8 -16l-219 -263q-1 -2 -4 -5q-19 -25 -31 -28q-5 -1 -10 -1h-45q-19 0 -19 14z" />
<glyph unicode="&#xf4;" horiz-adv-x="1069" d="M113 477v144q0 235 107 362t315 127t314.5 -127t106.5 -362v-144q0 -235 -106.5 -362t-314.5 -127t-315 127t-107 362zM203 477q0 -409 332 -409q331 0 331 409v144q0 409 -331 409q-332 0 -332 -409v-144zM233 1280q0 11 9 20l204 263q23 30 48 30h81q25 0 48 -30 l204 -263q9 -9 9 -20q0 -14 -19 -14h-45q-10 0 -17.5 5t-11.5 9t-16 20l-192 232l-193 -232q-1 -2 -4 -5q-19 -25 -31 -28q-5 -1 -10 -1h-45q-19 0 -19 14z" />
<glyph unicode="&#xf5;" horiz-adv-x="1069" d="M113 477v144q0 235 107 362t315 127t314.5 -127t106.5 -362v-144q0 -235 -106.5 -362t-314.5 -127t-315 127t-107 362zM203 477q0 -409 332 -409q331 0 331 409v144q0 409 -331 409q-332 0 -332 -409v-144zM207 1298v54q0 92 43 139t119 47q79 0 135 -53l98 -96 q58 -58 100 -58q40 0 61 24t21 85v53q0 18 4 25.5t17 7.5h35q13 0 17.5 -7.5t4.5 -25.5v-53q0 -92 -42.5 -139.5t-117.5 -47.5q-80 0 -137 54l-98 96q-21 21 -32 30.5t-29 18t-37 8.5q-40 0 -62 -24t-22 -84v-54q0 -18 -4 -25t-17 -7h-35q-13 0 -17.5 7t-4.5 25z" />
<glyph unicode="&#xf6;" horiz-adv-x="1069" d="M113 477v144q0 235 107 362t315 127t314.5 -127t106.5 -362v-144q0 -235 -106.5 -362t-314.5 -127t-315 127t-107 362zM203 477q0 -409 332 -409q331 0 331 409v144q0 409 -331 409q-332 0 -332 -409v-144zM336 1354v151q0 15 12 27t27 12h12q15 0 27 -12t12 -27v-151 q0 -17 -11.5 -28t-27.5 -11h-12q-16 0 -27.5 11t-11.5 28zM643 1354v151q0 15 12 27t27 12h12q15 0 27 -12t12 -27v-151q0 -17 -11.5 -28t-27.5 -11h-12q-16 0 -27.5 11t-11.5 28z" />
<glyph unicode="&#xf7;" d="M180 791v20q0 33 41 33h748q41 0 41 -33v-20q0 -33 -41 -33h-748q-41 0 -41 33zM549 403v152q0 15 12 27t27 12h12q15 0 27 -12t12 -27v-152q0 -17 -11.5 -27.5t-27.5 -10.5h-12q-16 0 -27.5 10.5t-11.5 27.5zM549 1047v151q0 15 12 27t27 12h12q15 0 27 -12t12 -27v-151 q0 -17 -11.5 -28t-27.5 -11h-12q-16 0 -27.5 11t-11.5 28z" />
<glyph unicode="&#xf8;" horiz-adv-x="1069" d="M51 -55q0 11 8 22l136 183q-82 127 -82 327v144q0 235 107 362t315 127q185 0 292 -104l101 137q16 20 33 20h40q17 0 17 -16q0 -15 -8 -23l-133 -178q79 -122 79 -325v-144q0 -235 -106.5 -362t-314.5 -127q-185 0 -291 100l-103 -139q-16 -21 -32 -21h-41q-17 0 -17 17 zM203 477q0 -158 47 -252l526 713q-83 92 -241 92q-332 0 -332 -409v-144zM295 158q84 -90 240 -90q331 0 331 409v144q0 151 -45 247z" />
<glyph unicode="&#xf9;" horiz-adv-x="1067" d="M143 381v680q0 16 11 27.5t28 11.5h15q15 0 25.5 -12t10.5 -27v-680q0 -164 75.5 -237.5t201.5 -73.5q142 0 324 84v907q0 15 11.5 27t26.5 12h13q15 0 27 -12t12 -27v-1020q0 -18 -10 -29.5t-27 -11.5h-17q-17 0 -26.5 11.5t-9.5 29.5v33q-175 -84 -330 -84 q-160 0 -260.5 95.5t-100.5 295.5zM289 1579q0 14 22 14h54q24 0 47 -30l204 -263q9 -9 9 -20q0 -14 -19 -14h-45q-10 0 -17.5 5t-11.5 9t-16 20l-219 263q-8 8 -8 16z" />
<glyph unicode="&#xfa;" horiz-adv-x="1067" d="M143 381v680q0 16 11 27.5t28 11.5h15q15 0 25.5 -12t10.5 -27v-680q0 -164 75.5 -237.5t201.5 -73.5q142 0 324 84v907q0 15 11.5 27t26.5 12h13q15 0 27 -12t12 -27v-1020q0 -18 -10 -29.5t-27 -11.5h-17q-17 0 -26.5 11.5t-9.5 29.5v33q-175 -84 -330 -84 q-160 0 -260.5 95.5t-100.5 295.5zM453 1280q0 12 8 20l205 263q23 30 47 30h53q22 0 22 -14q0 -8 -8 -16l-219 -263q-1 -2 -4 -5q-19 -25 -31 -28q-5 -1 -10 -1h-45q-18 0 -18 14z" />
<glyph unicode="&#xfb;" horiz-adv-x="1067" d="M143 381v680q0 16 11 27.5t28 11.5h15q15 0 25.5 -12t10.5 -27v-680q0 -164 75.5 -237.5t201.5 -73.5q142 0 324 84v907q0 15 11.5 27t26.5 12h13q15 0 27 -12t12 -27v-1020q0 -18 -10 -29.5t-27 -11.5h-17q-17 0 -26.5 11.5t-9.5 29.5v33q-175 -84 -330 -84 q-160 0 -260.5 95.5t-100.5 295.5zM231 1280q0 11 9 20l204 263q23 30 48 30h81q25 0 48 -30l204 -263q9 -9 9 -20q0 -14 -19 -14h-45q-10 0 -17.5 5t-11.5 9t-16 20l-193 232l-192 -232q-1 -2 -4 -5q-19 -25 -31 -28q-5 -1 -10 -1h-45q-19 0 -19 14z" />
<glyph unicode="&#xfc;" horiz-adv-x="1067" d="M143 381v680q0 16 11 27.5t28 11.5h15q15 0 25.5 -12t10.5 -27v-680q0 -164 75.5 -237.5t201.5 -73.5q142 0 324 84v907q0 15 11.5 27t26.5 12h13q15 0 27 -12t12 -27v-1020q0 -18 -10 -29.5t-27 -11.5h-17q-17 0 -26.5 11.5t-9.5 29.5v33q-175 -84 -330 -84 q-160 0 -260.5 95.5t-100.5 295.5zM334 1354v151q0 15 12 27t27 12h12q15 0 27 -12t12 -27v-151q0 -17 -11.5 -28t-27.5 -11h-12q-16 0 -27.5 11t-11.5 28zM641 1354v151q0 15 12 27t27 12h12q15 0 27 -12t12 -27v-151q0 -17 -11.5 -28t-27.5 -11h-12q-16 0 -27.5 11 t-11.5 28z" />
<glyph unicode="&#xfd;" horiz-adv-x="995" d="M78 -336q0 19 9.5 25.5t33.5 3.5q93 -12 133 -12q110 0 158.5 44.5t85.5 178.5l26 96h-28q-50 0 -77 22.5t-48 92.5l-277 936q-6 22 1.5 35.5t31.5 13.5h18q25 0 33 -29l277 -942q8 -29 19.5 -37t27.5 -8h47l280 989q8 27 37 27h19q43 0 28 -51l-335 -1164 q-47 -164 -118 -224t-214 -60q-53 0 -127 12q-21 3 -31 9t-10 20v22zM420 1280q0 12 8 20l205 263q23 30 47 30h53q23 0 23 -14q0 -8 -8 -16l-220 -263q-1 -2 -4 -5q-19 -25 -31 -28q-5 -1 -10 -1h-45q-18 0 -18 14z" />
<glyph unicode="&#xfe;" horiz-adv-x="1032" d="M143 -360v1843q0 15 10 27t25 12h21q15 0 24.5 -11.5t9.5 -27.5v-400q166 27 285 27q204 0 303 -133t99 -365v-135q0 -243 -101 -366t-301 -123q-148 0 -285 30v-378q0 -16 -9.5 -27.5t-24.5 -11.5h-21q-15 0 -25 12t-10 27zM233 94q127 -26 285 -26q165 0 238 100.5 t73 308.5v135q0 207 -72.5 312.5t-238.5 105.5q-125 0 -285 -26v-910z" />
<glyph unicode="&#xff;" horiz-adv-x="995" d="M78 -336q0 19 9.5 25.5t33.5 3.5q93 -12 133 -12q110 0 158.5 44.5t85.5 178.5l26 96h-28q-50 0 -77 22.5t-48 92.5l-277 936q-6 22 1.5 35.5t31.5 13.5h18q25 0 33 -29l277 -942q8 -29 19.5 -37t27.5 -8h47l280 989q8 27 37 27h19q43 0 28 -51l-335 -1164 q-47 -164 -118 -224t-214 -60q-53 0 -127 12q-21 3 -31 9t-10 20v22zM299 1368v152q0 15 12 27t27 12h12q15 0 27 -12t12 -27v-152q0 -17 -11.5 -28t-27.5 -11h-12q-16 0 -27.5 11t-11.5 28zM606 1368v152q0 15 12 27t27 12h12q15 0 27 -12t12 -27v-152q0 -17 -11.5 -28 t-27.5 -11h-12q-16 0 -27.5 11t-11.5 28z" />
<glyph unicode="&#x152;" horiz-adv-x="2011" d="M123 530v459q0 169 70.5 294t188 187t265.5 62q138 0 252 -55.5t184 -159.5v37q0 88 40 128t130 40h607q17 0 27.5 -10t10.5 -25v-17q0 -32 -38 -32h-607q-49 0 -64 -18.5t-15 -65.5v-512h686q17 0 27.5 -9t10.5 -24v-21q0 -15 -10.5 -24.5t-27.5 -9.5h-686v-588 q0 -45 15 -63.5t64 -18.5h607q17 0 27.5 -9t10.5 -24v-16q0 -15 -10.5 -25t-27.5 -10h-607q-89 0 -129.5 40t-40.5 126v39q-70 -105 -184 -161t-252 -56q-110 0 -205.5 36.5t-166.5 104t-111.5 171t-40.5 230.5zM213 530q0 -143 60.5 -248.5t157.5 -156.5t216 -51 q181 0 305.5 115.5t130.5 320.5v6v14v459v15v6q-6 205 -130.5 320.5t-305.5 115.5q-88 0 -166 -30t-138 -86.5t-95 -144.5t-35 -196v-459z" />
<glyph unicode="&#x153;" horiz-adv-x="1822" d="M137 406v286q0 82 26.5 156t77.5 133t132.5 94t183.5 35q133 0 227 -56t144 -151q44 96 134 151.5t228 55.5q103 0 181 -31.5t124 -87.5t68.5 -126t22.5 -152v-146q0 -17 -11.5 -28t-27.5 -11h-670v-145q0 -167 91 -241t269 -74q119 0 291 20h8q35 0 35 -29v-12 q0 -18 -8.5 -27t-30.5 -12q-172 -20 -301 -20q-318 0 -407 202q-50 -94 -143 -148t-224 -54q-102 0 -183.5 35t-132.5 94t-77.5 133t-26.5 156zM225 406q0 -139 87 -238.5t245 -99.5t245 99.5t87 238.5v286q0 65 -21 124.5t-61 108t-104.5 77t-145.5 28.5t-145.5 -28.5 t-104.5 -77t-61 -108t-21 -124.5v-286zM977 610h618v103q0 63 -16.5 117.5t-50.5 100.5t-95 72.5t-143 26.5t-144 -26.5t-98 -72.5t-53.5 -100.5t-17.5 -117.5v-103z" />
<glyph unicode="&#x178;" horiz-adv-x="1128" d="M95 1508q8 14 32 14h20q9 0 18.5 -8t14.5 -17l322 -717q21 -45 32 -58t29 -13q19 0 30.5 13.5t31.5 57.5l321 717q5 9 14.5 17t18.5 8h20q24 0 32 -14t-3 -42l-323 -714q-46 -99 -97 -119v-594q0 -15 -10 -27t-25 -12h-20q-15 0 -25 12t-10 27v594q-50 19 -96 119 l-324 714q-11 28 -3 42zM365 1706v152q0 15 11.5 26.5t26.5 11.5h13q15 0 27 -11.5t12 -26.5v-152q0 -17 -11.5 -28t-27.5 -11h-13q-15 0 -26.5 11t-11.5 28zM672 1706v152q0 15 12 26.5t27 11.5h12q15 0 27 -11.5t12 -26.5v-152q0 -17 -11.5 -28t-27.5 -11h-12 q-16 0 -27.5 11t-11.5 28z" />
<glyph unicode="&#x192;" d="M145 -215l2 14q3 27 48 27h102q74 0 112 36t50 126l106 768h-264q-15 0 -25 8.5t-10 21.5v5l2 18q1 15 14.5 25t30.5 10h265l61 446q18 128 84.5 185t179.5 57q64 0 105 -6q34 -5 34 -27v-6l-2 -14q-3 -27 -47 -27h-102q-74 0 -112 -36t-50 -126l-61 -446h305 q15 0 24 -8.5t9 -22.5v-4l-2 -18q-2 -15 -14 -25t-29 -10h-306l-106 -768q-18 -128 -84.5 -185t-179.5 -57q-65 0 -105 6q-35 5 -35 27v6z" />
<glyph unicode="&#x2c6;" horiz-adv-x="675" d="M37 1280q0 12 8 20l205 263q23 30 47 30h82q24 0 47 -30l205 -263q8 -8 8 -20q0 -14 -18 -14h-46q-10 0 -17.5 5t-11.5 9t-16 20l-192 232l-193 -232q-1 -2 -4 -5q-19 -25 -31 -28q-5 -1 -10 -1h-45q-18 0 -18 14z" />
<glyph unicode="&#x2da;" horiz-adv-x="675" d="M147 1430q0 78 56.5 134t134.5 56t134 -56t56 -134t-56 -134.5t-134 -56.5t-134.5 56.5t-56.5 134.5zM221 1430q0 -50 34 -84.5t83 -34.5q50 0 84.5 34.5t34.5 84.5q0 49 -34.5 83.5t-84.5 34.5q-49 0 -83 -34t-34 -84z" />
<glyph unicode="&#x2dc;" horiz-adv-x="1005" d="M162 1331v53q0 92 43.5 139.5t118.5 47.5q79 0 135 -53l98 -97q57 -57 100 -57q40 0 61 24t21 85v53q0 18 4 25.5t17 7.5h35q13 0 17.5 -7.5t4.5 -25.5v-53q0 -92 -42.5 -139.5t-117.5 -47.5q-81 0 -137 53l-98 97q-21 21 -32 30.5t-29 18t-37 8.5q-40 0 -62 -24t-22 -85 v-53q0 -18 -4 -25.5t-17 -7.5h-35q-13 0 -17.5 7.5t-4.5 25.5z" />
<glyph unicode="&#x3a9;" horiz-adv-x="1261" d="M92 35v16q0 15 11 24t28 9h303v141q-154 55 -241 207.5t-87 405.5v49q0 167 38.5 292.5t110 202t165.5 113.5t211 37t211 -37t165 -113.5t109.5 -202t38.5 -292.5v-49q0 -253 -87 -405.5t-241 -207.5v-141h303q17 0 28 -9t11 -24v-16q0 -15 -11 -25t-28 -10h-346 q-22 0 -33.5 11t-12.5 21l-1 11v215q0 17 5 25t24 12q299 78 299 543v49q0 123 -21.5 218.5t-59.5 159t-93.5 105t-119 59t-140.5 17.5t-140.5 -17.5t-119 -59t-93.5 -105t-59.5 -159t-21.5 -218.5v-49q0 -465 299 -543q19 -4 23.5 -12t4.5 -25v-215q0 -5 -1 -12t-12.5 -19 t-33.5 -12h-346q-17 0 -28 10t-11 25z" />
<glyph unicode="&#x3c0;" horiz-adv-x="1189" d="M41 1071v10q0 19 11.5 29t27.5 10h1022q39 0 39 -39v-10q0 -39 -39 -39h-141v-758q0 -50 0.5 -71t3 -51t8 -40.5t16 -23t26 -15.5t38.5 -3h47q27 0 38 -6.5t11 -26.5v-6q0 -25 -28 -33t-89 -8q-27 0 -48.5 5t-37.5 12t-28 22t-20 27t-13.5 35t-8.5 38.5t-4.5 45.5 t-1.5 47v52v758h-559v-993q0 -39 -39 -39h-12q-39 0 -39 39v993h-141q-39 0 -39 39z" />
<glyph unicode="&#x401;" horiz-adv-x="1091" d="M164 229v1063q0 124 62.5 177t185.5 53h528q17 0 28 -10t11 -25v-17q0 -15 -10.5 -23.5t-28.5 -8.5h-528q-82 0 -120 -28.5t-38 -117.5v-450h686q17 0 28 -9t11 -24v-21q0 -15 -11 -24.5t-28 -9.5h-686v-525q0 -89 38 -117t120 -28h528q17 0 28 -9t11 -24v-16 q0 -15 -11 -25t-28 -10h-528q-123 0 -185.5 52.5t-62.5 176.5zM383 1704v151q0 15 12 27t27 12h12q15 0 27 -12t12 -27v-151q0 -17 -11.5 -28t-27.5 -11h-12q-16 0 -27.5 11t-11.5 28zM690 1704v151q0 15 12 27t27 12h12q15 0 27 -12t12 -27v-151q0 -17 -11.5 -28t-27.5 -11 h-12q-16 0 -27.5 11t-11.5 28z" />
<glyph unicode="&#x402;" horiz-adv-x="1665" d="M61 1468v19q0 15 11 25t28 10h969q17 0 28 -10t11 -25v-19q0 -30 -39 -30h-438v-613q196 64 422 64q81 0 149.5 -12.5t130.5 -43t104.5 -77.5t67.5 -120t25 -167v-27q0 -107 -23 -187.5t-62.5 -131t-99.5 -82t-126 -43.5t-150 -12h-29q-41 0 -41 28v21q0 31 41 31h29 q70 0 124 10t101.5 35.5t78 68t48 108t17.5 154.5v27q0 82 -23.5 143.5t-59.5 97t-89.5 56.5t-103.5 28t-111 7q-87 0 -211.5 -16t-208.5 -42v-704q0 -15 -10 -27t-25 -12h-21q-15 0 -24.5 11.5t-9.5 27.5v1399h-441q-39 0 -39 30z" />
<glyph unicode="&#x403;" horiz-adv-x="1060" d="M164 39v1253q0 124 62.5 177t185.5 53h528q17 0 28 -10t11 -25v-17q0 -15 -10.5 -23.5t-28.5 -8.5h-528q-82 0 -120 -28.5t-38 -117.5v-1253q0 -15 -10 -27t-25 -12h-20q-15 0 -25 12t-10 27zM526 1640q0 12 9 21l204 262q14 18 23.5 24.5t23.5 6.5h54q22 0 22 -15 q0 -8 -8 -16l-219 -262q-2 -2 -5.5 -7t-5 -7t-4.5 -5.5t-4.5 -4.5t-4.5 -3.5t-4.5 -3.5t-4.5 -2t-6 -1.5t-6 -0.5h-45q-19 0 -19 14z" />
<glyph unicode="&#x404;" horiz-adv-x="1114" d="M150 655v201q0 159 29 279.5t76.5 193t117.5 117t141.5 60.5t159.5 16q132 0 278 -25q20 -3 29.5 -11.5t9.5 -29.5v-6q0 -22 -9 -31t-30 -6q-157 25 -278 25q-78 0 -139.5 -14.5t-118.5 -53.5t-94 -103t-59.5 -168t-22.5 -243v-22h622q17 0 28 -9t11 -24v-21 q0 -15 -11 -25t-28 -10h-622v-90q0 -139 22 -243.5t59.5 -169t94.5 -104t118.5 -54t139.5 -14.5q127 0 278 24q21 3 30 -6t9 -31v-6q0 -21 -9.5 -29.5t-29.5 -11.5q-140 -24 -278 -24q-72 0 -133.5 12t-123 39.5t-108 77.5t-83.5 122t-56.5 178t-19.5 240z" />
<glyph unicode="&#x405;" horiz-adv-x="1085" d="M113 1200q0 332 479 332q74 0 305 -21q35 -3 35 -30v-27q0 -29 -39 -29q-15 0 -129.5 10.5t-173.5 10.5q-201 0 -293 -60t-92 -188q0 -89 63 -155.5t213 -157.5l131 -80q76 -46 125.5 -79.5t98.5 -75t76.5 -80.5t44 -87.5t16.5 -103.5q0 -391 -475 -391q-47 0 -97.5 2.5 t-77 5t-81 8t-62.5 6.5q-15 2 -26 10.5t-11 22.5v27q0 26 39 26h8q34 -3 96 -9t112 -9.5t100 -3.5q90 0 158 16t110 42.5t68 66.5t35.5 83t9.5 97q0 45 -12 80.5t-31 63.5t-62 61.5t-83.5 60t-117.5 74.5q-7 4 -10 6l-129 80q-64 40 -105.5 68.5t-86.5 67.5t-70.5 75 t-42 83.5t-16.5 100.5z" />
<glyph unicode="&#x406;" horiz-adv-x="458" d="M184 39v1444q0 15 10 27t25 12h21q15 0 24.5 -11.5t9.5 -27.5v-1444q0 -16 -9.5 -27.5t-24.5 -11.5h-21q-15 0 -25 12t-10 27z" />
<glyph unicode="&#x407;" horiz-adv-x="458" d="M29 1706v152q0 15 12 26.5t27 11.5h12q15 0 27 -11.5t12 -26.5v-152q0 -17 -11.5 -28t-27.5 -11h-12q-16 0 -27.5 11t-11.5 28zM184 39v1444q0 15 10 27t25 12h21q15 0 24.5 -11.5t9.5 -27.5v-1444q0 -16 -9.5 -27.5t-24.5 -11.5h-21q-15 0 -25 12t-10 27zM336 1706v152 q0 15 12 26.5t27 11.5h12q15 0 27 -11.5t12 -26.5v-152q0 -17 -11.5 -28t-27.5 -11h-12q-16 0 -27.5 11t-11.5 28z" />
<glyph unicode="&#x408;" horiz-adv-x="458" d="M-90 -350q0 31 41 31h29q126 0 165 37.5t39 158.5v1606q0 15 10 27t25 12h21q15 0 24.5 -11.5t9.5 -27.5v-1606q0 -147 -65 -211.5t-229 -64.5h-29q-41 0 -41 28v21z" />
<glyph unicode="&#x409;" horiz-adv-x="2021" d="M80 16q0 13 2 19l420 1386q14 47 48.5 74t84.5 27h364q24 0 37 -12.5t13 -32.5v-613q130 13 256 13q85 0 159 -9.5t152.5 -38t133.5 -75t90.5 -125.5t35.5 -183v-30q0 -104 -35.5 -183t-90.5 -125t-133.5 -74.5t-152.5 -38t-159 -9.5q-161 0 -308 16q-39 3 -39 39v1397 h-323q-22 0 -32 -9t-15 -28l-418 -1391q-3 -10 -13 -18t-20 -8h-26q-15 0 -23 9t-8 23zM1049 80q176 -12 256 -12q81 0 145 7.5t129.5 30t109 59.5t70.5 101t27 150v30q0 86 -27 150t-70.5 101.5t-108.5 60t-129.5 30t-145.5 7.5q-65 0 -256 -13v-702z" />
<glyph unicode="&#x40a;" horiz-adv-x="2095" d="M164 39v1444q0 15 10 27t25 12h20q15 0 25 -12t10 -27v-627h819v627q0 16 9.5 27.5t25.5 11.5h18q16 0 25.5 -11.5t9.5 -27.5v-619q130 13 256 13q70 0 132.5 -7t130 -24t121 -49t97 -78t67.5 -115.5t24 -157.5v-30q0 -104 -35.5 -183t-90.5 -125t-134 -74.5t-152.5 -38 t-159.5 -9.5q-162 0 -309 16q-16 0 -25.5 11.5t-9.5 27.5v731h-819v-733q0 -15 -10 -27t-25 -12h-20q-15 0 -25 12t-10 27zM1161 80q176 -12 256 -12q81 0 145 7.5t129.5 30t109 59.5t70.5 101t27 150v30q0 86 -27 150t-70.5 101.5t-108.5 60t-129.5 30t-145.5 7.5 q-65 0 -256 -13v-702z" />
<glyph unicode="&#x40b;" horiz-adv-x="1587" d="M61 1468v19q0 15 11 25t28 10h969q17 0 28 -10t11 -25v-19q0 -30 -39 -30h-438v-535q70 33 181 58.5t210 25.5q102 0 177 -19t131.5 -63t85 -121t28.5 -188v-557q0 -16 -11 -27.5t-28 -11.5h-14q-15 0 -26 12t-11 27v557q0 93 -19.5 153.5t-63 95t-104 48.5t-151.5 14 q-97 0 -202 -23.5t-183 -60.5v-784q0 -15 -10 -27t-25 -12h-21q-15 0 -24.5 11.5t-9.5 27.5v1399h-441q-39 0 -39 30z" />
<glyph unicode="&#x40c;" horiz-adv-x="1110" d="M164 39v1444q0 15 12 27t27 12h12q15 0 27 -12t12 -27v-656l696 680q26 23 47 23q16 0 27.5 -11t11.5 -24q0 -21 -16 -37l-688 -667l702 -730q15 -15 15 -32q0 -14 -10.5 -23.5t-28.5 -9.5q-31 0 -47 16l-709 738v-711q0 -15 -10 -27t-25 -12h-20q-15 0 -25 12t-10 27z M506 1640q0 13 8 21l205 262q14 18 23.5 24.5t23.5 6.5h53q23 0 23 -15q0 -8 -8 -16l-220 -262q-2 -2 -5.5 -7t-5 -7t-4.5 -5.5t-4.5 -4.5t-4.5 -3.5t-4.5 -3.5t-4.5 -2t-6 -1.5t-6 -0.5h-45q-18 0 -18 14z" />
<glyph unicode="&#x40e;" horiz-adv-x="1204" d="M127 35v12q0 21 11 27t32 4q99 -12 127 -12q112 0 158.5 43.5t95.5 179.5l84 233h-25q-50 0 -77 22.5t-48 92.5l-327 833q-10 26 0.5 38t31.5 12h15q13 0 21 -5.5t9.5 -9t6.5 -14.5l327 -840q8 -29 19.5 -37t27.5 -8h52l327 887q9 27 41 27h19q42 0 24 -52l-444 -1198 q-61 -164 -131 -224t-209 -60q-53 0 -127 12q-26 5 -33.5 11t-7.5 26zM328 1919q0 19 5 27t19 8h41q15 0 19 -6.5t4 -28.5q0 -50 15 -88.5t37 -60.5t51 -36t53.5 -19t48.5 -5t48.5 5t53.5 19t51 36t36.5 60.5t14.5 88.5q0 22 4 28.5t19 6.5h41q14 0 19 -8t5 -27 q0 -127 -84 -210t-208 -83t-208.5 83.5t-84.5 209.5z" />
<glyph unicode="&#x40f;" horiz-adv-x="1325" d="M164 39v1444q0 15 10 27t25 12h20q15 0 25 -12t10 -27v-1399h819v1399q0 16 9.5 27.5t25.5 11.5h18q16 0 25.5 -11.5t9.5 -27.5v-1444q0 -16 -9.5 -27.5t-25.5 -11.5h-419v-233q0 -16 -9.5 -27.5t-25.5 -11.5h-19q-16 0 -25.5 11.5t-9.5 27.5v233h-419q-15 0 -25 12 t-10 27z" />
<glyph unicode="&#x410;" horiz-adv-x="1267" d="M80 27q0 12 2 18l420 1387q14 47 48.5 73.5t84.5 26.5q49 0 83 -26t48 -72l420 -1389q4 -12 4 -20q0 -31 -33 -31h-24q-12 0 -21 7.5t-12 18.5l-172 555h-590l-168 -555q-3 -10 -13 -18t-20 -8h-26q-14 0 -22.5 9.5t-8.5 23.5zM362 666h543l-223 743q-12 41 -47 41 q-37 0 -47 -39z" />
<glyph unicode="&#x411;" d="M164 41v1442q0 39 35 39h721q17 0 27.5 -10t10.5 -25v-17q0 -32 -38 -32h-666v-574q130 13 256 13q85 0 159 -9.5t152.5 -38t133.5 -75t90.5 -125.5t35.5 -183v-30q0 -104 -35.5 -183t-90.5 -125t-133.5 -74.5t-152.5 -38t-159 -9.5q-160 0 -307 16q-39 3 -39 39zM254 80 q176 -12 256 -12q81 0 145 7.5t129.5 30t109 59.5t70.5 101t27 150v30q0 86 -27 150t-70.5 101.5t-108.5 60t-129.5 30t-145.5 7.5q-65 0 -256 -13v-702z" />
<glyph unicode="&#x412;" d="M164 41v1440q0 15 12 26t27 13q168 12 307 12q91 0 167 -9t152 -33.5t127.5 -65t84 -107.5t32.5 -156v-22q0 -125 -64 -212.5t-180 -127.5q120 -36 186 -124.5t66 -223.5v-35q0 -104 -35.5 -183t-90.5 -125t-133.5 -74.5t-152.5 -38t-159 -9.5q-160 0 -307 16 q-39 3 -39 39zM254 80q176 -12 256 -12q81 0 145 7.5t129.5 30t109 59.5t70.5 101t27 150v35q0 50 -10 92.5t-36 82.5t-66 68t-105 45t-149 17h-371v-676zM254 844h371q358 0 358 295v22q0 61 -18 108.5t-52 78.5t-76 52t-98.5 32t-110 15.5t-118.5 4.5q-54 0 -153 -4 t-103 -4v-600z" />
<glyph unicode="&#x413;" horiz-adv-x="1060" d="M164 39v1253q0 124 62.5 177t185.5 53h528q17 0 28 -10t11 -25v-17q0 -15 -10.5 -23.5t-28.5 -8.5h-528q-82 0 -120 -28.5t-38 -117.5v-1253q0 -15 -10 -27t-25 -12h-20q-15 0 -25 12t-10 27z" />
<glyph unicode="&#x414;" horiz-adv-x="1402" d="M119 47q0 37 33 37h49l407 1348q14 47 48.5 73.5t84.5 26.5q49 0 83 -26t48 -72l408 -1350h55q20 0 27.5 -8.5t7.5 -30.5v-250q0 -15 -10 -27t-25 -12h-20q-15 0 -25 12t-10 27v205h-1071v-205q0 -15 -10 -27t-25 -12h-20q-15 0 -25 12t-10 27v252zM297 84h889l-398 1325 q-12 41 -47 41q-37 0 -47 -39z" />
<glyph unicode="&#x415;" horiz-adv-x="1091" d="M164 229v1063q0 124 62.5 177t185.5 53h528q17 0 28 -10t11 -25v-17q0 -15 -10.5 -23.5t-28.5 -8.5h-528q-82 0 -120 -28.5t-38 -117.5v-450h686q17 0 28 -9t11 -24v-21q0 -15 -11 -24.5t-28 -9.5h-686v-525q0 -89 38 -117t120 -28h528q17 0 28 -9t11 -24v-16 q0 -15 -11 -25t-28 -10h-528q-123 0 -185.5 52.5t-62.5 176.5z" />
<glyph unicode="&#x416;" horiz-adv-x="1802" d="M61 29q0 17 15 32l702 730l-688 667q-16 16 -16 37q0 13 11.5 24t27.5 11q21 0 47 -23l696 -680v656q0 15 12 27t27 12h12q15 0 27 -12t12 -27v-656l696 680q26 23 48 23q16 0 27.5 -11t11.5 -24q0 -20 -17 -37l-688 -667l702 -730q15 -15 15 -32q0 -14 -10.5 -23.5 t-28.5 -9.5q-31 0 -47 16l-709 738v-711q0 -15 -10 -27t-25 -12h-20q-15 0 -25 12t-10 27v711l-709 -738q-16 -16 -47 -16q-18 0 -28.5 9.5t-10.5 23.5z" />
<glyph unicode="&#x417;" d="M172 55v13q0 32 33 32h8q160 -26 295 -26q213 0 312.5 82t99.5 266v41q0 44 -16 92t-48 94.5t-91.5 76.5t-135.5 30h-383q-17 0 -28 11t-11 26v14q0 17 11 27t28 10h383q68 0 121 20t84.5 50t51.5 70.5t27 76.5t7 72v24q0 86 -25 142.5t-79 88.5t-127 45t-181 13 q-105 0 -295 -31h-8q-15 0 -24 9t-9 24v16q0 13 11 23.5t26 13.5q177 31 299 31q124 0 213 -17t158 -58.5t103 -116t34 -183.5v-24q0 -109 -50.5 -199t-162.5 -139q57 -26 100 -67t66.5 -87.5t35 -91t11.5 -86.5v-41q0 -223 -133.5 -328.5t-374.5 -105.5q-153 0 -299 30 q-15 3 -26 13.5t-11 23.5z" />
<glyph unicode="&#x418;" horiz-adv-x="1333" d="M164 92v1391q0 16 9.5 27.5t25.5 11.5h24q14 0 23.5 -11.5t9.5 -27.5v-1391q0 -18 10 -18t17 14l688 1380q15 32 36.5 48t61.5 16q45 0 72.5 -27.5t27.5 -72.5v-1393q0 -16 -9.5 -27.5t-24.5 -11.5h-21q-15 0 -25 12t-10 27v1393q0 14 -10 14q-9 0 -16 -14l-691 -1383 q-15 -29 -36 -47q-18 -14 -68 -14h-2q-40 0 -66 28t-26 76z" />
<glyph unicode="&#x419;" horiz-adv-x="1333" d="M164 92q0 -48 26 -76t66 -28h2q50 0 68 14q21 18 36 47l691 1383q7 14 16 14q10 0 10 -14v-1393q0 -15 10 -27t25 -12h21q15 0 24.5 11.5t9.5 27.5v1393q0 45 -27.5 72.5t-72.5 27.5q-40 0 -61.5 -16t-36.5 -48l-688 -1380q-7 -14 -17 -14t-10 18v1391q0 16 -9.5 27.5 t-23.5 11.5h-24q-16 0 -25.5 -11.5t-9.5 -27.5v-1391zM358 1917q0 35 25 35h41q15 0 18.5 -6.5t3.5 -28.5q0 -50 15 -88.5t37 -60.5t51 -36t53.5 -19t48.5 -5t48.5 5t53.5 19t51 36t37 60.5t15 88.5q0 22 4 28.5t19 6.5h41q14 0 19 -8t5 -27q0 -126 -84.5 -209.5 t-208.5 -83.5t-208.5 83.5t-84.5 209.5z" />
<glyph unicode="&#x41a;" horiz-adv-x="1110" d="M164 39v1444q0 15 12 27t27 12h12q15 0 27 -12t12 -27v-656l696 680q26 23 47 23q16 0 27.5 -11t11.5 -24q0 -21 -16 -37l-688 -667l702 -730q15 -15 15 -32q0 -14 -10.5 -23.5t-28.5 -9.5q-31 0 -47 16l-709 738v-711q0 -15 -10 -27t-25 -12h-20q-15 0 -25 12t-10 27z " />
<glyph unicode="&#x41b;" horiz-adv-x="1267" d="M80 27q0 12 2 18l420 1387q14 47 48.5 73.5t84.5 26.5q49 0 83 -26t48 -72l420 -1389q4 -12 4 -20q0 -31 -33 -31h-24q-12 0 -21 7.5t-12 18.5l-418 1389q-12 41 -47 41q-37 0 -47 -39l-418 -1391q-3 -10 -13 -18t-20 -8h-26q-14 0 -22.5 9.5t-8.5 23.5z" />
<glyph unicode="&#x41c;" horiz-adv-x="1495" d="M164 39v1393q0 50 27.5 75t76.5 25q65 0 94 -64l359 -751q12 -27 27 -27q14 0 26 27l359 751q29 64 94 64q49 0 76.5 -25t27.5 -75v-1393q0 -15 -10 -27t-25 -12h-20q-15 0 -25 12t-10 27v1393q0 14 -14 14q-13 0 -21 -19l-354 -747q-21 -42 -44.5 -58t-59.5 -16t-60 16 t-45 58l-354 747q-8 19 -21 19q-14 0 -14 -14v-1393q0 -15 -10 -27t-25 -12h-20q-15 0 -25 12t-10 27z" />
<glyph unicode="&#x41d;" horiz-adv-x="1325" d="M164 39v1444q0 15 10 27t25 12h20q15 0 25 -12t10 -27v-627h819v627q0 16 9.5 27.5t25.5 11.5h18q16 0 25.5 -11.5t9.5 -27.5v-1444q0 -16 -9.5 -27.5t-25.5 -11.5h-18q-16 0 -25.5 11.5t-9.5 27.5v733h-819v-733q0 -15 -10 -27t-25 -12h-20q-15 0 -25 12t-10 27z" />
<glyph unicode="&#x41e;" horiz-adv-x="1294" d="M123 633v254q0 167 38.5 292.5t109.5 202t165 113.5t211 37t211 -37t165 -113.5t109.5 -202t38.5 -292.5v-254q0 -167 -38.5 -292.5t-109.5 -202t-165 -113.5t-211 -37t-211 37t-165 113.5t-109.5 202t-38.5 292.5zM213 633q0 -123 21.5 -218.5t59.5 -159t93.5 -105 t119 -59t140.5 -17.5t140.5 17.5t119 59t93.5 105t59.5 159t21.5 218.5v254q0 123 -21.5 218.5t-59.5 159t-93.5 105t-119 59t-140.5 17.5t-140.5 -17.5t-119 -59t-93.5 -105t-59.5 -159t-21.5 -218.5v-254z" />
<glyph unicode="&#x41f;" horiz-adv-x="1325" d="M164 39v1278q0 51 13 89.5t32.5 60t49 34.5t57 17t61.5 4h569q34 0 62 -4t58 -17t50.5 -34.5t33.5 -60t13 -89.5v-1278q0 -16 -9.5 -27.5t-25.5 -11.5h-20q-16 0 -25.5 11.5t-9.5 27.5v1278q0 63 -28 92t-97 29h-571q-68 0 -95.5 -28.5t-27.5 -92.5v-1278q0 -15 -10 -27 t-25 -12h-20q-15 0 -25 12t-10 27z" />
<glyph unicode="&#x420;" horiz-adv-x="1105" d="M164 39v1444q0 14 11 26t24 13q180 10 278 10q557 0 557 -416v-35q0 -233 -142 -335.5t-415 -102.5q-109 0 -223 8v-612q0 -15 -10 -27t-25 -12h-20q-15 0 -25 12t-10 27zM254 731q126 -8 223 -8q242 0 354.5 83t112.5 275v35q0 184 -114.5 260t-352.5 76q-135 0 -223 -6 v-715z" />
<glyph unicode="&#x421;" horiz-adv-x="1099" d="M123 625v270q0 142 28 253.5t74.5 182.5t112.5 117t136 65t151 19q169 0 354 -21q15 -2 27 -11t12 -23v-25q0 -25 -27 -25h-12q-176 19 -354 19q-89 0 -161.5 -30t-130 -93.5t-89 -172t-31.5 -255.5v-270q0 -147 31.5 -255.5t89 -172t130 -93.5t161.5 -30q187 0 354 18 h12q27 0 27 -24v-25q0 -14 -12 -23.5t-27 -11.5q-177 -20 -354 -20q-81 0 -151 19t-136 65t-112.5 117t-74.5 182.5t-28 253.5z" />
<glyph unicode="&#x422;" horiz-adv-x="1169" d="M61 1468v19q0 15 11 25t28 10h969q17 0 28 -10t11 -25v-19q0 -30 -39 -30h-438v-1399q0 -15 -10 -27t-25 -12h-21q-15 0 -24.5 11.5t-9.5 27.5v1399h-441q-39 0 -39 30z" />
<glyph unicode="&#x423;" horiz-adv-x="1132" d="M92 35v12q0 21 11 27t32 4q99 -12 127 -12q112 0 158.5 43.5t95.5 179.5l84 233h-25q-50 0 -76.5 22.5t-47.5 92.5l-328 833q-10 26 1 38t32 12h14q13 0 21 -5.5t9.5 -9t6.5 -14.5l328 -840q8 -29 19.5 -37t27.5 -8h51l328 887q9 27 40 27h19q42 0 24 -52l-444 -1198 q-61 -164 -131 -224t-209 -60q-53 0 -127 12q-26 5 -33.5 11t-7.5 26z" />
<glyph unicode="&#x424;" horiz-adv-x="1671" d="M72 856v35q0 214 140 315t396 101q39 0 110 -3.5t73 -3.5v185q0 16 9.5 27.5t24.5 11.5h21q15 0 25 -12t10 -27v-185q3 0 73 3.5t109 3.5q256 0 396 -101t140 -315v-35q0 -118 -37 -203.5t-108.5 -136.5t-167.5 -74.5t-223 -23.5q-68 0 -182 8v-387q0 -15 -10 -27 t-25 -12h-21q-15 0 -24.5 11.5t-9.5 27.5v387q-114 -8 -183 -8q-127 0 -223 23.5t-167.5 74.5t-108.5 136.5t-37 203.5zM162 856q0 -191 109 -274.5t337 -83.5q57 0 183 8v715q-88 6 -183 6q-224 0 -335 -76.5t-111 -259.5v-35zM881 506q126 -8 182 -8q228 0 337 83.5 t109 274.5v35q0 183 -111 259.5t-335 76.5q-93 0 -182 -6v-715z" />
<glyph unicode="&#x425;" horiz-adv-x="1232" d="M82 33q0 15 8 26l473 719l-450 682q-11 18 -11 31t8.5 22t22.5 9h23q18 0 32 -19l426 -647l428 647q5 6 16 12.5t17 6.5h19q32 0 32 -33q0 -18 -8 -29l-450 -684l473 -717q8 -11 8 -26q0 -33 -33 -33h-16q-7 0 -17.5 6t-15.5 12l-451 682l-450 -682q-4 -6 -15.5 -12 t-17.5 -6h-18q-33 0 -33 33z" />
<glyph unicode="&#x426;" horiz-adv-x="1325" d="M164 205v1278q0 15 10 27t25 12h20q15 0 25 -12t10 -27v-1278q0 -64 27.5 -92.5t95.5 -28.5h571q69 0 97 29t28 92v1278q0 16 9.5 27.5t25.5 11.5h20q16 0 25.5 -11.5t9.5 -27.5v-1278q0 -74 -26 -121h118q35 0 52.5 -13t17.5 -48v-256q0 -16 -9.5 -27.5t-25.5 -11.5h-18 q-16 0 -25.5 11.5t-9.5 27.5v233h-860q-34 0 -61.5 4t-57 17t-49 34.5t-32.5 60t-13 89.5z" />
<glyph unicode="&#x427;" horiz-adv-x="1157" d="M123 1081v402q0 15 10 27t25 12h20q15 0 25 -12t10 -27v-402q0 -109 23.5 -178t82 -109.5t142.5 -55.5t219 -15q97 0 223 8v752q0 15 10 27t25 12h20q15 0 25 -12t10 -27v-1444q0 -15 -10 -27t-25 -12h-20q-15 0 -25 12t-10 27v612q-114 -8 -223 -8q-147 0 -245.5 19 t-171.5 67.5t-106.5 134.5t-33.5 217z" />
<glyph unicode="&#x428;" horiz-adv-x="1798" d="M164 205v1278q0 15 10 27t25 12h20q15 0 25 -12t10 -27v-1278q0 -64 27.5 -92.5t95.5 -28.5h479v1399q0 16 9.5 27.5t25.5 11.5h18q16 0 25.5 -11.5t9.5 -27.5v-1399h479q68 0 95.5 28.5t27.5 92.5v1278q0 16 9.5 27.5t25.5 11.5h18q16 0 25.5 -11.5t9.5 -27.5v-1278 q0 -51 -12.5 -89.5t-32 -60t-48.5 -34.5t-56.5 -17t-61.5 -4h-1046q-34 0 -61.5 4t-57 17t-49 34.5t-32.5 60t-13 89.5z" />
<glyph unicode="&#x429;" horiz-adv-x="1798" d="M164 205v1278q0 15 10 27t25 12h20q15 0 25 -12t10 -27v-1278q0 -64 27.5 -92.5t95.5 -28.5h479v1399q0 16 9.5 27.5t25.5 11.5h18q16 0 25.5 -11.5t9.5 -27.5v-1399h477q69 0 97 29t28 92v1278q0 16 9.5 27.5t25.5 11.5h21q16 0 25 -11.5t9 -27.5v-1278q0 -74 -26 -121 h119q35 0 52 -13t17 -48v-256q0 -16 -9.5 -27.5t-25.5 -11.5h-18q-16 0 -25.5 11.5t-9.5 27.5v233h-1333q-34 0 -61.5 4t-57 17t-49 34.5t-32.5 60t-13 89.5z" />
<glyph unicode="&#x42a;" horiz-adv-x="1249" d="M-61 1468v19q0 15 10.5 25t27.5 10h304q34 0 34 -39v-619q130 13 256 13q70 0 132.5 -7t130 -24t121 -49t97 -78t67.5 -115.5t24 -157.5v-30q0 -104 -35.5 -183t-90.5 -125t-134 -74.5t-152.5 -38t-159.5 -9.5q-160 0 -307 16q-39 3 -39 39v1397h-248q-38 0 -38 30z M315 80q176 -12 256 -12q81 0 145.5 7.5t130 30t108.5 59.5t70.5 101t27.5 150v30q0 86 -27.5 150t-70.5 101.5t-108.5 60t-130 30t-145.5 7.5q-65 0 -256 -13v-702z" />
<glyph unicode="&#x42b;" horiz-adv-x="1613" d="M164 41v1442q0 39 35 39h20q35 0 35 -39v-619q130 13 256 13q85 0 159 -9.5t152.5 -38t133.5 -75t90.5 -125.5t35.5 -183v-30q0 -104 -35.5 -183t-90.5 -125t-133.5 -74.5t-152.5 -38t-159 -9.5q-160 0 -307 16q-39 3 -39 39zM254 80q176 -12 256 -12q81 0 145 7.5 t129.5 30t109 59.5t70.5 101t27 150v30q0 86 -27 150t-70.5 101.5t-108.5 60t-129.5 30t-145.5 7.5q-65 0 -256 -13v-702zM1360 39v1444q0 15 10 27t25 12h20q15 0 25 -12t10 -27v-1444q0 -15 -10 -27t-25 -12h-20q-15 0 -25 12t-10 27z" />
<glyph unicode="&#x42c;" d="M164 41v1442q0 39 35 39h20q35 0 35 -39v-619q130 13 256 13q85 0 159 -9.5t152.5 -38t133.5 -75t90.5 -125.5t35.5 -183v-30q0 -104 -35.5 -183t-90.5 -125t-133.5 -74.5t-152.5 -38t-159 -9.5q-160 0 -307 16q-39 3 -39 39zM254 80q176 -12 256 -12q81 0 145 7.5 t129.5 30t109 59.5t70.5 101t27 150v30q0 86 -27 150t-70.5 101.5t-108.5 60t-129.5 30t-145.5 7.5q-65 0 -256 -13v-702z" />
<glyph unicode="&#x42d;" horiz-adv-x="1114" d="M109 51v6q0 22 8.5 31t29.5 6q151 -24 279 -24q78 0 139.5 14.5t118.5 54t94.5 104t59.5 169t22 243.5v90h-622q-17 0 -28 10t-11 25v21q0 15 11 24t28 9h622v22q0 139 -22.5 243t-59.5 168t-94 103t-118.5 53.5t-139.5 14.5q-122 0 -279 -25q-21 -3 -29.5 6t-8.5 31v6 q0 21 9 29.5t29 11.5q146 25 279 25q88 0 159.5 -16t141.5 -60.5t117.5 -117t76.5 -193t29 -279.5v-201q0 -134 -19.5 -240t-56.5 -178t-83.5 -122t-108 -77.5t-123 -39.5t-133.5 -12q-139 0 -279 24q-20 3 -29 11.5t-9 29.5z" />
<glyph unicode="&#x42e;" horiz-adv-x="1783" d="M184 39v1444q0 15 10 27t25 12h21q15 0 24.5 -11.5t9.5 -27.5v-680h338v84q0 167 38.5 292.5t110 202t165.5 113.5t211 37t211 -37t165 -113.5t109.5 -202t38.5 -292.5v-254q0 -167 -38.5 -292.5t-109.5 -202t-165 -113.5t-211 -37t-211 37t-165.5 113.5t-110 202 t-38.5 292.5v86h-338v-680q0 -16 -9.5 -27.5t-24.5 -11.5h-21q-15 0 -25 12t-10 27zM702 633q0 -152 32.5 -263t92.5 -174t136.5 -92.5t173.5 -29.5q77 0 140.5 17.5t119 59t93.5 105t59.5 159t21.5 218.5v254q0 123 -21.5 218.5t-59.5 159t-93.5 105t-119 59t-140.5 17.5 q-97 0 -173.5 -29.5t-136.5 -92.5t-92.5 -174t-32.5 -263v-254z" />
<glyph unicode="&#x42f;" horiz-adv-x="1255" d="M123 31q0 11 10 28l414 637q-186 32 -276.5 128.5t-90.5 279.5v10q0 228 135.5 323t421.5 95q176 0 320 -8q13 -1 24 -13t11 -26v-1446q0 -15 -10 -27t-25 -12h-21q-15 0 -25 12t-10 27v649q-184 -2 -264 -2h-55h-33l-436 -668q-13 -18 -31 -18h-26q-16 0 -24.5 9 t-8.5 22zM270 1104q0 -98 27.5 -162.5t88 -102t144 -52.5t207.5 -15q30 0 133.5 1t130.5 1v664q-81 8 -264 8q-240 0 -353.5 -73.5t-113.5 -258.5v-10z" />
<glyph unicode="&#x430;" horiz-adv-x="999" d="M102 317v27q0 108 48.5 176t160.5 103.5t297 35.5h158v74q0 163 -55.5 230t-202.5 67q-118 0 -291 -18h-8q-39 0 -39 30v13q0 31 47 37q155 18 291 18q101 0 170.5 -27t107.5 -79.5t54 -117.5t16 -153v-692q0 -17 -12 -29t-29 -12h-10q-17 0 -29 12t-12 29v51 q-189 -104 -348 -104q-49 0 -92 9.5t-84.5 33t-71.5 60t-48 94.5t-18 132zM193 317q0 -249 223 -249q86 0 166.5 24t183.5 80v408h-158q-231 0 -323 -52.5t-92 -183.5v-27z" />
<glyph unicode="&#x431;" horiz-adv-x="1116" d="M113 477v330q0 133 24.5 226t78.5 154.5t129.5 97.5t186.5 58l134 27q96 20 137 49.5t51 69.5q7 33 39 33h22q19 0 23.5 -11t-0.5 -36q-29 -136 -250 -181l-139 -28q-158 -34 -235 -99.5t-101 -203.5q110 135 322 135q208 0 314.5 -127.5t106.5 -362.5v-131 q0 -235 -106.5 -362t-314.5 -127t-315 127t-107 362zM203 477q0 -409 332 -409q331 0 331 409v131q0 410 -331 410q-169 0 -250.5 -102t-81.5 -289v-150z" />
<glyph unicode="&#x432;" horiz-adv-x="1058" d="M143 16v1063q0 16 23 19q99 12 285 12q57 0 103 -2.5t97.5 -9.5t90.5 -19t76.5 -33t61 -49.5t38 -70t14.5 -92.5v-13q0 -80 -41 -150t-121 -100q51 -19 87.5 -49t54.5 -66t26 -69t8 -68v-14q0 -70 -23.5 -124.5t-65.5 -91t-104.5 -60t-136.5 -33.5t-165 -10 q-176 0 -281 12q-27 3 -27 18zM231 70q165 -7 220 -7q214 0 308.5 56.5t94.5 185.5v14q0 34 -7 62t-17.5 48.5t-29.5 36.5t-35.5 26t-44 17.5t-46 11t-51 5.5t-49.5 2h-50h-293v-458zM231 610h293q40 0 64.5 0.5t62.5 5t61.5 12.5t51 23.5t43.5 37.5t26.5 55.5t10.5 76.5v13 q0 50 -19.5 86t-51.5 57t-85 33t-107 16t-130 4q-67 0 -220 -6v-414z" />
<glyph unicode="&#x433;" horiz-adv-x="759" d="M143 39v856q0 51 13 89.5t32.5 60t49 34.5t57 17t61.5 4h273q39 0 39 -35v-14q0 -35 -39 -35h-273q-68 0 -95.5 -28.5t-27.5 -92.5v-856q0 -16 -9.5 -27.5t-24.5 -11.5h-21q-15 0 -25 12t-10 27z" />
<glyph unicode="&#x434;" horiz-adv-x="1193" d="M72 41q0 17 12 29t29 12h63l287 944q14 47 48.5 73.5t84.5 26.5q49 0 83 -26t48 -72l287 -946h67q17 0 29 -12t12 -29v-279q0 -17 -12 -29t-29 -12h-8q-17 0 -29 12t-12 29v238h-870v-238q0 -17 -12 -29t-29 -12h-8q-17 0 -29 12t-12 29v279zM272 82h648l-277 922 q-12 40 -47 40q-22 0 -32 -9.5t-15 -28.5z" />
<glyph unicode="&#x435;" horiz-adv-x="1046" d="M113 485v136q0 219 108 354t305 135q205 0 306.5 -130t101.5 -357v-56q0 -17 -11.5 -28t-27.5 -11h-692v-43q0 -100 19.5 -175t51.5 -120.5t81 -73.5t100.5 -38t117.5 -10q134 0 304 34q2 0 6 1t6 1q31 0 31 -28v-15q0 -17 -8 -25.5t-31 -12.5q-171 -35 -308 -35 q-80 0 -146 14t-125.5 49.5t-100 91t-64.5 142.5t-24 200zM203 610h641v13q0 201 -75 304t-243 103q-164 0 -243.5 -109t-79.5 -300v-11z" />
<glyph unicode="&#x436;" horiz-adv-x="1441" d="M80 20q0 14 14 31l504 533l-502 458q-14 11 -14 31q0 14 11.5 25.5t29.5 11.5q28 0 49 -18l504 -471v440q0 15 12 27t27 12h12q15 0 27 -12t12 -27v-440l504 471q21 18 49 18q18 0 29.5 -11.5t11.5 -25.5q0 -20 -14 -31l-502 -458l504 -533q14 -18 14 -31 q0 -14 -10.5 -23t-28.5 -9q-37 0 -61 24l-496 531v-504q0 -15 -12 -27t-27 -12h-12q-15 0 -27 12t-12 27v504l-496 -531q-24 -24 -61 -24q-18 0 -28.5 9t-10.5 23z" />
<glyph unicode="&#x437;" horiz-adv-x="1036" d="M174 43v10q0 9 2 15t10.5 10t24.5 2q171 -21 278 -21h3q173 0 248 55t75 187v16q0 106 -58.5 164t-195.5 58h-338q-39 0 -39 32v7q0 16 11.5 25t27.5 9h338q74 0 125.5 17.5t78.5 49.5t38.5 68.5t11.5 83.5v15q0 116 -72 159.5t-254 43.5q-107 0 -278 -21 q-22 -3 -29.5 4.5t-7.5 22.5v10q0 18 7 25.5t34 11.5q142 20 277 20q99 0 170.5 -13t128 -43.5t84.5 -85t28 -134.5v-15q0 -81 -36.5 -148t-112.5 -108q60 -31 96 -82.5t45.5 -92.5t9.5 -83v-16q0 -163 -105 -239t-308 -76q-134 0 -277 20q-27 4 -34 11.5t-7 25.5z" />
<glyph unicode="&#x438;" horiz-adv-x="1067" d="M143 115v946q0 39 41 39h9q40 0 40 -39v-946q0 -9 3 -12.5t8 -0.5t10 13l485 909q26 46 46 61t53 15q86 0 86 -123v-938q0 -19 -11.5 -29t-27.5 -10h-13q-16 0 -27 10t-11 29v938q0 8 -3 11t-8 0.5t-10 -11.5l-483 -909q-39 -70 -101 -70q-44 0 -65 27t-21 90z" />
<glyph unicode="&#x439;" horiz-adv-x="1067" d="M143 115q0 -63 21 -90t65 -27q62 0 101 70l483 909q5 9 10 11.5t8 -0.5t3 -11v-938q0 -19 11 -29t27 -10h13q16 0 27.5 10t11.5 29v938q0 123 -86 123q-33 0 -53 -15t-46 -61l-485 -909q-5 -10 -10 -13t-8 0.5t-3 12.5v946q0 39 -40 39h-9q-41 0 -41 -39v-946zM233 1559 q0 18 5.5 26t19.5 8h41q15 0 19 -6t4 -28q0 -50 14.5 -88.5t36.5 -60.5t51 -36t53.5 -19t48.5 -5t48.5 5t53.5 19t51 36t37 60.5t15 88.5q0 22 4 28t19 6h41q14 0 19 -8t5 -26q0 -126 -84.5 -209.5t-208.5 -83.5t-208.5 83.5t-84.5 209.5z" />
<glyph unicode="&#x43a;" horiz-adv-x="909" d="M143 39v1022q0 15 12 27t27 12h13q15 0 26.5 -12t11.5 -27v-440l504 471q21 18 49 18q18 0 29.5 -11.5t11.5 -25.5q0 -20 -14 -31l-502 -458l504 -533q14 -18 14 -31q0 -14 -10 -23t-28 -9q-38 0 -62 24l-496 531v-504q0 -15 -11.5 -27t-26.5 -12h-13q-15 0 -27 12 t-12 27z" />
<glyph unicode="&#x43b;" horiz-adv-x="1024" d="M80 33q0 12 2 18l297 975q14 47 48.5 73.5t84.5 26.5q49 0 83 -26t48 -72l297 -977q4 -12 4 -20q0 -31 -33 -31h-24q-25 0 -33 27l-295 977q-12 40 -47 40q-22 0 -32 -9.5t-15 -28.5l-295 -979q-3 -10 -13 -18.5t-20 -8.5h-26q-14 0 -22.5 9.5t-8.5 23.5z" />
<glyph unicode="&#x43c;" horiz-adv-x="1290" d="M143 25v979q0 110 103 110q66 0 104 -65l262 -455q17 -27 33 -27t33 27l262 455q38 65 104 65q103 0 103 -110v-979q0 -15 -12 -27t-27 -12h-12q-15 0 -27 12t-12 27v979q0 15 -3 21.5t-14 6.5q-14 0 -28 -26l-264 -459q-16 -29 -36 -45t-34 -19.5t-33 -3.5t-33 3.5 t-33.5 19.5t-35.5 45l-264 459q-14 26 -29 26q-11 0 -14 -6.5t-3 -21.5v-979q0 -15 -11.5 -27t-26.5 -12h-13q-15 0 -27 12t-12 27z" />
<glyph unicode="&#x43d;" horiz-adv-x="1067" d="M143 39v1022q0 15 12 27t27 12h13q15 0 26.5 -12t11.5 -27v-432h601v432q0 15 11.5 27t26.5 12h13q15 0 27 -12t12 -27v-1022q0 -15 -12 -27t-27 -12h-13q-15 0 -26.5 12t-11.5 27v506h-601v-506q0 -15 -11.5 -27t-26.5 -12h-13q-15 0 -27 12t-12 27z" />
<glyph unicode="&#x43e;" horiz-adv-x="1069" d="M113 477v144q0 235 107 362t315 127t314.5 -127t106.5 -362v-144q0 -235 -106.5 -362t-314.5 -127t-315 127t-107 362zM203 477q0 -409 332 -409q331 0 331 409v144q0 409 -331 409q-332 0 -332 -409v-144z" />
<glyph unicode="&#x43f;" horiz-adv-x="1067" d="M143 39v856q0 51 13 89.5t32.5 60t49 34.5t57 17t61.5 4h351q34 0 62 -4t58 -17t50.5 -34.5t33.5 -60t13 -89.5v-856q0 -16 -9.5 -27.5t-25.5 -11.5h-21q-16 0 -25 11.5t-9 27.5v856q0 63 -28 92t-97 29h-353q-68 0 -95.5 -28.5t-27.5 -92.5v-856q0 -16 -9.5 -27.5 t-24.5 -11.5h-21q-15 0 -25 12t-10 27z" />
<glyph unicode="&#x440;" horiz-adv-x="1032" d="M143 -360v1392q0 19 6 27t25 12q195 39 344 39q204 0 303 -133t99 -365v-135q0 -243 -101 -366t-301 -123q-148 0 -285 30v-378q0 -16 -9.5 -27.5t-24.5 -11.5h-21q-15 0 -25 12t-10 27zM233 94q127 -26 285 -26q165 0 238 100.5t73 308.5v135q0 207 -72.5 312.5 t-238.5 105.5q-125 0 -285 -26v-910z" />
<glyph unicode="&#x441;" horiz-adv-x="894" d="M113 483v138q0 105 22.5 191.5t69.5 154.5t126.5 105.5t186.5 37.5q93 0 248 -18q23 -3 31 -11t8 -26v-15q0 -28 -33 -28h-10q-144 18 -244 18q-167 0 -241 -106t-74 -303v-138q0 -415 315 -415q100 0 244 18h10q33 0 33 -29v-14q0 -18 -8 -26t-31 -11q-155 -18 -248 -18 q-106 0 -186 39t-127 108.5t-69.5 156.5t-22.5 191z" />
<glyph unicode="&#x442;" horiz-adv-x="999" d="M82 1047v18q0 15 11 25t28 10h758q17 0 28 -10t11 -25v-18q0 -31 -39 -31h-334v-977q0 -15 -12 -27t-27 -12h-12q-15 0 -27 12t-12 27v977h-334q-39 0 -39 31z" />
<glyph unicode="&#x443;" horiz-adv-x="995" d="M78 -336q0 29 31 29h12q93 -12 133 -12q110 0 158.5 44.5t85.5 178.5l26 96h-28q-50 0 -77 22.5t-48 92.5l-277 936q-2 4 -2 14q0 16 9 25.5t26 9.5h18q10 0 20 -9t13 -20l277 -942q8 -29 19.5 -37t27.5 -8h47l280 989q3 11 14 19t23 8h19q30 0 30 -35q0 -10 -2 -16 l-335 -1164q-47 -164 -118 -224t-214 -60q-53 0 -127 12q-41 7 -41 29v22z" />
<glyph unicode="&#x444;" horiz-adv-x="1589" d="M113 477v135q0 116 19 203t63.5 155.5t124.5 104t194 35.5q93 0 236 -27v400q0 16 9.5 27.5t24.5 11.5h21q15 0 25 -12t10 -27v-400q143 27 235 27q114 0 194 -35.5t124.5 -104t64 -155.5t19.5 -203v-135q0 -250 -93 -369.5t-309 -119.5q-98 0 -235 30v-378 q0 -15 -10 -27t-25 -12h-21q-15 0 -24.5 11.5t-9.5 27.5v378q-137 -30 -236 -30q-216 0 -308.5 119.5t-92.5 369.5zM203 477q0 -214 67 -311.5t244 -97.5q109 0 236 26v910q-9 2 -41.5 7.5t-47 7.5t-41.5 5t-52.5 4.5t-53.5 1.5q-77 0 -132 -19t-89.5 -51.5t-54.5 -87 t-27.5 -115t-7.5 -145.5v-135zM840 94q127 -26 235 -26q177 0 244 97.5t67 311.5v135q0 85 -7.5 145.5t-27.5 115t-54.5 87t-89.5 51.5t-132 19q-28 0 -53.5 -1.5t-52 -4.5t-41.5 -5.5t-46.5 -7.5t-41.5 -7v-910z" />
<glyph unicode="&#x445;" horiz-adv-x="1009" d="M88 25q0 15 10 28l361 510l-348 488q-9 13 -9 22q0 11 9.5 19t27.5 8h13q27 0 38 -17l324 -450l313 446q14 21 39 21h19q30 0 30 -25q0 -14 -14 -35l-338 -481l363 -508q6 -9 6 -22q0 -12 -7.5 -20.5t-21.5 -8.5h-16q-28 0 -39 16l-340 476l-334 -476q-12 -16 -22 -16 h-35q-29 0 -29 25z" />
<glyph unicode="&#x446;" horiz-adv-x="1067" d="M143 205v856q0 15 10 27t25 12h21q15 0 24.5 -11.5t9.5 -27.5v-856q0 -64 27.5 -92.5t95.5 -28.5h353q69 0 97 29t28 92v856q0 16 9 27.5t25 11.5h21q16 0 25.5 -11.5t9.5 -27.5v-856q0 -72 -27 -121h121q35 0 52 -13t17 -48v-256q0 -16 -9 -27.5t-25 -11.5h-19 q-16 0 -25.5 11.5t-9.5 27.5v233h-643q-34 0 -61.5 4t-57 17t-49 34.5t-32.5 60t-13 89.5z" />
<glyph unicode="&#x447;" horiz-adv-x="1024" d="M143 793v268q0 16 9.5 27.5t25.5 11.5h21q14 0 23 -11.5t9 -27.5v-268q0 -156 72 -235t232 -79q151 0 276 37v545q0 15 10 27t25 12h20q15 0 25 -12t10 -27v-1034q0 -15 -10 -27t-25 -12h-20q-15 0 -25 12t-10 27v409q-148 -37 -276 -37q-104 0 -181 29t-122.5 82.5 t-67 124t-21.5 158.5z" />
<glyph unicode="&#x448;" horiz-adv-x="1593" d="M143 205v856q0 15 10 27t25 12h21q15 0 24.5 -11.5t9.5 -27.5v-856q0 -64 27.5 -92.5t95.5 -28.5h396v977q0 15 12 27t27 12h12q15 0 27 -12t12 -27v-977h393q69 0 97 29t28 92v856q0 16 9.5 27.5t25.5 11.5h20q16 0 25.5 -11.5t9.5 -27.5v-856q0 -51 -13 -89.5 t-33.5 -60t-50.5 -34.5t-58 -17t-62 -4h-877q-34 0 -61.5 4t-57 17t-49 34.5t-32.5 60t-13 89.5z" />
<glyph unicode="&#x449;" horiz-adv-x="1656" d="M143 205v856q0 15 10 27t25 12h21q15 0 24.5 -11.5t9.5 -27.5v-856q0 -64 27.5 -92.5t95.5 -28.5h396v977q0 15 12 27t27 12h12q15 0 27 -12t12 -27v-977h393q69 0 97 29t28 92v856q0 16 9.5 27.5t25.5 11.5h20q16 0 25.5 -11.5t9.5 -27.5v-856q0 -72 -27 -121h121 q35 0 52.5 -13t17.5 -48v-256q0 -16 -9.5 -27.5t-25.5 -11.5h-18q-16 0 -25.5 11.5t-9.5 27.5v233h-1170q-34 0 -61.5 4t-57 17t-49 34.5t-32.5 60t-13 89.5z" />
<glyph unicode="&#x44a;" horiz-adv-x="1198" d="M61 1051v14q0 35 39 35h256q35 0 35 -39v-377q108 6 219 6q115 0 202.5 -17t155 -55t103 -104t35.5 -158v-37q0 -179 -129.5 -256t-366.5 -77q-175 0 -280 12q-27 3 -27 18v1004h-203q-39 0 -39 31zM391 70q164 -7 219 -7q215 0 309.5 59t94.5 197v37q0 138 -94.5 197 t-309.5 59q-78 0 -219 -6v-536z" />
<glyph unicode="&#x44b;" horiz-adv-x="1406" d="M143 16v1045q0 39 35 39h19q34 0 34 -39v-377q108 6 220 6q115 0 202.5 -17t155 -55t102.5 -104t35 -158v-37q0 -179 -129 -256t-366 -77q-176 0 -281 12q-27 3 -27 18zM231 70q165 -7 220 -7q215 0 309 58.5t94 197.5v37q0 139 -94 197.5t-309 58.5q-79 0 -220 -6v-536z M1204 39v1022q0 15 10 27t25 12h21q15 0 24.5 -11.5t9.5 -27.5v-1022q0 -16 -9.5 -27.5t-24.5 -11.5h-21q-15 0 -25 12t-10 27z" />
<glyph unicode="&#x44c;" horiz-adv-x="1058" d="M143 16v1045q0 39 35 39h19q34 0 34 -39v-377q108 6 220 6q115 0 202.5 -17t155 -55t102.5 -104t35 -158v-37q0 -179 -129 -256t-366 -77q-176 0 -281 12q-27 3 -27 18zM231 70q165 -7 220 -7q215 0 309 58.5t94 197.5v37q0 139 -94 197.5t-309 58.5q-79 0 -220 -6v-536z " />
<glyph unicode="&#x44d;" horiz-adv-x="894" d="M90 43v14q0 29 33 29h10q144 -18 244 -18q315 0 315 415v43h-477q-17 0 -28 9t-11 24v19q0 15 11 23.5t28 8.5h477v11q0 197 -74 303t-241 106q-100 0 -244 -18h-10q-33 0 -33 28v15q0 18 8 26t31 11q111 18 248 18q107 0 186.5 -37.5t126.5 -105.5t69.5 -154.5 t22.5 -191.5v-138q0 -104 -22.5 -191t-69.5 -156.5t-127 -108.5t-186 -39q-110 0 -248 18q-23 3 -31 11t-8 26z" />
<glyph unicode="&#x44e;" horiz-adv-x="1574" d="M164 39v1022q0 15 12 27t27 12h12q15 0 27 -12t12 -27v-449h364v9q0 235 107 362t315 127t315 -127t107 -362v-144q0 -235 -107 -362t-315 -127t-315 127t-107 362v45h-364v-483q0 -15 -12 -27t-27 -12h-12q-15 0 -27 12t-12 27zM709 477q0 -409 331 -409q332 0 332 409 v144q0 409 -332 409q-331 0 -331 -409v-144z" />
<glyph unicode="&#x44f;" horiz-adv-x="1048" d="M137 61l258 447q-254 61 -254 285v8q0 88 40 151t111.5 96t152 47.5t178.5 14.5q165 0 264 -12q22 -3 22 -19v-1040q0 -15 -10 -27t-25 -12h-20q-15 0 -25 12t-10 27l2 450q-88 -6 -198 -6q-69 0 -136 6l-262 -450q-15 -26 -24.5 -32.5t-30.5 -6.5h-14q-55 0 -19 61z M229 793q0 -230 394 -230q45 0 198 6v455q-153 6 -198 6q-394 0 -394 -229v-8z" />
<glyph unicode="&#x451;" horiz-adv-x="1046" d="M113 485v136q0 219 108 354t305 135q205 0 306.5 -130t101.5 -357v-56q0 -17 -11.5 -28t-27.5 -11h-692v-43q0 -100 19.5 -175t51.5 -120.5t81 -73.5t100.5 -38t117.5 -10q134 0 304 34q2 0 6 1t6 1q31 0 31 -28v-15q0 -17 -8 -25.5t-31 -12.5q-171 -35 -308 -35 q-80 0 -146 14t-125.5 49.5t-100 91t-64.5 142.5t-24 200zM203 610h641v13q0 201 -75 304t-243 103q-164 0 -243.5 -109t-79.5 -300v-11zM346 1354v151q0 15 12 27t27 12h12q15 0 27 -12t12 -27v-151q0 -17 -11.5 -28t-27.5 -11h-12q-16 0 -27.5 11t-11.5 28zM653 1354v151 q0 15 12 27t27 12h13q15 0 26.5 -12t11.5 -27v-151q0 -17 -11.5 -28t-26.5 -11h-13q-16 0 -27.5 11t-11.5 28z" />
<glyph unicode="&#x452;" horiz-adv-x="1034" d="M-35 1329v10q0 35 39 35h139v109q0 15 10 27t25 12h21q15 0 24.5 -11.5t9.5 -27.5v-109h361q39 0 39 -35v-10q0 -35 -39 -35h-361v-221q148 37 277 37q104 0 181 -29t122 -82.5t66.5 -123t21.5 -158.5v-893q0 -126 -51 -174.5t-160 -48.5q-40 0 -86 6q-21 3 -28 9t-7 19 v19q0 24 43 24h78q70 0 96.5 28.5t26.5 117.5v893q0 156 -71.5 234.5t-231.5 78.5q-152 0 -277 -37v-954q0 -16 -9.5 -27.5t-24.5 -11.5h-21q-15 0 -25 12t-10 27v1255h-139q-39 0 -39 35z" />
<glyph unicode="&#x453;" horiz-adv-x="759" d="M143 39v856q0 51 13 89.5t32.5 60t49 34.5t57 17t61.5 4h273q39 0 39 -35v-14q0 -35 -39 -35h-273q-68 0 -95.5 -28.5t-27.5 -92.5v-856q0 -16 -9.5 -27.5t-24.5 -11.5h-21q-15 0 -25 12t-10 27zM344 1280q0 12 8 20l205 263q23 30 47 30h53q23 0 23 -14q0 -8 -8 -16 l-219 -263q-1 -2 -4 -5q-19 -25 -31 -28q-5 -1 -10 -1h-46q-18 0 -18 14z" />
<glyph unicode="&#x454;" horiz-adv-x="894" d="M113 483v138q0 105 22.5 191.5t69.5 154.5t126.5 105.5t186.5 37.5q137 0 248 -18q23 -3 31 -11t8 -26v-15q0 -28 -33 -28h-10q-144 18 -244 18q-167 0 -241 -106t-74 -303v-11h477q18 0 28.5 -8.5t10.5 -23.5v-19q0 -15 -11 -24t-28 -9h-477v-43q0 -415 315 -415 q100 0 244 18h10q33 0 33 -29v-14q0 -18 -8 -26t-31 -11q-138 -18 -248 -18q-106 0 -186 39t-127 108.5t-69.5 156.5t-22.5 191z" />
<glyph unicode="&#x455;" horiz-adv-x="901" d="M102 49v23q0 28 33 28h12q196 -32 302 -32q59 0 103 9t81 30.5t56.5 63t19.5 101.5q0 63 -44 108t-173 116l-132 71q-65 35 -105 62t-75 62t-51 75.5t-16 91.5q0 55 17 99t46 72t70 46.5t85 26.5t95 8q136 0 293 -18q43 -6 43 -35v-17q0 -32 -37 -32h-6q-194 22 -285 22 q-112 0 -171.5 -36t-59.5 -136q0 -63 46.5 -108.5t151.5 -104.5l138 -76q141 -78 200.5 -140t59.5 -157q0 -79 -28 -136t-79 -88.5t-112 -45.5t-136 -14q-149 0 -297 28q-45 9 -45 33z" />
<glyph unicode="&#x456;" horiz-adv-x="417" d="M164 39v1022q0 15 12 27t27 12h12q15 0 27 -12t12 -27v-1022q0 -15 -12 -27t-27 -12h-12q-15 0 -27 12t-12 27zM164 1341v152q0 15 12 27t27 12h12q15 0 27 -12t12 -27v-152q0 -17 -11.5 -27.5t-27.5 -10.5h-12q-16 0 -27.5 10.5t-11.5 27.5z" />
<glyph unicode="&#x457;" horiz-adv-x="417" d="M10 1354v151q0 15 12 27t27 12h12q15 0 27 -12t12 -27v-151q0 -17 -11.5 -28t-27.5 -11h-12q-16 0 -27.5 11t-11.5 28zM164 39v1022q0 15 12 27t27 12h12q15 0 27 -12t12 -27v-1022q0 -15 -12 -27t-27 -12h-12q-15 0 -27 12t-12 27zM317 1354v151q0 15 12 27t27 12h13 q15 0 27 -12t12 -27v-151q0 -17 -11.5 -28t-27.5 -11h-13q-16 0 -27.5 11t-11.5 28z" />
<glyph unicode="&#x458;" horiz-adv-x="417" d="M-78 -346q0 24 43 24h78q70 0 95.5 28.5t25.5 117.5v1237q0 16 9.5 27.5t23.5 11.5h22q16 0 25.5 -11.5t9.5 -27.5v-1237q0 -126 -51 -174.5t-160 -48.5q-39 0 -86 6q-21 3 -28 9t-7 19v19zM164 1341v152q0 15 12 27t27 12h12q15 0 27 -12t12 -27v-152q0 -17 -11.5 -27.5 t-27.5 -10.5h-12q-16 0 -27.5 10.5t-11.5 27.5z" />
<glyph unicode="&#x459;" horiz-adv-x="1652" d="M82 33q0 12 2 18l291 948q14 47 48.5 74t84.5 27h319q17 0 27 -11.5t10 -29.5v-375q105 6 211 6q115 0 202.5 -17t155 -55t103 -104t35.5 -158v-37q0 -179 -129.5 -256t-366.5 -77q-133 0 -262 14q-15 0 -27 12t-12 27v977h-266q-22 0 -32 -9t-15 -28l-289 -952 q-3 -10 -13 -18.5t-20 -8.5h-26q-14 0 -22.5 9.5t-8.5 23.5zM864 68q113 -5 211 -5q215 0 309.5 59t94.5 197v37q0 138 -94.5 197t-309.5 59q-76 0 -211 -6v-538z" />
<glyph unicode="&#x45a;" horiz-adv-x="1718" d="M143 39v1057q0 15 12 27t27 12h13q15 0 26.5 -12t11.5 -27v-467h601v458q0 39 34 39h19q35 0 35 -39v-403q108 6 219 6q115 0 202.5 -17t155 -55t102.5 -104t35 -158v-37q0 -179 -129 -256t-366 -77q-176 0 -281 12q-26 3 -26 18v529h-601v-506q0 -15 -11.5 -27 t-26.5 -12h-13q-15 0 -27 12t-12 27zM922 70q164 -7 219 -7q215 0 309 58.5t94 197.5v37q0 139 -94 197.5t-309 58.5q-78 0 -219 -6v-536z" />
<glyph unicode="&#x45b;" horiz-adv-x="1034" d="M-35 1325v14q0 15 11 25t28 10h139v109q0 15 10 27t25 12h21q15 0 24.5 -11.5t9.5 -27.5v-109h361q17 0 28 -10t11 -25v-14q0 -31 -39 -31h-361v-221q148 37 277 37q104 0 181 -29t122 -82.5t66.5 -123t21.5 -158.5l2 -678q0 -15 -10 -27t-25 -12h-20q-15 0 -25 12 t-10 27v678q0 156 -71.5 234.5t-231.5 78.5q-152 0 -277 -37v-954q0 -16 -9.5 -27.5t-24.5 -11.5h-21q-15 0 -25 12t-10 27v1255h-139q-39 0 -39 31z" />
<glyph unicode="&#x45c;" horiz-adv-x="909" d="M143 39v1022q0 15 12 27t27 12h13q15 0 26.5 -12t11.5 -27v-440l504 471q21 18 49 18q18 0 29.5 -11.5t11.5 -25.5q0 -20 -14 -31l-502 -458l504 -533q14 -18 14 -31q0 -14 -10 -23t-28 -9q-38 0 -62 24l-496 531v-504q0 -15 -11.5 -27t-26.5 -12h-13q-15 0 -27 12 t-12 27zM412 1280q0 12 8 20l205 263q23 30 47 30h53q23 0 23 -14q0 -7 -9 -16l-219 -263q-1 -2 -4 -5q-19 -25 -31 -28q-5 -1 -10 -1h-45q-18 0 -18 14z" />
<glyph unicode="&#x45e;" horiz-adv-x="995" d="M78 -336q0 29 31 29h12q93 -12 133 -12q110 0 158.5 44.5t85.5 178.5l26 96h-28q-50 0 -77 22.5t-48 92.5l-277 936q-2 4 -2 14q0 16 9 25.5t26 9.5h18q10 0 20 -9t13 -20l277 -942q8 -29 19.5 -37t27.5 -8h47l280 989q3 11 14 19t23 8h19q30 0 30 -35q0 -10 -2 -16 l-335 -1164q-47 -164 -118 -224t-214 -60q-53 0 -127 12q-41 7 -41 29v22zM221 1559q0 18 5.5 26t19.5 8h41q15 0 18.5 -6t3.5 -28q0 -50 15 -88.5t37 -60.5t51 -36t53.5 -19t48.5 -5t48.5 5t53.5 19t51 36t37 60.5t15 88.5q0 22 3.5 28t18.5 6h41q14 0 19.5 -8t5.5 -26 q0 -126 -84.5 -209.5t-208.5 -83.5t-208.5 83.5t-84.5 209.5z" />
<glyph unicode="&#x45f;" horiz-adv-x="1067" d="M143 205v856q0 15 10 27t25 12h21q15 0 24.5 -11.5t9.5 -27.5v-856q0 -64 27.5 -92.5t95.5 -28.5h353q69 0 97 29t28 92v856q0 16 9 27.5t25 11.5h21q16 0 25.5 -11.5t9.5 -27.5v-856q0 -51 -13 -89.5t-33.5 -60t-50.5 -34.5t-58 -17t-62 -4h-129v-184q0 -16 -10 -27.5 t-29 -11.5h-13q-19 0 -29 11.5t-10 27.5v184h-131q-34 0 -61.5 4t-57 17t-49 34.5t-32.5 60t-13 89.5z" />
<glyph unicode="&#x490;" horiz-adv-x="1060" d="M164 39v1253q0 124 62.5 177t185.5 53h477v157q0 39 35 39h20q35 0 35 -39v-209q0 -15 -10.5 -23.5t-28.5 -8.5h-528q-82 0 -120 -28.5t-38 -117.5v-1253q0 -15 -10 -27t-25 -12h-20q-15 0 -25 12t-10 27z" />
<glyph unicode="&#x491;" horiz-adv-x="759" d="M143 39v856q0 51 13 89.5t32.5 60t49 34.5t57 17t61.5 4h222v143q0 15 11.5 27t26.5 12h13q15 0 27 -12t12 -27v-192q0 -35 -39 -35h-273q-68 0 -95.5 -28.5t-27.5 -92.5v-856q0 -16 -9.5 -27.5t-24.5 -11.5h-21q-15 0 -25 12t-10 27z" />
<glyph unicode="&#x2000;" horiz-adv-x="1003" />
<glyph unicode="&#x2001;" horiz-adv-x="2007" />
<glyph unicode="&#x2002;" horiz-adv-x="1003" />
<glyph unicode="&#x2003;" horiz-adv-x="2007" />
<glyph unicode="&#x2004;" horiz-adv-x="669" />
<glyph unicode="&#x2005;" horiz-adv-x="501" />
<glyph unicode="&#x2006;" horiz-adv-x="334" />
<glyph unicode="&#x2007;" horiz-adv-x="334" />
<glyph unicode="&#x2008;" horiz-adv-x="250" />
<glyph unicode="&#x2009;" horiz-adv-x="401" />
<glyph unicode="&#x200a;" horiz-adv-x="111" />
<glyph unicode="&#x2010;" horiz-adv-x="704" d="M106 559v16q0 15 11 26t28 11h414q17 0 28 -11t11 -26v-16q0 -15 -11 -24t-28 -9h-414q-17 0 -28 9t-11 24z" />
<glyph unicode="&#x2011;" horiz-adv-x="704" d="M106 559v16q0 15 11 26t28 11h414q17 0 28 -11t11 -26v-16q0 -15 -11 -24t-28 -9h-414q-17 0 -28 9t-11 24z" />
<glyph unicode="&#x2012;" horiz-adv-x="704" d="M106 559v16q0 15 11 26t28 11h414q17 0 28 -11t11 -26v-16q0 -15 -11 -24t-28 -9h-414q-17 0 -28 9t-11 24z" />
<glyph unicode="&#x2013;" horiz-adv-x="737" d="M-31 559v16q0 15 11 26t28 11h721q17 0 28 -11t11 -26v-16q0 -15 -11 -24t-28 -9h-721q-17 0 -28 9t-11 24z" />
<glyph unicode="&#x2014;" horiz-adv-x="1439" d="M-31 559v16q0 15 11 26t28 11h1424q17 0 27.5 -11t10.5 -26v-16q0 -15 -10.5 -24t-27.5 -9h-1424q-17 0 -28 9t-11 24z" />
<glyph unicode="&#x2018;" horiz-adv-x="348" d="M80 1112q0 10 2 16l98 353q6 21 15 30t24 9h31q18 0 18 -21q0 -12 -2 -18l-84 -353q-8 -38 -41 -38h-39q-22 0 -22 22z" />
<glyph unicode="&#x2019;" horiz-adv-x="348" d="M80 1112q0 12 2 18l84 353q8 39 41 39h39q22 0 22 -23q0 -10 -2 -16l-98 -353q-10 -38 -39 -38h-31q-18 0 -18 20z" />
<glyph unicode="&#x201a;" horiz-adv-x="348" d="M80 -193q0 13 2 19l84 352q8 39 41 39h39q22 0 22 -22q0 -11 -2 -17l-98 -352q-6 -21 -15 -30t-24 -9h-31q-18 0 -18 20z" />
<glyph unicode="&#x201c;" horiz-adv-x="604" d="M80 1114q0 10 2 16l98 353q6 21 15 30t24 9h31q18 0 18 -21q0 -12 -2 -18l-84 -353q-8 -38 -41 -38h-39q-22 0 -22 22zM336 1114q0 10 2 16l98 353q6 21 15 30t24 9h31q18 0 18 -21q0 -12 -2 -18l-84 -353q-8 -38 -41 -38h-39q-22 0 -22 22z" />
<glyph unicode="&#x201d;" horiz-adv-x="604" d="M80 1112q0 12 2 18l84 353q8 39 41 39h39q22 0 22 -23q0 -10 -2 -16l-98 -353q-10 -38 -39 -38h-31q-18 0 -18 20zM336 1112q0 12 2 18l84 353q8 39 41 39h39q22 0 22 -23q0 -10 -2 -16l-98 -353q-10 -38 -39 -38h-31q-18 0 -18 20z" />
<glyph unicode="&#x201e;" horiz-adv-x="604" d="M80 -193q0 13 2 19l84 352q8 39 41 39h39q22 0 22 -22q0 -11 -2 -17l-98 -352q-6 -21 -15 -30t-24 -9h-31q-18 0 -18 20zM336 -193q0 13 2 19l84 352q8 39 41 39h39q22 0 22 -22q0 -11 -2 -17l-98 -352q-6 -21 -15 -30t-24 -9h-31q-18 0 -18 20z" />
<glyph unicode="&#x2020;" horiz-adv-x="778" d="M82 1049v20q0 31 39 31h203v383q0 16 9 27.5t25 11.5h23q14 0 23.5 -11.5t9.5 -27.5v-383h243q39 0 39 -31v-20q0 -15 -11 -24t-28 -9h-243v-987q0 -41 -33 -41h-25q-32 0 -32 41v987h-203q-17 0 -28 9t-11 24z" />
<glyph unicode="&#x2021;" horiz-adv-x="778" d="M82 618v21q0 31 39 31h203v346h-203q-17 0 -28 9t-11 24v20q0 31 39 31h203v420q0 16 9 27.5t25 11.5h23q14 0 23.5 -11.5t9.5 -27.5v-420h243q39 0 39 -31v-20q0 -15 -11 -24t-28 -9h-243v-346h243q39 0 39 -31v-21q0 -15 -11 -23.5t-28 -8.5h-243v-557q0 -41 -33 -41 h-25q-32 0 -32 41v557h-203q-18 0 -28.5 8.5t-10.5 23.5z" />
<glyph unicode="&#x2022;" horiz-adv-x="856" d="M113 752q0 130 92.5 222.5t222.5 92.5t222.5 -92.5t92.5 -222.5q0 -131 -92.5 -223.5t-222.5 -92.5t-222.5 92.5t-92.5 223.5z" />
<glyph unicode="&#x2026;" horiz-adv-x="1040" d="M127 27v151q0 15 12 27t27 12h12q15 0 27 -12t12 -27v-151q0 -17 -11.5 -28t-27.5 -11h-12q-16 0 -27.5 11t-11.5 28zM475 27v151q0 15 12 27t27 12h12q15 0 27 -12t12 -27v-151q0 -17 -11.5 -28t-27.5 -11h-12q-16 0 -27.5 11t-11.5 28zM823 27v151q0 15 12 27t27 12h12 q15 0 27 -12t12 -27v-151q0 -17 -11.5 -28t-27.5 -11h-12q-16 0 -27.5 11t-11.5 28z" />
<glyph unicode="&#x202f;" horiz-adv-x="401" />
<glyph unicode="&#x2030;" horiz-adv-x="2226" d="M123 1001v213q0 158 68.5 238t191.5 80t190.5 -80t67.5 -238v-213q0 -158 -67.5 -238.5t-190.5 -80.5t-191.5 80.5t-68.5 238.5zM203 1001q0 -239 180 -239q178 0 178 239v213q0 240 -178 240q-180 0 -180 -240v-213zM279 -2q0 11 12 29l860 1456q13 23 21 31t22 8h53 q17 0 17 -11q0 -9 -13 -28l-860 -1456q-13 -23 -21 -31t-22 -8h-55q-14 0 -14 10zM909 307v213q0 158 68.5 238t191.5 80t190.5 -80t67.5 -238v-213q0 -158 -67.5 -238.5t-190.5 -80.5t-191.5 80.5t-68.5 238.5zM989 307q0 -239 180 -239q179 0 179 239v213q0 240 -179 240 q-180 0 -180 -240v-213zM1585 307v213q0 158 68.5 238t191.5 80t190.5 -80t67.5 -238v-213q0 -158 -67.5 -238.5t-190.5 -80.5t-191.5 80.5t-68.5 238.5zM1665 307q0 -239 180 -239q178 0 178 239v213q0 240 -178 240q-180 0 -180 -240v-213z" />
<glyph unicode="&#x2039;" horiz-adv-x="624" d="M45 551q0 30 29 59l364 334q18 14 33 14q13 0 21 -8l14 -14q10 -10 10 -23q0 -17 -16 -30l-363 -332l363 -332q16 -13 16 -31q0 -12 -10 -22l-14 -14q-9 -9 -21 -9q-14 0 -33 15l-364 334q-29 26 -29 59z" />
<glyph unicode="&#x203a;" horiz-adv-x="624" d="M109 188q0 18 16 31l362 332l-362 332q-16 13 -16 30q0 13 10 23l14 14q8 8 21 8q14 0 32 -14l365 -334q29 -29 29 -59q0 -33 -29 -59l-365 -334q-19 -15 -32 -15q-12 0 -21 9l-14 14q-10 10 -10 22z" />
<glyph unicode="&#x2044;" horiz-adv-x="622" d="M-178 0q0 12 10 27l856 1456q13 23 21 31t22 8h57q17 0 17 -11q0 -10 -12 -28l-856 -1456q-13 -23 -21 -31t-22 -8h-56q-16 0 -16 12z" />
<glyph unicode="&#x205f;" horiz-adv-x="501" />
<glyph unicode="&#x20ac;" d="M61 604v19q0 15 11.5 23.5t29.5 8.5h86v219h-90q-17 0 -27 9t-10 24v19q0 15 11.5 23.5t29.5 8.5h86q6 127 41.5 227.5t89 164t124.5 106t143 59.5t149 17q65 0 118.5 -2.5t78 -5.5t55.5 -7.5t41 -5.5q15 -2 27 -11t12 -23v-25q0 -25 -27 -25h-12q-176 19 -293 19 q-85 0 -161 -27t-141 -82.5t-106.5 -153t-47.5 -225.5h673q16 0 26.5 -7t10.5 -19v-6l-4 -19q-7 -33 -41 -33h-665v-219h608q15 0 26 -7t11 -19v-6l-4 -19q-7 -33 -41 -33h-600q6 -131 46.5 -229.5t106 -155.5t141.5 -84.5t162 -27.5q127 0 293 18h12q27 0 27 -24v-25 q0 -14 -12 -23.5t-27 -11.5q-8 -1 -40.5 -5.5t-56.5 -7t-77 -5t-119 -2.5q-78 0 -150 17.5t-143.5 60t-125 107t-88.5 167t-40 231.5h-90q-17 0 -27 9t-10 24z" />
<glyph unicode="&#x2122;" horiz-adv-x="1568" d="M51 1477v10q0 14 10.5 23.5t24.5 9.5h520q14 0 25.5 -9.5t11.5 -23.5v-10q0 -16 -11.5 -23.5t-25.5 -7.5h-219v-727q0 -13 -10.5 -24t-24.5 -11h-10q-14 0 -23.5 11t-9.5 24v727h-223q-35 0 -35 31zM723 705v778q0 16 16 20q189 23 363 23q62 0 104.5 -2.5t85 -10 t69.5 -21t51 -35.5t37 -54t20.5 -75t7.5 -101v-522q0 -9 -6 -15t-15 -6h-37q-8 0 -13 6t-5 15v522q0 50 -2.5 80.5t-12.5 58.5t-26.5 42.5t-47 25.5t-71.5 14.5t-102 3.5v-747q0 -8 -5 -14.5t-14 -6.5h-39q-20 0 -20 21v747q-130 0 -262 -16v-731q0 -8 -5 -14.5t-14 -6.5 h-37q-20 0 -20 21z" />
<glyph unicode="&#x2202;" horiz-adv-x="1101" d="M92 354q0 68 8 123l23 144q42 253 166 371t338 118q81 0 157.5 -30.5t126.5 -92.5v17q0 88 -9 156.5t-37 140t-75 118.5t-129 77t-194 30q-113 0 -205 -17q-36 -6 -41 21l-2 10q-7 35 33 43q102 21 215 21q143 0 246 -42t164 -123t89.5 -188t28.5 -247q0 -218 -47 -504 q-40 -244 -162 -378t-335 -134q-181 0 -270 97.5t-89 268.5zM180 354q0 -286 275 -286q173 0 269 105.5t130 303.5l23 144q12 74 12 137q0 134 -64.5 203t-212.5 69q-336 0 -399 -409l-23 -144q-10 -75 -10 -123z" />
<glyph unicode="&#x2206;" horiz-adv-x="1267" d="M82 51l420 1381q14 47 48.5 73.5t84.5 26.5q49 0 83 -26t48 -72l420 -1383q6 -23 -1 -37t-28 -14h-1046q-20 0 -27.5 14.5t-1.5 36.5zM188 90h891l-397 1319q-12 41 -47 41q-37 0 -47 -39z" />
<glyph unicode="&#x220f;" horiz-adv-x="1427" d="M102 1473v16q0 15 11 24t28 9h1145q17 0 28 -9t11 -24v-16q0 -15 -11 -25t-28 -10h-125v-1512q0 -16 -9.5 -27.5t-25.5 -11.5h-18q-16 0 -25.5 11.5t-9.5 27.5v1512h-717v-1512q0 -16 -9.5 -27.5t-24.5 -11.5h-21q-15 0 -25 12t-10 27v1512h-125q-17 0 -28 10t-11 25z " />
<glyph unicode="&#x2211;" horiz-adv-x="1032" d="M102.5 -29.5q2.5 31.5 18.5 58.5l368 647q9 15 9 29q0 13 -9 28l-368 647q-16 27 -18.5 58.5t21.5 57.5t75 26h692q17 0 28 -10t11 -25v-17q0 -15 -11 -23.5t-28 -8.5h-682q-7 0 -9 -6t3 -13l362 -641q23 -35 23 -73q0 -39 -23 -74l-362 -641q-5 -8 -3 -13.5t9 -5.5h682 q17 0 28 -8.5t11 -23.5v-17q0 -15 -11 -25t-28 -10h-692q-51 0 -75 26t-21.5 57.5z" />
<glyph unicode="&#x221a;" horiz-adv-x="1507" d="M102 911v17q0 15 11 24t28 9h217q62 0 94.5 -20t45.5 -75l227 -903q3 -12 12 -12q10 0 13 12l555 1786q9 39 55 39h14q19 0 25.5 -9t-0.5 -44l-555 -1792q-12 -38 -42 -63t-65 -25q-52 0 -72 20t-32 68l-223 897q-2 11 -6 18t-15.5 13t-30.5 6h-217q-17 0 -28 9.5 t-11 24.5z" />
<glyph unicode="&#x221e;" horiz-adv-x="1415" d="M182 741v52q0 424 287 424h12q155 0 264 -119q73 121 205 121h13q71 0 122 -27.5t78.5 -67.5t43.5 -101.5t20 -111.5t4 -116v-52q0 -62 -6 -115.5t-25 -112.5t-49.5 -100.5t-84 -68.5t-124.5 -27h-12q-165 0 -268 115q-69 -117 -199 -117h-12q-59 0 -105 18t-74.5 52 t-47 72.5t-27.5 90.5t-12 95t-3 96zM270 741q0 -63 2.5 -107t13.5 -93.5t29.5 -79.5t53 -50t82.5 -20h12q146 0 186 271l37 260q10 59 23 98q-54 65 -114.5 94t-113.5 29h-12q-48 0 -84 -19.5t-57.5 -51t-35 -78.5t-18 -94.5t-4.5 -106.5v-52zM696 510q100 -117 234 -117h12 q60 0 101 28t62 80t29.5 109.5t8.5 132.5v52q0 52 -2 89.5t-7.5 81.5t-18 73t-32 55t-50 38.5t-70.5 12.5h-13q-68 0 -116 -60t-66 -178l-39 -260q-14 -88 -33 -137z" />
<glyph unicode="&#x222b;" horiz-adv-x="847" d="M92 -358q0 26 43 26h103q74 0 107.5 36t33.5 126v1460q0 128 59 185t172 57q66 0 107 -6q39 -5 39 -33v-14q0 -27 -43 -27h-103q-74 0 -107.5 -36t-33.5 -126v-1460q0 -128 -59 -185t-172 -57q-66 0 -107 6q-39 5 -39 33v15z" />
<glyph unicode="&#x2248;" horiz-adv-x="1005" d="M162 512v53q0 92 43.5 139.5t118.5 47.5q78 0 135 -54l98 -96q57 -57 100 -57q40 0 61 23.5t21 84.5v54q0 18 4 25t17 7h35q13 0 17.5 -7t4.5 -25v-54q0 -92 -42.5 -139t-117.5 -47q-81 0 -137 53l-98 96q-22 22 -32 31t-28.5 18t-37.5 9q-40 0 -62 -24t-22 -85v-53 q0 -18 -4 -25.5t-17 -7.5h-35q-13 0 -17.5 7.5t-4.5 25.5zM162 922v53q0 92 43 139t119 47q79 0 135 -53l98 -96q58 -58 100 -58q40 0 61 24t21 85v53q0 18 4 25.5t17 7.5h35q13 0 17.5 -7.5t4.5 -25.5v-53q0 -92 -42.5 -139t-117.5 -47q-81 0 -137 53l-98 96 q-21 21 -32 30.5t-29 18t-37 8.5q-40 0 -62 -24t-22 -84v-53q0 -18 -4 -25.5t-17 -7.5h-35q-13 0 -17.5 7.5t-4.5 25.5z" />
<glyph unicode="&#x2260;" d="M180 586v20q0 33 41 33h244l106 324h-350q-41 0 -41 32v21q0 33 41 33h379l145 444q3 9 5.5 14t7.5 12t13 10t20 3h30q18 0 22.5 -13.5t-1.5 -25.5l-148 -444h275q41 0 41 -33v-21q0 -32 -41 -32h-303l-105 -324h408q41 0 41 -33v-20q0 -33 -41 -33h-437l-172 -526 q0 -1 -1 -3q-4 -12 -6.5 -18t-10.5 -12t-20 -6h-39q-31 0 -19 39l172 526h-215q-41 0 -41 33z" />
<glyph unicode="&#x2264;" d="M139 33v20q0 33 41 33h830q41 0 41 -33v-20q0 -33 -41 -33h-830q-41 0 -41 33zM229 801q0 34 31 59l545 447q17 14 33 14q12 0 20 -8l14 -15q11 -11 11 -22q0 -17 -17 -31l-542 -444l542 -445q17 -14 17 -30q0 -12 -11 -23l-14 -14q-8 -8 -20 -8q-16 0 -33 14l-545 446 q-31 25 -31 60z" />
<glyph unicode="&#x2265;" d="M139 33v20q0 33 41 33h830q41 0 41 -33v-20q0 -33 -41 -33h-830q-41 0 -41 33zM334 326q0 17 16 30l543 445l-543 444q-16 13 -16 31q0 12 10 22l14 15q8 8 21 8q15 0 33 -14l544 -447q31 -25 31 -59q0 -35 -31 -60l-544 -446q-18 -14 -33 -14q-13 0 -21 8l-14 14 q-10 10 -10 23z" />
<glyph unicode="&#x25ca;" horiz-adv-x="1245" d="M213 733q0 53 53 117l258 324q42 53 99 53q56 0 98 -53l258 -324q53 -64 53 -117q0 -52 -53 -115l-252 -313q-32 -40 -55.5 -57t-48.5 -17q-46 0 -105 74l-252 313q-53 63 -53 115zM303 731q0 -26 29 -63l246 -308q26 -38 45 -38t45 38l245 308q29 37 29 63q0 23 -24 57 l-254 322q-23 29 -41 29t-41 -29l-254 -322q-25 -36 -25 -57z" />
<glyph unicode="&#x25fc;" horiz-adv-x="1095" d="M0 0v1096h1096v-1096h-1096z" />
</font>
</defs>
</svg>
